# Blender v2.79 (sub 0) OBJ File: 'box.blend'
# www.blender.org
mtllib box.mtl
o Box
v 1.000000 -1.000000 -1.000000
v 1.000000 -1.000000 1.000000
v -1.000000 -1.000000 1.000000
v -1.000000 -1.000000 -1.000000
v 1.000000 1.000000 -0.999999
v 0.999999 1.000000 1.000001
v -1.000000 1.000000 1.000000
v -1.000000 1.000000 -1.000000
v 0.890278 1.000000 0.890279
v -0.899345 1.000000 0.898787
v 0.899348 1.000000 -0.914338
v -0.911404 1.000000 -0.911404
v 0.002077 -0.715347 0.002078
v 1.000000 1.000000 0.013358
v -1.000000 1.000000 -0.009249
v 0.894691 1.000000 0.012168
v -0.905387 1.000000 -0.008180
v 0.026113 1.000000 -1.000000
v 0.024024 1.000000 -0.912920
v 0.011621 1.000000 1.000000
v 0.010611 1.000000 0.894461
v 0.007733 -0.715347 0.593475
v -0.572742 -0.715347 -0.004420
v 0.597503 -0.715347 0.597504
v -0.558200 -0.715347 -0.558200
v 0.576099 -0.715347 -0.584193
v 0.015831 -0.715347 -0.571354
v -0.588334 -0.715347 0.589403
v 0.586838 -0.715347 0.008688
vn 0.0000 -1.0000 0.0000
vn 0.0000 1.0000 0.0000
vn 1.0000 -0.0000 0.0000
vn 0.0000 -0.0000 1.0000
vn -1.0000 -0.0000 -0.0000
vn 0.0000 0.0000 -1.0000
vn 0.9797 0.2004 -0.0065
vn 0.0016 0.1887 0.9820
vn -0.9856 0.1691 -0.0050
vn 0.0067 0.1728 -0.9849
vn 0.9837 0.1795 -0.0066
vn -0.9829 0.1843 -0.0049
vn 0.0016 0.2020 0.9794
vn 0.9814 0.1904 0.0258
vn 0.0225 0.1951 0.9805
vn -0.9841 0.1766 0.0178
vn -0.0047 0.1690 -0.9856
vn -0.0047 0.1767 -0.9843
usemtl Material
s off
f 2//1 4//1 1//1
f 8//2 12//2 18//2
f 5//3 2//3 1//3
f 6//4 3//4 2//4
f 3//5 8//5 4//5
f 1//6 18//6 5//6
f 2//1 3//1 4//1
f 8//2 15//2 12//2
f 14//3 2//3 5//3
f 20//4 3//4 6//4
f 3//5 15//5 8//5
f 1//6 4//6 8//6
f 9//2 21//2 20//2
f 5//2 11//2 14//2
f 17//7 25//7 12//7
f 19//8 26//8 11//8
f 17//2 15//2 10//2
f 14//2 9//2 6//2
f 13//2 28//2 22//2
f 16//9 24//9 9//9
f 18//2 19//2 11//2
f 21//10 24//10 22//10
f 13//2 27//2 25//2
f 20//2 10//2 7//2
f 10//2 15//2 7//2
f 10//2 20//2 21//2
f 14//2 11//2 16//2
f 11//2 5//2 18//2
f 12//2 15//2 17//2
f 18//2 12//2 19//2
f 9//2 14//2 16//2
f 20//2 6//2 9//2
f 28//11 17//11 10//11
f 13//2 29//2 26//2
f 26//12 16//12 11//12
f 25//2 23//2 13//2
f 22//2 24//2 13//2
f 28//10 21//10 22//10
f 26//2 27//2 13//2
f 25//13 19//13 12//13
f 24//2 29//2 13//2
f 23//2 28//2 13//2
f 1//6 8//6 18//6
f 14//3 6//3 2//3
f 20//4 7//4 3//4
f 3//5 7//5 15//5
f 17//14 23//14 25//14
f 19//15 27//15 26//15
f 16//16 29//16 24//16
f 21//17 9//17 24//17
f 28//14 23//14 17//14
f 26//16 29//16 16//16
f 28//18 10//18 21//18
f 25//15 27//15 19//15
