# Blender v2.79 (sub 0) OBJ File: 'carbon_leg_mid.blend'
# www.blender.org
mtllib carbon_leg_mid.mtl
o CarbonLegMid
v 0.400000 -1.000000 0.400000
v 0.400000 1.000000 0.900000
v -0.400000 -1.000000 0.400000
v -0.400000 1.000000 0.900000
v 0.923958 0.051917 0.465342
v 1.115560 0.027688 0.321431
v 0.240095 -0.035113 0.371185
v 0.649489 0.023706 0.037231
v 0.467343 0.019573 0.382444
v 0.969230 -0.294929 0.386340
v 1.002473 -0.486614 0.262133
v 1.111286 0.365111 0.334823
v 0.716481 -0.172261 0.370901
v 0.549724 0.254136 0.511864
v 0.739621 0.292108 0.513998
v 0.509998 -0.181682 0.427557
v 0.685284 -0.253855 0.463237
v 0.834572 -0.265507 0.432646
v 0.619299 -0.254704 0.470128
v 1.000000 1.000000 -0.000000
v 1.000000 -1.000000 0.000000
v -1.000000 1.000000 0.000000
v -1.000000 -1.000000 0.000000
v 0.400000 -1.000000 -0.400000
v 0.400000 1.000000 -0.900000
v -0.400000 -1.000000 -0.400000
v -0.400000 1.000000 -0.900000
v 0.923958 0.051917 -0.465342
v 1.115560 0.027688 -0.321431
v -0.006179 -0.014548 0.000000
v 0.240095 -0.035113 -0.371185
v 0.649489 0.023706 -0.037231
v 1.288611 -0.011011 -0.000000
v 0.467343 0.019573 -0.382445
v 0.969230 -0.294929 -0.386340
v 1.002473 -0.486614 -0.262133
v 1.111286 0.365111 -0.334823
v 0.716481 -0.172261 -0.370901
v 0.549724 0.254136 -0.511864
v 0.739621 0.292108 -0.513998
v 0.509998 -0.181682 -0.427557
v 0.685284 -0.253855 -0.463237
v 0.834572 -0.265507 -0.432646
v 0.619299 -0.254704 -0.470128
vn 0.0949 0.8666 0.4899
vn 0.1692 -0.8722 0.4590
vn 0.6088 -0.0238 0.7929
vn 0.7620 0.4015 0.5080
vn -0.6281 0.6335 0.4518
vn -0.0672 0.0743 0.9950
vn 0.8448 -0.2465 0.4749
vn -0.0169 -0.4785 0.8779
vn -0.6550 -0.6416 0.3990
vn -0.7432 0.5010 0.4435
vn -0.6504 -0.6237 0.4336
vn 0.5886 -0.1057 0.8015
vn 0.8475 0.2806 0.4505
vn -0.6567 -0.5973 0.4604
vn 0.1743 -0.4056 0.8973
vn -0.5163 0.3656 0.7744
vn 0.8422 -0.2408 0.4824
vn 0.0577 -0.4257 0.9030
vn 0.2852 -0.1773 0.9419
vn 0.5153 -0.4013 0.7573
vn 0.5100 -0.3931 0.7651
vn 0.8801 -0.0077 0.4747
vn 0.7813 -0.2383 0.5769
vn 0.9427 0.2691 0.1970
vn 0.0679 -0.3912 0.9178
vn -0.1881 0.1767 0.9661
vn 0.1952 0.7013 0.6856
vn 0.5961 0.3072 0.7419
vn 0.1674 0.6715 0.7219
vn 0.7721 -0.4927 0.4015
vn 0.0000 -0.4787 0.8780
vn 0.0000 -0.0937 0.9956
vn -0.2245 0.2177 0.9498
vn 0.2777 -0.2060 0.9383
vn 0.1868 -0.1537 0.9703
vn 0.0607 0.7377 0.6724
vn -0.4429 0.0324 0.8960
vn 0.1046 -0.1236 0.9868
vn 0.0949 0.8666 -0.4899
vn 0.1692 -0.8722 -0.4590
vn 0.6088 -0.0238 -0.7929
vn 0.7620 0.4015 -0.5080
vn -0.6281 0.6335 -0.4518
vn -0.0672 0.0743 -0.9950
vn 0.8448 -0.2465 -0.4749
vn -0.0169 -0.4785 -0.8779
vn -0.6550 -0.6416 -0.3990
vn -0.7432 0.5010 -0.4435
vn -0.6504 -0.6237 -0.4336
vn 0.5886 -0.1057 -0.8015
vn 0.8475 0.2806 -0.4505
vn -0.6567 -0.5973 -0.4604
vn 0.1743 -0.4056 -0.8973
vn -0.5163 0.3656 -0.7744
vn 0.8422 -0.2408 -0.4824
vn 0.0577 -0.4257 -0.9030
vn 0.2852 -0.1773 -0.9419
vn 0.5153 -0.4013 -0.7573
vn 0.5100 -0.3931 -0.7651
vn 0.8801 -0.0077 -0.4747
vn 0.7813 -0.2383 -0.5769
vn 0.9427 0.2691 -0.1970
vn 0.0679 -0.3912 -0.9178
vn -0.1881 0.1767 -0.9661
vn 0.1952 0.7013 -0.6856
vn 0.5961 0.3072 -0.7419
vn 0.1674 0.6715 -0.7219
vn 0.7721 -0.4927 -0.4015
vn 0.0000 -0.4787 -0.8780
vn -0.0000 -0.0937 -0.9956
vn -0.2245 0.2177 -0.9498
vn 0.2777 -0.2060 -0.9383
vn 0.1868 -0.1537 -0.9703
vn 0.0607 0.7377 -0.6724
vn -0.4429 0.0324 -0.8960
vn 0.1046 -0.1236 -0.9868
usemtl None
s off
f 8//1 16//1 13//1
f 8//2 15//2 14//2
f 2//3 6//3 12//3
f 2//4 12//4 20//4
f 23//5 7//5 30//5
f 3//6 9//6 7//6
f 33//7 11//7 21//7
f 9//8 14//8 4//8
f 30//9 7//9 22//9
f 5//10 8//10 13//10
f 22//11 7//11 4//11
f 6//12 5//12 10//12
f 8//13 9//13 16//13
f 8//14 5//14 15//14
f 15//15 6//15 2//15
f 23//16 3//16 7//16
f 33//17 6//17 11//17
f 4//18 7//18 9//18
f 10//19 5//19 18//19
f 11//20 10//20 1//20
f 21//21 11//21 1//21
f 12//22 6//22 33//22
f 11//23 6//23 10//23
f 20//24 12//24 33//24
f 14//25 15//25 4//25
f 16//26 9//26 3//26
f 13//27 17//27 18//27
f 15//28 5//28 6//28
f 13//29 16//29 19//29
f 14//30 9//30 8//30
f 4//31 15//31 2//31
f 3//32 1//32 19//32
f 19//33 16//33 3//33
f 18//34 1//34 10//34
f 18//35 17//35 1//35
f 19//36 17//36 13//36
f 18//37 5//37 13//37
f 19//38 1//38 17//38
f 32//39 38//39 41//39
f 32//40 39//40 40//40
f 25//41 37//41 29//41
f 25//42 20//42 37//42
f 23//43 30//43 31//43
f 26//44 31//44 34//44
f 33//45 21//45 36//45
f 34//46 27//46 39//46
f 30//47 22//47 31//47
f 28//48 38//48 32//48
f 22//49 27//49 31//49
f 29//50 35//50 28//50
f 32//51 41//51 34//51
f 32//52 40//52 28//52
f 40//53 25//53 29//53
f 23//54 31//54 26//54
f 33//55 36//55 29//55
f 27//56 34//56 31//56
f 35//57 43//57 28//57
f 36//58 24//58 35//58
f 21//59 24//59 36//59
f 37//60 33//60 29//60
f 36//61 35//61 29//61
f 20//62 33//62 37//62
f 39//63 27//63 40//63
f 41//64 26//64 34//64
f 38//65 43//65 42//65
f 40//66 29//66 28//66
f 38//67 44//67 41//67
f 39//68 32//68 34//68
f 27//69 25//69 40//69
f 26//70 44//70 24//70
f 44//71 26//71 41//71
f 43//72 35//72 24//72
f 43//73 24//73 42//73
f 44//74 38//74 42//74
f 43//75 38//75 28//75
f 44//76 42//76 24//76
