# Blender v2.79 (sub 0) OBJ File: 'carbon_foot_gem.blend'
# www.blender.org
mtllib carbon_foot_gem.mtl
o CarbonFootGem
v 0.400000 -0.000000 -0.700000
v -0.400000 -0.000000 -0.700000
v -0.545726 -0.920461 -0.400000
v -0.308433 -0.966423 -0.400000
v -0.037505 -1.008116 -0.000000
v -0.504024 -1.835565 -0.000000
v 1.000000 -0.000000 0.000000
v -1.000000 -0.000000 -0.000000
v 0.400000 -0.000000 0.700000
v -0.400000 -0.000000 0.700000
v 0.842972 -2.823987 0.000000
v -0.545726 -0.920461 0.400000
v -0.308434 -0.966423 0.400000
vn -0.7561 -0.0915 -0.6481
vn -0.0460 -0.2375 -0.9703
vn 0.6049 -0.6044 -0.5185
vn -0.2894 -0.3944 -0.8722
vn -0.8648 -0.2337 -0.4444
vn 0.7838 0.3800 -0.4912
vn 0.0000 -0.3099 -0.9508
vn 0.6114 -0.6293 -0.4797
vn -0.0507 -0.2620 -0.9637
vn -0.7561 -0.0915 0.6481
vn -0.0460 -0.2375 0.9703
vn 0.6049 -0.6044 0.5185
vn -0.2894 -0.3944 0.8722
vn -0.8648 -0.2337 0.4444
vn 0.7838 0.3800 0.4912
vn 0.0000 -0.3099 0.9508
vn 0.6114 -0.6293 0.4797
vn -0.0507 -0.2620 0.9637
usemtl None
s off
f 2//1 3//1 8//1
f 3//2 4//2 11//2
f 7//3 4//3 1//3
f 6//4 3//4 11//4
f 8//5 3//5 6//5
f 4//6 5//6 11//6
f 3//7 2//7 1//7
f 5//8 4//8 7//8
f 4//9 3//9 1//9
f 10//10 8//10 12//10
f 12//11 11//11 13//11
f 7//12 9//12 13//12
f 6//13 11//13 12//13
f 8//14 6//14 12//14
f 13//15 11//15 5//15
f 12//16 9//16 10//16
f 5//17 7//17 13//17
f 13//18 9//18 12//18
