# Blender v2.76 (sub 0) OBJ File: 'fountain.blend'
# www.blender.org
mtllib fountain.mtl
o Fountain
v -0.442410 -0.330690 0.302440
v -0.601855 -0.079772 0.261527
v -1.000000 0.000000 0.088016
v -0.332695 0.023529 0.177998
v -0.515263 -0.420912 0.241868
v -0.185441 -0.568588 0.160394
v -0.913157 -0.227319 0.128351
v -0.994031 -0.129508 0.108203
v -0.957983 -0.169395 0.127882
v -0.512228 -0.496903 0.109134
v -0.080975 -1.000001 0.089155
v 0.442410 -0.330690 0.302440
v 0.601855 -0.079772 0.261527
v 0.000000 -0.492211 0.226078
v 0.000000 -0.026602 0.415622
v 1.000000 0.000000 0.088016
v 0.332695 0.023529 0.177998
v 0.515263 -0.420912 0.241868
v 0.185441 -0.568588 0.160394
v 0.913157 -0.227319 0.128351
v 0.994031 -0.129508 0.108203
v 0.957983 -0.169395 0.127882
v 0.512228 -0.496903 0.109134
v 0.080975 -1.000001 0.089155
v 0.000000 -1.000001 0.129879
v -0.442410 -0.330690 -0.302440
v -0.601855 -0.079772 -0.261527
v -1.000000 -0.132211 0.000000
v -1.000000 0.000000 0.000000
v -1.000000 0.000000 -0.088016
v -0.332695 0.023529 -0.177998
v -0.515263 -0.420912 -0.241868
v -0.185441 -0.568588 -0.160394
v -0.696814 -0.517454 0.000000
v -0.220262 -0.553604 0.000000
v -0.913157 -0.227319 -0.128351
v -0.994031 -0.129508 -0.108203
v -0.957983 -0.169395 -0.127882
v -0.122921 -1.000001 0.000000
v -0.512228 -0.496903 -0.109134
v -0.080975 -1.000001 -0.089155
v 0.442410 -0.330690 -0.302440
v 0.601855 -0.079772 -0.261527
v 0.000000 -0.492211 -0.226078
v 0.000000 -0.026602 -0.415622
v 1.000000 -0.132211 0.000000
v 1.000000 0.000000 0.000000
v 0.000000 0.000000 0.000000
v 0.000000 -0.999997 0.000000
v 1.000000 0.000000 -0.088016
v 0.332695 0.023529 -0.177998
v 0.515263 -0.420912 -0.241868
v 0.185441 -0.568588 -0.160394
v 0.696814 -0.517454 0.000000
v 0.220262 -0.553604 0.000000
v 0.913157 -0.227319 -0.128351
v 0.994031 -0.129508 -0.108203
v 0.957983 -0.169395 -0.127882
v 0.122921 -1.000001 0.000000
v 0.512228 -0.496903 -0.109134
v 0.080975 -1.000001 -0.089155
v 0.000000 -1.000001 -0.129879
vn -0.061900 -0.560100 0.826100
vn -0.110200 0.782600 0.612700
vn 0.187900 0.273200 0.943400
vn -1.000000 0.000000 0.000000
vn -0.072100 -0.950900 0.301100
vn -0.013800 0.987600 -0.156300
vn 0.022200 -0.377000 0.926000
vn -0.754700 -0.653500 0.058000
vn 0.104200 0.992500 0.063500
vn -0.484800 0.419700 0.767300
vn -0.997700 -0.037300 0.056000
vn 0.000000 1.000000 0.000000
vn -0.033100 -0.538500 0.842000
vn -0.783700 -0.616800 0.073200
vn -0.191300 -0.853700 0.484400
vn 0.000000 -1.000000 -0.000000
vn -0.959500 -0.209200 0.188800
vn -0.788500 -0.609500 0.081800
vn -0.480400 -0.628700 0.611500
vn -0.375000 0.125900 0.918400
vn -0.386300 -0.278400 0.879300
vn -0.337200 -0.061100 0.939500
vn -0.374400 0.115600 0.920100
vn -0.387600 -0.292800 0.874100
vn -0.259000 -0.840800 0.475400
vn -0.207100 -0.977200 -0.046300
vn -0.261900 -0.179600 0.948200
vn -0.869200 -0.278000 0.408900
vn -0.435200 -0.248300 0.865400
vn 0.061900 -0.560100 0.826100
vn 0.110200 0.782600 0.612700
vn -0.187900 0.273200 0.943400
vn 1.000000 0.000000 0.000000
vn 0.072100 -0.950900 0.301100
vn 0.013800 0.987600 -0.156300
vn -0.022200 -0.377000 0.926000
vn 0.754700 -0.653500 0.058000
vn -0.104200 0.992500 0.063500
vn 0.484800 0.419700 0.767300
vn 0.997700 -0.037300 0.056000
vn 0.033100 -0.538500 0.842000
vn 0.783700 -0.616800 0.073200
vn 0.191300 -0.853700 0.484400
vn 0.959500 -0.209200 0.188800
vn 0.788500 -0.609500 0.081800
vn 0.480400 -0.628700 0.611500
vn 0.375000 0.125900 0.918400
vn 0.386300 -0.278400 0.879300
vn 0.337200 -0.061100 0.939500
vn 0.374400 0.115600 0.920100
vn 0.387600 -0.292800 0.874100
vn 0.259000 -0.840800 0.475400
vn 0.207100 -0.977200 -0.046300
vn 0.261900 -0.179600 0.948200
vn 0.869200 -0.278000 0.408900
vn 0.435200 -0.248300 0.865400
vn -0.061900 -0.560100 -0.826100
vn -0.110200 0.782600 -0.612700
vn 0.187900 0.273200 -0.943400
vn -0.072100 -0.950900 -0.301100
vn -0.013800 0.987600 0.156300
vn 0.022200 -0.377000 -0.926000
vn -0.754700 -0.653500 -0.058000
vn 0.104200 0.992500 -0.063500
vn -0.484800 0.419700 -0.767300
vn -0.997700 -0.037300 -0.056000
vn -0.033100 -0.538500 -0.842000
vn -0.783700 -0.616800 -0.073200
vn -0.191300 -0.853700 -0.484400
vn -0.959500 -0.209200 -0.188800
vn -0.788500 -0.609500 -0.081800
vn -0.480400 -0.628700 -0.611500
vn -0.375000 0.125900 -0.918400
vn -0.386300 -0.278400 -0.879300
vn -0.337200 -0.061100 -0.939500
vn -0.374400 0.115600 -0.920100
vn -0.387600 -0.292800 -0.874100
vn -0.259000 -0.840800 -0.475400
vn -0.207100 -0.977200 0.046300
vn -0.261900 -0.179600 -0.948200
vn -0.869200 -0.278000 -0.408900
vn -0.435200 -0.248300 -0.865400
vn 0.061900 -0.560100 -0.826100
vn 0.110200 0.782600 -0.612700
vn -0.187900 0.273200 -0.943400
vn 0.072100 -0.950900 -0.301100
vn 0.013800 0.987600 0.156300
vn -0.022200 -0.377000 -0.926000
vn 0.754700 -0.653500 -0.058000
vn -0.104200 0.992500 -0.063500
vn 0.484800 0.419700 -0.767300
vn 0.997700 -0.037300 -0.056000
vn 0.033100 -0.538500 -0.842000
vn 0.783700 -0.616800 -0.073200
vn 0.191300 -0.853700 -0.484400
vn 0.959500 -0.209200 -0.188800
vn 0.788500 -0.609500 -0.081800
vn 0.480400 -0.628700 -0.611500
vn 0.375000 0.125900 -0.918400
vn 0.386300 -0.278400 -0.879300
vn 0.337200 -0.061100 -0.939500
vn 0.374400 0.115600 -0.920100
vn 0.387600 -0.292800 -0.874100
vn 0.259000 -0.840800 -0.475400
vn 0.207100 -0.977200 0.046300
vn 0.261900 -0.179600 -0.948200
vn 0.869200 -0.278000 -0.408900
vn 0.435200 -0.248300 -0.865400
usemtl Material
s off
f 1//1 6//1 14//1
f 3//2 2//2 4//2
f 4//3 2//3 1//3
f 3//4 29//4 28//4
f 34//5 35//5 10//5
f 3//6 4//6 48//6
f 14//7 15//7 1//7
f 9//8 8//8 28//8
f 15//9 48//9 4//9
f 15//10 4//10 1//10
f 3//11 28//11 8//11
f 29//12 3//12 48//12
f 5//13 6//13 1//13
f 28//14 34//14 7//14
f 5//15 34//15 10//15
f 11//16 49//16 25//16
f 35//17 39//17 6//17
f 7//18 9//18 28//18
f 34//19 5//19 7//19
f 2//20 3//20 8//20
f 5//21 1//21 7//21
f 1//22 2//22 9//22
f 2//23 8//23 9//23
f 1//24 9//24 7//24
f 39//16 49//16 11//16
f 6//25 5//25 10//25
f 35//26 6//26 10//26
f 14//27 6//27 25//27
f 6//28 39//28 11//28
f 6//29 11//29 25//29
f 12//30 14//30 19//30
f 16//31 17//31 13//31
f 17//32 12//32 13//32
f 16//33 46//33 47//33
f 54//34 23//34 55//34
f 16//35 48//35 17//35
f 14//36 12//36 15//36
f 22//37 46//37 21//37
f 15//38 17//38 48//38
f 15//39 12//39 17//39
f 16//40 21//40 46//40
f 47//12 48//12 16//12
f 18//41 12//41 19//41
f 46//42 20//42 54//42
f 18//43 23//43 54//43
f 24//16 25//16 49//16
f 55//44 19//44 59//44
f 20//45 46//45 22//45
f 54//46 20//46 18//46
f 13//47 21//47 16//47
f 18//48 20//48 12//48
f 12//49 22//49 13//49
f 13//50 22//50 21//50
f 12//51 20//51 22//51
f 59//16 24//16 49//16
f 19//52 23//52 18//52
f 55//53 23//53 19//53
f 14//54 25//54 19//54
f 19//55 24//55 59//55
f 19//56 25//56 24//56
f 26//57 44//57 33//57
f 30//58 31//58 27//58
f 31//59 26//59 27//59
f 30//4 28//4 29//4
f 34//60 40//60 35//60
f 30//61 48//61 31//61
f 44//62 26//62 45//62
f 38//63 28//63 37//63
f 45//64 31//64 48//64
f 45//65 26//65 31//65
f 30//66 37//66 28//66
f 29//12 48//12 30//12
f 32//67 26//67 33//67
f 28//68 36//68 34//68
f 32//69 40//69 34//69
f 41//16 62//16 49//16
f 35//70 33//70 39//70
f 36//71 28//71 38//71
f 34//72 36//72 32//72
f 27//73 37//73 30//73
f 32//74 36//74 26//74
f 26//75 38//75 27//75
f 27//76 38//76 37//76
f 26//77 36//77 38//77
f 39//16 41//16 49//16
f 33//78 40//78 32//78
f 35//79 40//79 33//79
f 44//80 62//80 33//80
f 33//81 41//81 39//81
f 33//82 62//82 41//82
f 42//83 53//83 44//83
f 50//84 43//84 51//84
f 51//85 43//85 42//85
f 50//33 47//33 46//33
f 54//86 55//86 60//86
f 50//87 51//87 48//87
f 44//88 45//88 42//88
f 58//89 57//89 46//89
f 45//90 48//90 51//90
f 45//91 51//91 42//91
f 50//92 46//92 57//92
f 47//12 50//12 48//12
f 52//93 53//93 42//93
f 46//94 54//94 56//94
f 52//95 54//95 60//95
f 61//16 49//16 62//16
f 55//96 59//96 53//96
f 56//97 58//97 46//97
f 54//98 52//98 56//98
f 43//99 50//99 57//99
f 52//100 42//100 56//100
f 42//101 43//101 58//101
f 43//102 57//102 58//102
f 42//103 58//103 56//103
f 59//16 49//16 61//16
f 53//104 52//104 60//104
f 55//105 53//105 60//105
f 44//106 53//106 62//106
f 53//107 59//107 61//107
f 53//108 61//108 62//108
