# Blender v2.76 (sub 0) OBJ File: 'gem.blend'
# www.blender.org
mtllib gem.mtl
o Side
v 0.700000 -0.700000 0.000000
v -0.700000 -0.700000 -0.000000
v 1.000000 -0.000000 0.000000
v -1.000000 -0.000000 -0.000000
v 0.400000 -0.000000 -0.400000
v -0.400000 -0.000000 -0.400000
v -0.000000 -1.000000 -0.000000
v -0.330000 -0.400000 -0.400000
v 0.330000 -0.400000 -0.400000
v 0.400000 -0.000000 0.400000
v -0.400000 -0.000000 0.400000
v -0.330000 -0.400000 0.400000
v 0.330000 -0.400000 0.400000
vn -0.552100 -0.096600 -0.828200
vn 0.000000 -0.554700 -0.832100
vn 0.552100 -0.096600 -0.828200
vn -0.271200 -0.632700 -0.725400
vn -0.604400 -0.259000 -0.753400
vn 0.271200 -0.632700 -0.725400
vn 0.000000 -0.000000 -1.000000
vn 0.604400 -0.259000 -0.753400
vn 0.000000 0.000000 1.000000
vn -0.604400 -0.259000 0.753400
vn -0.552100 -0.096600 0.828200
vn -0.271200 -0.632700 0.725400
vn 0.000000 -0.554700 0.832100
vn 0.271200 -0.632700 0.725400
vn 0.604400 -0.259000 0.753400
vn 0.552100 -0.096600 0.828200
usemtl None
s off
f 6//1 8//1 4//1
f 8//2 9//2 7//2
f 3//3 9//3 5//3
f 2//4 8//4 7//4
f 4//5 8//5 2//5
f 9//6 1//6 7//6
f 8//7 6//7 5//7
f 1//8 9//8 3//8
f 11//9 12//9 13//9
f 10//9 11//9 13//9
f 9//7 8//7 5//7
f 2//10 12//10 4//10
f 12//11 11//11 4//11
f 2//12 7//12 12//12
f 12//13 7//13 13//13
f 7//14 1//14 13//14
f 1//15 3//15 13//15
f 13//16 3//16 10//16
