# Blender v2.79 (sub 0) OBJ File: 'iron_arm_gem.blend'
# www.blender.org
mtllib iron_arm_gem.mtl
o IronArmGem
v 0.400000 -0.000000 -0.400000
v -0.400000 -0.000000 -0.400000
v -0.573993 -0.601880 -0.165088
v 0.509441 -0.601880 -0.165088
v -0.027941 -0.601880 -0.447918
v -0.248609 -1.086600 -0.234965
v 0.225022 -1.084480 -0.231204
v -0.012359 -1.078869 -0.281881
v 0.449334 -1.320667 0.000000
v -0.474280 -1.320667 -0.000000
v 1.000000 -0.000000 0.000000
v -1.000000 -0.000000 -0.000000
v 0.400000 -0.000000 0.400000
v -0.400000 -0.000000 0.400000
v -0.000000 -1.418787 -0.000000
v -0.573993 -0.601880 0.165088
v 0.509441 -0.601880 0.165088
v 0.828297 -0.644588 0.000000
v -0.806223 -0.638318 -0.000000
v -0.027941 -0.601880 0.447918
v -0.248609 -1.086600 0.234965
v 0.225022 -1.084480 0.231204
v -0.012359 -1.078869 0.281881
vn -0.5474 -0.1622 -0.8210
vn -0.4526 -0.1778 -0.8738
vn 0.5413 -0.2185 -0.8119
vn -0.5550 -0.2586 -0.7906
vn -0.5535 -0.1680 -0.8157
vn 0.5714 -0.2288 -0.7881
vn 0.0000 0.0794 -0.9968
vn 0.4216 -0.2363 -0.8754
vn 0.4507 -0.2523 -0.8563
vn 0.4440 -0.1183 -0.8882
vn -0.5323 -0.2590 -0.8060
vn 0.1482 -0.6281 -0.7639
vn -0.4498 -0.2089 -0.8684
vn -0.1316 -0.6362 -0.7602
vn -0.1736 -0.3288 -0.9283
vn 0.4604 -0.1515 -0.8747
vn 0.1362 -0.6239 -0.7695
vn 0.1908 -0.3171 -0.9290
vn -0.1303 -0.6357 -0.7609
vn -0.5474 -0.1622 0.8210
vn -0.4526 -0.1778 0.8738
vn 0.5413 -0.2185 0.8119
vn -0.5550 -0.2586 0.7906
vn -0.5535 -0.1680 0.8157
vn 0.5714 -0.2288 0.7881
vn -0.0000 0.0794 0.9968
vn 0.4216 -0.2363 0.8754
vn 0.4507 -0.2523 0.8563
vn 0.4440 -0.1183 0.8882
vn -0.5323 -0.2590 0.8060
vn 0.1482 -0.6281 0.7639
vn -0.4498 -0.2089 0.8684
vn -0.1316 -0.6362 0.7602
vn -0.1736 -0.3288 0.9283
vn 0.4604 -0.1515 0.8747
vn 0.1362 -0.6239 0.7695
vn 0.1908 -0.3171 0.9290
vn -0.1303 -0.6357 0.7609
usemtl None
s off
f 2//1 3//1 12//1
f 3//2 5//2 6//2
f 11//3 4//3 1//3
f 10//4 3//4 6//4
f 12//5 3//5 19//5
f 4//6 9//6 7//6
f 5//7 2//7 1//7
f 9//8 4//8 18//8
f 4//9 5//9 1//9
f 18//10 4//10 11//10
f 19//11 3//11 10//11
f 15//12 8//12 7//12
f 3//13 2//13 5//13
f 6//14 15//14 10//14
f 6//15 5//15 8//15
f 7//16 5//16 4//16
f 7//17 9//17 15//17
f 7//18 8//18 5//18
f 8//19 15//19 6//19
f 14//20 12//20 16//20
f 16//21 21//21 20//21
f 11//22 13//22 17//22
f 10//23 21//23 16//23
f 12//24 19//24 16//24
f 17//25 22//25 9//25
f 20//26 13//26 14//26
f 9//27 18//27 17//27
f 17//28 13//28 20//28
f 18//29 11//29 17//29
f 19//30 10//30 16//30
f 15//31 22//31 23//31
f 16//32 20//32 14//32
f 21//33 10//33 15//33
f 21//34 23//34 20//34
f 22//35 17//35 20//35
f 22//36 15//36 9//36
f 22//37 20//37 23//37
f 23//38 21//38 15//38
