# Blender v2.79 (sub 0) OBJ File: 'iron_arm_gem2.blend'
# www.blender.org
mtllib iron_arm_gem2.mtl
o IronArmGem2
v 0.700000 -0.865731 -1.052496
v 1.000000 -0.000000 0.000000
v 0.400000 -0.000000 -0.400000
v 0.330000 -0.563924 -0.338958
v 0.400000 -0.000000 0.400000
v 0.330000 -0.366190 0.452937
v 0.189142 -0.856043 0.090317
v 1.093980 -0.902653 -0.523643
v 0.498982 -1.732643 -0.072279
v 0.253570 -0.634854 0.438273
v 0.407562 -0.557927 0.417760
v 0.630329 -0.371441 0.240372
v -0.018038 -1.015923 0.126331
v 0.504654 -0.264342 -0.158888
v 0.694686 -0.337534 -0.110298
v 0.652635 -0.370790 0.102866
v -0.700000 -0.865731 -1.052496
v -1.000000 -0.000000 -0.000000
v -0.400000 -0.000000 -0.400000
v 0.000000 -0.678023 -0.242507
v -0.330000 -0.563924 -0.338958
v -0.400000 -0.000000 0.400000
v -0.330000 -0.366190 0.452937
v -0.189142 -0.856043 0.090317
v -1.093980 -0.902653 -0.523643
v -0.498982 -1.732643 -0.072279
v -0.253570 -0.634854 0.438273
v -0.407562 -0.557927 0.417760
v -0.000000 -0.634854 0.438273
v -0.630329 -0.371441 0.240372
v -0.000000 -0.366190 0.452937
v -0.000000 -0.000000 0.400000
v -0.000000 -0.203633 0.376941
v 0.018038 -1.015923 0.126331
v -0.000000 -0.848909 0.100827
v 0.000000 -0.313895 -0.365826
v 0.000000 -0.562249 -0.338958
v 0.000000 -0.000000 -0.400000
v -0.504654 -0.264342 -0.158888
v -0.694686 -0.337534 -0.110298
v -0.652635 -0.370790 0.102866
vn 0.4882 -0.4747 -0.7323
vn -0.4112 0.7433 -0.5276
vn 0.3559 0.9126 -0.2014
vn -0.0005 -0.1076 -0.9942
vn 0.5546 0.0142 0.8320
vn 0.1828 -0.1054 0.9775
vn 0.5732 -0.6686 -0.4737
vn 0.0000 0.4235 0.9059
vn 0.9787 -0.1308 0.1581
vn -0.0584 -0.8937 -0.4448
vn -0.7298 -0.4310 -0.5308
vn 0.0927 0.6297 -0.7713
vn -0.8793 -0.3671 0.3034
vn 0.7346 -0.6773 0.0392
vn 0.0000 -0.8439 0.5365
vn 0.0000 -0.0545 0.9985
vn 0.5766 0.0842 0.8126
vn -0.6036 -0.3465 0.7181
vn 0.5766 -0.0459 0.8158
vn 0.7141 -0.2214 0.6640
vn 0.4499 -0.7891 0.4183
vn -0.0000 -0.1125 0.9936
vn -0.0021 -0.8444 0.5357
vn -0.1418 0.1681 0.9755
vn -0.0000 -0.1082 -0.9941
vn -0.0032 -0.6401 -0.7683
vn 0.9762 -0.1323 0.1719
vn 0.8287 -0.1609 -0.5361
vn 0.2717 0.0680 -0.9600
vn 0.7408 -0.6615 0.1170
vn 0.3497 0.3244 -0.8789
vn 0.6655 -0.0731 0.7428
vn -0.4882 -0.4747 -0.7323
vn 0.4112 0.7433 -0.5276
vn -0.3559 0.9126 -0.2014
vn 0.0005 -0.1076 -0.9942
vn -0.5546 0.0142 0.8320
vn -0.1828 -0.1054 0.9775
vn -0.5732 -0.6686 -0.4737
vn -0.9787 -0.1308 0.1581
vn 0.0584 -0.8937 -0.4448
vn 0.7298 -0.4310 -0.5308
vn -0.0927 0.6297 -0.7713
vn 0.8793 -0.3671 0.3034
vn -0.7346 -0.6773 0.0392
vn -0.5766 0.0842 0.8126
vn 0.6036 -0.3465 0.7181
vn -0.5766 -0.0459 0.8158
vn -0.7141 -0.2214 0.6640
vn -0.4499 -0.7891 0.4183
vn 0.0021 -0.8444 0.5357
vn 0.1418 0.1681 0.9755
vn 0.0032 -0.6401 -0.7683
vn -0.9762 -0.1323 0.1719
vn -0.8287 -0.1609 -0.5361
vn -0.2717 0.0680 -0.9600
vn -0.7408 -0.6615 0.1170
vn -0.3497 0.3244 -0.8789
vn -0.6655 -0.0731 0.7428
usemtl None
s off
f 2//1 14//1 3//1
f 4//2 1//2 20//2
f 1//3 4//3 8//3
f 4//4 37//4 36//4
f 2//5 5//5 6//5
f 6//6 10//6 11//6
f 1//7 8//7 9//7
f 6//8 33//8 31//8
f 9//9 16//9 12//9
f 7//10 35//10 20//10
f 9//11 20//11 1//11
f 8//12 4//12 15//12
f 20//13 9//13 7//13
f 2//14 16//14 15//14
f 7//15 10//15 29//15
f 29//16 6//16 31//16
f 11//17 12//17 6//17
f 11//18 7//18 9//18
f 6//19 12//19 2//19
f 12//20 11//20 9//20
f 29//16 10//16 6//16
f 11//21 10//21 7//21
f 32//22 33//22 5//22
f 35//23 7//23 29//23
f 6//24 5//24 33//24
f 36//25 38//25 3//25
f 20//26 37//26 4//26
f 15//27 16//27 9//27
f 3//28 14//28 4//28
f 15//29 14//29 2//29
f 12//30 16//30 2//30
f 15//31 4//31 14//31
f 36//4 3//4 4//4
f 9//32 8//32 15//32
f 18//33 19//33 39//33
f 21//34 20//34 17//34
f 17//35 25//35 21//35
f 21//36 36//36 37//36
f 18//37 23//37 22//37
f 23//38 28//38 27//38
f 17//39 26//39 25//39
f 23//8 31//8 33//8
f 26//40 30//40 41//40
f 24//41 20//41 35//41
f 26//42 17//42 20//42
f 25//43 40//43 21//43
f 20//44 24//44 26//44
f 18//45 40//45 41//45
f 24//15 29//15 27//15
f 29//16 31//16 23//16
f 28//46 23//46 30//46
f 28//47 26//47 24//47
f 23//48 18//48 30//48
f 30//49 26//49 28//49
f 29//16 23//16 27//16
f 28//50 24//50 27//50
f 32//22 22//22 33//22
f 35//51 29//51 24//51
f 23//52 33//52 22//52
f 36//25 19//25 38//25
f 20//53 21//53 37//53
f 40//54 26//54 41//54
f 19//55 21//55 39//55
f 40//56 18//56 39//56
f 30//57 18//57 41//57
f 40//58 39//58 21//58
f 36//36 21//36 19//36
f 26//59 40//59 25//59
