# Blender v2.79 (sub 0) OBJ File: 'iuvsphere.blend'
# www.blender.org
mtllib iuvsphere.mtl
o IUVSphere
v -0.382683 0.923880 0.000000
v -0.707107 0.707107 0.000000
v -0.923880 0.382683 0.000000
v -1.000000 -0.000000 0.000000
v -0.923880 -0.382684 0.000000
v -0.707107 -0.707107 0.000000
v -0.382683 -0.923880 0.000000
v -0.000000 -1.000000 0.000000
v -0.353553 0.923880 -0.146447
v -0.653281 0.707107 -0.270598
v -0.853553 0.382683 -0.353553
v -0.923880 -0.000000 -0.382683
v -0.853553 -0.382684 -0.353553
v -0.653281 -0.707107 -0.270598
v -0.353553 -0.923880 -0.146447
v -0.270598 0.923880 -0.270598
v -0.500000 0.707107 -0.500000
v -0.653281 0.382683 -0.653281
v -0.707107 -0.000000 -0.707107
v -0.653281 -0.382684 -0.653281
v -0.500000 -0.707107 -0.500000
v -0.270598 -0.923880 -0.270598
v -0.146447 0.923880 -0.353553
v -0.270598 0.707107 -0.653281
v -0.353553 0.382683 -0.853553
v -0.382683 -0.000000 -0.923879
v -0.353553 -0.382684 -0.853553
v -0.270598 -0.707107 -0.653281
v -0.146447 -0.923880 -0.353553
v -0.000000 0.923880 -0.382683
v -0.000000 0.707107 -0.707107
v -0.000000 0.382683 -0.923879
v -0.000000 -0.000000 -1.000000
v -0.000000 -0.382684 -0.923879
v -0.000000 -0.707107 -0.707107
v -0.000000 -0.923880 -0.382683
v -0.000000 1.000000 0.000000
v 0.146446 0.923880 -0.353553
v 0.270598 0.707107 -0.653281
v 0.353553 0.382683 -0.853553
v 0.382683 -0.000000 -0.923879
v 0.353553 -0.382684 -0.853553
v 0.270598 -0.707107 -0.653281
v 0.146446 -0.923880 -0.353553
v 0.270598 0.923880 -0.270598
v 0.500000 0.707107 -0.500000
v 0.653281 0.382683 -0.653281
v 0.707107 -0.000000 -0.707106
v 0.653281 -0.382684 -0.653281
v 0.500000 -0.707107 -0.500000
v 0.270598 -0.923880 -0.270598
v 0.353553 0.923880 -0.146446
v 0.653281 0.707107 -0.270598
v 0.853553 0.382683 -0.353553
v 0.923879 -0.000000 -0.382683
v 0.853553 -0.382684 -0.353553
v 0.653281 -0.707107 -0.270598
v 0.353553 -0.923880 -0.146446
v 0.382683 0.923880 0.000000
v 0.707106 0.707107 0.000000
v 0.923879 0.382683 0.000000
v 1.000000 -0.000000 0.000000
v 0.923879 -0.382684 0.000000
v 0.707106 -0.707107 0.000000
v 0.382683 -0.923880 0.000000
v 0.353553 0.923880 0.146447
v 0.653281 0.707107 0.270598
v 0.853553 0.382683 0.353554
v 0.923879 -0.000000 0.382684
v 0.853553 -0.382684 0.353554
v 0.653281 -0.707107 0.270598
v 0.353553 -0.923880 0.146447
v 0.270598 0.923880 0.270598
v 0.499999 0.707107 0.500000
v 0.653281 0.382683 0.653282
v 0.707106 -0.000000 0.707107
v 0.653281 -0.382684 0.653282
v 0.499999 -0.707107 0.500000
v 0.270598 -0.923880 0.270598
v 0.146446 0.923880 0.353553
v 0.270597 0.707107 0.653281
v 0.353553 0.382683 0.853553
v 0.382683 -0.000000 0.923879
v 0.353553 -0.382684 0.853553
v 0.270597 -0.707107 0.653281
v 0.146446 -0.923880 0.353553
v -0.000000 0.923880 0.382683
v -0.000000 0.707107 0.707106
v -0.000001 0.382683 0.923879
v -0.000001 -0.000000 1.000000
v -0.000001 -0.382684 0.923879
v -0.000000 -0.707107 0.707106
v -0.000000 -0.923880 0.382683
v -0.146447 0.923880 0.353553
v -0.270598 0.707107 0.653281
v -0.353554 0.382683 0.853553
v -0.382684 -0.000000 0.923879
v -0.353554 -0.382684 0.853553
v -0.270598 -0.707107 0.653281
v -0.146447 -0.923880 0.353553
v -0.270598 0.923880 0.270598
v -0.500000 0.707107 0.499999
v -0.653282 0.382683 0.653281
v -0.707107 -0.000000 0.707106
v -0.653282 -0.382684 0.653281
v -0.500000 -0.707107 0.499999
v -0.270598 -0.923880 0.270598
v -0.353553 0.923880 0.146446
v -0.653281 0.707107 0.270598
v -0.853553 0.382683 0.353553
v -0.923880 -0.000000 0.382683
v -0.853553 -0.382684 0.353553
v -0.653281 -0.707107 0.270598
v -0.353553 -0.923880 0.146446
vn 0.8203 -0.5481 0.1632
vn 0.8203 0.5481 0.1632
vn 0.9626 -0.1915 0.1915
vn 0.5522 -0.8264 0.1098
vn 0.5522 0.8264 0.1098
vn 0.9626 0.1915 0.1915
vn 0.6954 0.5481 0.4647
vn 0.8161 -0.1915 0.5453
vn 0.4681 -0.8264 0.3128
vn 0.4681 0.8264 0.3128
vn 0.8161 0.1915 0.5453
vn 0.6954 -0.5481 0.4647
vn 0.3128 0.8264 0.4681
vn 0.5453 0.1915 0.8161
vn 0.4647 -0.5481 0.6954
vn 0.4647 0.5481 0.6954
vn 0.5453 -0.1915 0.8161
vn 0.3128 -0.8264 0.4681
vn 0.1915 0.1915 0.9626
vn 0.1632 -0.5481 0.8203
vn 0.1632 0.5481 0.8203
vn 0.1915 -0.1915 0.9626
vn 0.1098 -0.8264 0.5522
vn 0.1098 0.8264 0.5522
vn -0.1632 0.5481 0.8203
vn -0.1915 -0.1915 0.9626
vn -0.1098 -0.8264 0.5522
vn -0.1098 0.8264 0.5522
vn -0.1915 0.1915 0.9626
vn -0.1632 -0.5481 0.8203
vn -0.5453 -0.1915 0.8161
vn -0.3128 -0.8264 0.4681
vn -0.3128 0.8264 0.4681
vn -0.5453 0.1915 0.8161
vn -0.4647 -0.5481 0.6954
vn -0.4647 0.5481 0.6954
vn -0.4681 0.8264 0.3128
vn -0.8161 0.1915 0.5453
vn -0.6954 -0.5481 0.4647
vn -0.6954 0.5481 0.4647
vn -0.8161 -0.1915 0.5453
vn -0.4681 -0.8264 0.3128
vn -0.8203 -0.5481 0.1632
vn -0.8203 0.5481 0.1632
vn -0.9626 -0.1915 0.1915
vn -0.5522 -0.8264 0.1098
vn -0.5522 0.8264 0.1098
vn -0.9626 0.1915 0.1915
vn -0.8203 0.5481 -0.1632
vn -0.9626 -0.1915 -0.1915
vn -0.5522 -0.8264 -0.1098
vn -0.5522 0.8264 -0.1098
vn -0.9626 0.1915 -0.1915
vn -0.8203 -0.5481 -0.1632
vn -0.4681 -0.8264 -0.3128
vn -0.4681 0.8264 -0.3128
vn -0.8161 0.1915 -0.5453
vn -0.6954 -0.5481 -0.4647
vn -0.6954 0.5481 -0.4647
vn -0.8161 -0.1915 -0.5453
vn -0.3128 0.8264 -0.4681
vn -0.5453 0.1915 -0.8161
vn -0.4647 -0.5481 -0.6954
vn -0.4647 0.5481 -0.6954
vn -0.5453 -0.1915 -0.8161
vn -0.3128 -0.8264 -0.4681
vn -0.1632 0.5481 -0.8203
vn -0.1915 -0.1915 -0.9626
vn -0.1098 -0.8264 -0.5522
vn -0.1098 0.8264 -0.5522
vn -0.1915 0.1915 -0.9626
vn -0.1632 -0.5481 -0.8203
vn 0.1632 0.5481 -0.8203
vn 0.1915 -0.1915 -0.9626
vn 0.1098 -0.8264 -0.5522
vn 0.1098 0.8264 -0.5522
vn 0.1915 0.1915 -0.9626
vn 0.1632 -0.5481 -0.8203
vn 0.3128 0.8264 -0.4681
vn 0.5453 0.1915 -0.8161
vn 0.4647 -0.5481 -0.6954
vn 0.4647 0.5481 -0.6954
vn 0.5453 -0.1915 -0.8161
vn 0.3128 -0.8264 -0.4681
vn 0.8161 0.1915 -0.5453
vn 0.6954 -0.5481 -0.4647
vn 0.6954 0.5481 -0.4647
vn 0.8161 -0.1915 -0.5453
vn 0.4681 -0.8264 -0.3128
vn 0.4681 0.8264 -0.3128
vn 0.1949 -0.9800 0.0388
vn 0.1949 0.9800 0.0388
vn 0.1653 -0.9800 0.1104
vn 0.1653 0.9800 0.1104
vn 0.1104 -0.9800 0.1653
vn 0.1104 0.9800 0.1653
vn 0.0388 -0.9800 0.1949
vn 0.0388 0.9800 0.1949
vn -0.0388 0.9800 0.1949
vn -0.0388 -0.9800 0.1949
vn -0.1104 -0.9800 0.1653
vn -0.1104 0.9800 0.1653
vn -0.1653 -0.9800 0.1104
vn -0.1653 0.9800 0.1104
vn -0.1949 -0.9800 0.0388
vn -0.1949 0.9800 0.0388
vn -0.1949 0.9800 -0.0388
vn -0.1949 -0.9800 -0.0388
vn -0.1653 -0.9800 -0.1104
vn -0.1653 0.9800 -0.1104
vn -0.1104 -0.9800 -0.1653
vn -0.1104 0.9800 -0.1653
vn -0.0388 -0.9800 -0.1949
vn -0.0388 0.9800 -0.1949
vn 0.0388 -0.9800 -0.1949
vn 0.0388 0.9800 -0.1949
vn 0.1104 -0.9800 -0.1653
vn 0.1104 0.9800 -0.1653
vn 0.1653 -0.9800 -0.1104
vn 0.1653 0.9800 -0.1104
vn 0.1949 0.9800 -0.0388
vn 0.8203 0.5481 -0.1632
vn 0.9626 -0.1915 -0.1915
vn 0.5522 -0.8264 -0.1098
vn 0.5522 0.8264 -0.1098
vn 0.9626 0.1915 -0.1915
vn 0.8203 -0.5481 -0.1632
vn 0.1949 -0.9800 -0.0388
usemtl None
s off
f 2//1 11//1 10//1
f 6//2 13//2 5//2
f 3//3 12//3 11//3
f 1//4 10//4 9//4
f 6//5 15//5 14//5
f 4//6 13//6 12//6
f 13//7 21//7 20//7
f 11//8 19//8 18//8
f 9//9 17//9 16//9
f 14//10 22//10 21//10
f 12//11 20//11 19//11
f 10//12 18//12 17//12
f 22//13 28//13 21//13
f 19//14 27//14 26//14
f 17//15 25//15 24//15
f 20//16 28//16 27//16
f 19//17 25//17 18//17
f 17//18 23//18 16//18
f 26//19 34//19 33//19
f 24//20 32//20 31//20
f 27//21 35//21 34//21
f 25//22 33//22 32//22
f 24//23 30//23 23//23
f 29//24 35//24 28//24
f 34//25 43//25 42//25
f 32//26 41//26 40//26
f 31//27 38//27 30//27
f 35//28 44//28 43//28
f 33//29 42//29 41//29
f 32//30 39//30 31//30
f 40//31 48//31 47//31
f 39//32 45//32 38//32
f 43//33 51//33 50//33
f 41//34 49//34 48//34
f 39//35 47//35 46//35
f 42//36 50//36 49//36
f 51//37 57//37 50//37
f 48//38 56//38 55//38
f 46//39 54//39 53//39
f 49//40 57//40 56//40
f 48//41 54//41 47//41
f 46//42 52//42 45//42
f 53//43 61//43 60//43
f 56//44 64//44 63//44
f 54//45 62//45 61//45
f 53//46 59//46 52//46
f 58//47 64//47 57//47
f 55//48 63//48 62//48
f 63//49 71//49 70//49
f 61//50 69//50 68//50
f 60//51 66//51 59//51
f 65//52 71//52 64//52
f 62//53 70//53 69//53
f 60//54 68//54 67//54
f 66//55 74//55 73//55
f 71//56 79//56 78//56
f 69//57 77//57 76//57
f 67//58 75//58 74//58
f 71//59 77//59 70//59
f 69//60 75//60 68//60
f 78//61 86//61 85//61
f 76//62 84//62 83//62
f 75//63 81//63 74//63
f 77//64 85//64 84//64
f 75//65 83//65 82//65
f 74//66 80//66 73//66
f 85//67 91//67 84//67
f 82//68 90//68 89//68
f 81//69 87//69 80//69
f 86//70 92//70 85//70
f 83//71 91//71 90//71
f 81//72 89//72 88//72
f 92//73 98//73 91//73
f 90//74 96//74 89//74
f 88//75 94//75 87//75
f 92//76 100//76 99//76
f 90//77 98//77 97//77
f 88//78 96//78 95//78
f 99//79 107//79 106//79
f 97//80 105//80 104//80
f 95//81 103//81 102//81
f 98//82 106//82 105//82
f 97//83 103//83 96//83
f 95//84 101//84 94//84
f 104//85 112//85 111//85
f 102//86 110//86 109//86
f 105//87 113//87 112//87
f 103//88 111//88 110//88
f 102//89 108//89 101//89
f 106//90 114//90 113//90
f 1//91 9//91 37//91
f 8//92 15//92 7//92
f 9//93 16//93 37//93
f 8//94 22//94 15//94
f 16//95 23//95 37//95
f 8//96 29//96 22//96
f 23//97 30//97 37//97
f 8//98 36//98 29//98
f 8//99 44//99 36//99
f 30//100 38//100 37//100
f 38//101 45//101 37//101
f 8//102 51//102 44//102
f 45//103 52//103 37//103
f 8//104 58//104 51//104
f 52//105 59//105 37//105
f 8//106 65//106 58//106
f 8//107 72//107 65//107
f 59//108 66//108 37//108
f 66//109 73//109 37//109
f 8//110 79//110 72//110
f 73//111 80//111 37//111
f 8//112 86//112 79//112
f 80//113 87//113 37//113
f 8//114 93//114 86//114
f 87//115 94//115 37//115
f 8//116 100//116 93//116
f 94//117 101//117 37//117
f 8//118 107//118 100//118
f 101//119 108//119 37//119
f 8//120 114//120 107//120
f 8//121 7//121 114//121
f 112//122 6//122 5//122
f 111//123 3//123 110//123
f 109//124 1//124 108//124
f 113//125 7//125 6//125
f 111//126 5//126 4//126
f 110//127 2//127 109//127
f 108//128 1//128 37//128
f 3//1 11//1 2//1
f 14//2 13//2 6//2
f 4//3 12//3 3//3
f 2//4 10//4 1//4
f 7//5 15//5 6//5
f 5//6 13//6 4//6
f 14//7 21//7 13//7
f 12//8 19//8 11//8
f 10//9 17//9 9//9
f 15//10 22//10 14//10
f 13//11 20//11 12//11
f 11//12 18//12 10//12
f 29//13 28//13 22//13
f 20//14 27//14 19//14
f 18//15 25//15 17//15
f 21//16 28//16 20//16
f 26//17 25//17 19//17
f 24//18 23//18 17//18
f 27//19 34//19 26//19
f 25//20 32//20 24//20
f 28//21 35//21 27//21
f 26//22 33//22 25//22
f 31//23 30//23 24//23
f 36//24 35//24 29//24
f 35//25 43//25 34//25
f 33//26 41//26 32//26
f 39//27 38//27 31//27
f 36//28 44//28 35//28
f 34//29 42//29 33//29
f 40//30 39//30 32//30
f 41//31 48//31 40//31
f 46//32 45//32 39//32
f 44//33 51//33 43//33
f 42//34 49//34 41//34
f 40//35 47//35 39//35
f 43//36 50//36 42//36
f 58//37 57//37 51//37
f 49//38 56//38 48//38
f 47//39 54//39 46//39
f 50//40 57//40 49//40
f 55//41 54//41 48//41
f 53//42 52//42 46//42
f 54//43 61//43 53//43
f 57//44 64//44 56//44
f 55//45 62//45 54//45
f 60//46 59//46 53//46
f 65//47 64//47 58//47
f 56//48 63//48 55//48
f 64//49 71//49 63//49
f 62//50 69//50 61//50
f 67//51 66//51 60//51
f 72//52 71//52 65//52
f 63//53 70//53 62//53
f 61//54 68//54 60//54
f 67//55 74//55 66//55
f 72//56 79//56 71//56
f 70//57 77//57 69//57
f 68//58 75//58 67//58
f 78//59 77//59 71//59
f 76//60 75//60 69//60
f 79//61 86//61 78//61
f 77//62 84//62 76//62
f 82//63 81//63 75//63
f 78//64 85//64 77//64
f 76//65 83//65 75//65
f 81//66 80//66 74//66
f 92//67 91//67 85//67
f 83//68 90//68 82//68
f 88//69 87//69 81//69
f 93//70 92//70 86//70
f 84//71 91//71 83//71
f 82//72 89//72 81//72
f 99//73 98//73 92//73
f 97//74 96//74 90//74
f 95//75 94//75 88//75
f 93//76 100//76 92//76
f 91//77 98//77 90//77
f 89//78 96//78 88//78
f 100//79 107//79 99//79
f 98//80 105//80 97//80
f 96//81 103//81 95//81
f 99//82 106//82 98//82
f 104//83 103//83 97//83
f 102//84 101//84 95//84
f 105//85 112//85 104//85
f 103//86 110//86 102//86
f 106//87 113//87 105//87
f 104//88 111//88 103//88
f 109//89 108//89 102//89
f 107//90 114//90 106//90
f 113//122 6//122 112//122
f 4//123 3//123 111//123
f 2//124 1//124 109//124
f 114//125 7//125 113//125
f 112//126 5//126 111//126
f 3//127 2//127 110//127
