# Blender v2.79 (sub 0) OBJ File: 'longboat.blend'
# www.blender.org
mtllib longboat.mtl
o Longboat
v -0.113292 -0.110902 0.906089
v -0.050069 0.000000 1.000000
v -0.197898 -0.117776 0.666975
v -0.268688 -0.184469 0.372087
v -0.255164 -0.157229 0.173807
v -0.361487 -0.218250 0.462094
v -0.062615 0.000000 0.304952
v -0.198283 -0.110090 0.540069
v -0.147219 -0.017727 0.336610
v -0.221233 0.000000 0.124408
v -0.298425 -0.061971 0.150182
v -0.245314 -0.738805 0.091474
v -0.261081 -0.650213 0.278731
v -0.252658 -0.169366 0.438863
v -0.065306 -0.703727 0.601085
v -0.113659 -0.754052 0.336479
v 0.113292 -0.110902 0.906089
v 0.050069 0.000000 1.000000
v 0.000000 -0.185067 0.967856
v 0.000000 0.000000 1.000000
v 0.000000 -0.728676 0.617855
v 0.197898 -0.117776 0.666975
v 0.268688 -0.184469 0.372087
v 0.255164 -0.157229 0.173807
v 0.361487 -0.218250 0.462094
v 0.062615 0.000000 0.304952
v 0.198283 -0.110090 0.540069
v 0.147219 -0.017727 0.336610
v 0.221233 0.000000 0.124408
v 0.298425 -0.061971 0.150182
v 0.245314 -0.738805 0.091474
v 0.261081 -0.650213 0.278731
v 0.252658 -0.169366 0.438863
v 0.065306 -0.703727 0.601085
v 0.000000 -0.552990 0.730970
v 0.000000 -0.753535 0.425266
v 0.113659 -0.754052 0.336479
v -0.113292 -0.110902 -0.906089
v -0.050069 0.000000 -1.000000
v -0.374496 -0.442011 0.000000
v -0.330533 -0.058674 0.000000
v -0.197898 -0.117776 -0.666975
v -0.277963 -0.181678 0.000000
v -0.268688 -0.184469 -0.372087
v -0.255164 -0.157229 -0.173807
v -0.361487 -0.218250 -0.462094
v -0.062615 0.000000 -0.304952
v -0.198283 -0.110090 -0.540069
v -0.147219 -0.017727 -0.336610
v -0.221233 0.000000 -0.124408
v -0.298425 -0.061971 -0.150182
v -0.245314 -0.738805 -0.091474
v -0.261081 -0.650213 -0.278731
v -0.239657 -0.739110 0.000000
v -0.252658 -0.169366 -0.438863
v -0.065306 -0.703727 -0.601085
v -0.113659 -0.754052 -0.336479
v -0.229140 0.000000 0.000000
v 0.113292 -0.110902 -0.906089
v 0.050069 0.000000 -1.000000
v 0.000000 -0.185067 -0.967856
v 0.000000 0.000000 -1.000000
v 0.374496 -0.442011 0.000000
v 0.330533 -0.058674 0.000000
v 0.000000 0.000000 0.000000
v 0.000000 -0.808426 0.000000
v 0.000000 -0.728676 -0.617855
v 0.197898 -0.117776 -0.666975
v 0.277963 -0.181678 0.000000
v 0.268688 -0.184469 -0.372087
v 0.255164 -0.157229 -0.173807
v 0.361487 -0.218250 -0.462094
v 0.062615 0.000000 -0.304952
v 0.198283 -0.110090 -0.540069
v 0.147219 -0.017727 -0.336610
v 0.221233 0.000000 -0.124408
v 0.298425 -0.061971 -0.150182
v 0.245314 -0.738805 -0.091474
v 0.261081 -0.650213 -0.278731
v 0.239657 -0.739110 0.000000
v 0.252658 -0.169366 -0.438863
v 0.065306 -0.703727 -0.601085
v 0.000000 -0.552990 -0.730970
v 0.000000 -0.753535 -0.425266
v 0.113659 -0.754052 -0.336479
v 0.229140 0.000000 0.000000
vn -0.5603 -0.8264 -0.0557
vn -0.5900 0.7946 0.1436
vn 0.0000 -0.1711 0.9852
vn -0.7672 0.6343 0.0954
vn -0.8882 -0.4031 0.2202
vn 0.0000 1.0000 0.0000
vn -0.7012 0.6753 0.2287
vn -0.3894 -0.4986 0.7744
vn -0.5979 -0.2915 0.7467
vn -0.9203 0.3911 -0.0090
vn -0.9142 0.2534 0.3162
vn -0.9351 0.3467 0.0739
vn -0.7652 0.6428 0.0361
vn -0.7572 -0.3964 0.5191
vn -0.5932 0.7310 -0.3373
vn -0.7701 0.6366 0.0409
vn -0.8191 0.5711 0.0537
vn -0.2038 0.9790 0.0037
vn -0.9111 -0.3675 0.1867
vn -0.6840 0.7280 0.0462
vn -0.4255 0.8993 -0.1012
vn -0.9056 -0.3871 0.1732
vn -0.1543 0.9787 0.1356
vn -0.5508 0.7936 0.2584
vn -0.8360 -0.3030 0.4574
vn -0.1001 -0.9026 0.4186
vn -0.2778 -0.9605 -0.0140
vn -0.9825 -0.1764 -0.0602
vn -0.9705 -0.2389 0.0313
vn -0.3998 -0.8843 0.2412
vn -0.0951 -0.9873 0.1274
vn -0.5061 -0.4266 0.7496
vn -0.6215 -0.7409 0.2545
vn -0.6307 -0.4201 0.6525
vn -0.5006 0.8651 0.0318
vn -0.7433 -0.1776 0.6450
vn 0.5603 -0.8264 -0.0557
vn 0.5900 0.7946 0.1436
vn 0.7672 0.6343 0.0954
vn 0.8882 -0.4031 0.2202
vn 0.7012 0.6753 0.2287
vn 0.3894 -0.4986 0.7744
vn 0.5979 -0.2915 0.7467
vn 0.9203 0.3911 -0.0090
vn 0.9142 0.2534 0.3162
vn 0.9351 0.3467 0.0739
vn 0.7652 0.6428 0.0361
vn 0.7572 -0.3964 0.5191
vn 0.5932 0.7310 -0.3373
vn 0.7701 0.6366 0.0409
vn 0.8191 0.5711 0.0537
vn 0.2038 0.9790 0.0037
vn 0.9111 -0.3675 0.1867
vn 0.6840 0.7280 0.0462
vn 0.4255 0.8993 -0.1012
vn 0.9056 -0.3871 0.1732
vn 0.1543 0.9787 0.1356
vn 0.5508 0.7936 0.2584
vn 0.8360 -0.3030 0.4574
vn 0.1001 -0.9026 0.4186
vn 0.2778 -0.9605 -0.0140
vn 0.9825 -0.1764 -0.0602
vn 0.9705 -0.2389 0.0313
vn 0.3998 -0.8843 0.2412
vn 0.0951 -0.9873 0.1274
vn 0.5061 -0.4266 0.7496
vn 0.6215 -0.7409 0.2545
vn 0.6307 -0.4201 0.6525
vn 0.5006 0.8651 0.0318
vn 0.7433 -0.1776 0.6450
vn -0.5603 -0.8264 0.0557
vn -0.5900 0.7946 -0.1436
vn 0.0000 -0.1711 -0.9852
vn -0.7672 0.6343 -0.0954
vn -0.8882 -0.4031 -0.2202
vn -0.7012 0.6753 -0.2287
vn -0.3894 -0.4986 -0.7744
vn -0.5979 -0.2915 -0.7467
vn -0.9203 0.3911 0.0090
vn -0.9142 0.2534 -0.3162
vn -0.9351 0.3467 -0.0739
vn -0.7652 0.6428 -0.0361
vn -0.7572 -0.3964 -0.5191
vn -0.5932 0.7310 0.3373
vn -0.7701 0.6366 -0.0409
vn -0.8191 0.5711 -0.0537
vn -0.2038 0.9790 -0.0037
vn -0.9111 -0.3675 -0.1867
vn -0.6840 0.7280 -0.0462
vn -0.4255 0.8993 0.1012
vn -0.9056 -0.3871 -0.1732
vn -0.1543 0.9787 -0.1356
vn -0.5508 0.7936 -0.2584
vn -0.8360 -0.3030 -0.4574
vn -0.1001 -0.9026 -0.4186
vn -0.2778 -0.9605 0.0140
vn -0.9825 -0.1764 0.0602
vn -0.9705 -0.2389 -0.0313
vn -0.3998 -0.8843 -0.2412
vn -0.0951 -0.9873 -0.1274
vn -0.5061 -0.4266 -0.7496
vn -0.6215 -0.7409 -0.2545
vn -0.6307 -0.4201 -0.6525
vn -0.5006 0.8651 -0.0318
vn -0.7433 -0.1776 -0.6450
vn 0.5603 -0.8264 0.0557
vn 0.5900 0.7946 -0.1436
vn 0.7672 0.6343 -0.0954
vn 0.8882 -0.4031 -0.2202
vn 0.7012 0.6753 -0.2287
vn 0.3894 -0.4986 -0.7744
vn 0.5979 -0.2915 -0.7467
vn 0.9203 0.3911 0.0090
vn 0.9142 0.2534 -0.3162
vn 0.9351 0.3467 -0.0739
vn 0.7652 0.6428 -0.0361
vn 0.7572 -0.3964 -0.5191
vn 0.5932 0.7310 0.3373
vn 0.7701 0.6366 -0.0409
vn 0.8191 0.5711 -0.0537
vn 0.2038 0.9790 -0.0037
vn 0.9111 -0.3675 -0.1867
vn 0.6840 0.7280 -0.0462
vn 0.4255 0.8993 0.1012
vn 0.9056 -0.3871 -0.1732
vn 0.1543 0.9787 -0.1356
vn 0.5508 0.7936 -0.2584
vn 0.8360 -0.3030 -0.4574
vn 0.1001 -0.9026 -0.4186
vn 0.2778 -0.9605 0.0140
vn 0.9825 -0.1764 0.0602
vn 0.9705 -0.2389 -0.0313
vn 0.3998 -0.8843 -0.2412
vn 0.0951 -0.9873 -0.1274
vn 0.5061 -0.4266 -0.7496
vn 0.6215 -0.7409 -0.2545
vn 0.6307 -0.4201 -0.6525
vn 0.5006 0.8651 -0.0318
vn 0.7433 -0.1776 -0.6450
usemtl Material
s off
f 66//1 16//1 13//1
f 41//2 11//2 10//2
f 2//3 19//3 20//3
f 2//4 9//4 8//4
f 40//5 54//5 6//5
f 65//6 58//6 10//6
f 1//7 3//7 6//7
f 21//8 35//8 15//8
f 19//9 2//9 1//9
f 40//10 4//10 5//10
f 3//11 1//11 2//11
f 5//12 43//12 40//12
f 5//13 4//13 8//13
f 6//14 13//14 1//14
f 7//6 2//6 20//6
f 7//6 20//6 65//6
f 6//15 4//15 40//15
f 8//16 14//16 3//16
f 8//17 9//17 5//17
f 2//18 7//18 9//18
f 5//19 11//19 41//19
f 3//20 2//20 8//20
f 6//21 14//21 4//21
f 41//22 43//22 5//22
f 10//23 9//23 7//23
f 10//6 7//6 65//6
f 9//24 10//24 11//24
f 13//25 15//25 1//25
f 13//26 12//26 66//26
f 12//27 54//27 66//27
f 6//28 54//28 12//28
f 14//21 6//21 3//21
f 13//29 6//29 12//29
f 15//30 16//30 21//30
f 16//31 36//31 21//31
f 15//32 35//32 1//32
f 16//31 66//31 36//31
f 15//33 13//33 16//33
f 1//34 35//34 19//34
f 10//35 58//35 41//35
f 8//16 4//16 14//16
f 11//36 5//36 9//36
f 66//37 32//37 37//37
f 64//38 29//38 30//38
f 18//3 20//3 19//3
f 18//39 27//39 28//39
f 63//40 25//40 80//40
f 65//6 29//6 86//6
f 17//41 25//41 22//41
f 21//42 34//42 35//42
f 19//43 17//43 18//43
f 63//44 24//44 23//44
f 22//45 18//45 17//45
f 24//46 63//46 69//46
f 24//47 27//47 23//47
f 25//48 17//48 32//48
f 26//6 20//6 18//6
f 26//6 65//6 20//6
f 25//49 63//49 23//49
f 27//50 22//50 33//50
f 27//51 24//51 28//51
f 18//52 28//52 26//52
f 24//53 64//53 30//53
f 22//54 27//54 18//54
f 25//55 23//55 33//55
f 64//56 24//56 69//56
f 29//57 26//57 28//57
f 29//6 65//6 26//6
f 28//58 30//58 29//58
f 32//59 17//59 34//59
f 32//60 66//60 31//60
f 31//61 66//61 80//61
f 25//62 31//62 80//62
f 33//55 22//55 25//55
f 32//63 31//63 25//63
f 34//64 21//64 37//64
f 37//65 21//65 36//65
f 34//66 17//66 35//66
f 37//65 36//65 66//65
f 34//67 37//67 32//67
f 17//68 19//68 35//68
f 29//69 64//69 86//69
f 27//50 33//50 23//50
f 30//70 28//70 24//70
f 66//71 53//71 57//71
f 41//72 50//72 51//72
f 39//73 62//73 61//73
f 39//74 48//74 49//74
f 40//75 46//75 54//75
f 65//6 50//6 58//6
f 38//76 46//76 42//76
f 67//77 56//77 83//77
f 61//78 38//78 39//78
f 40//79 45//79 44//79
f 42//80 39//80 38//80
f 45//81 40//81 43//81
f 45//82 48//82 44//82
f 46//83 38//83 53//83
f 47//6 62//6 39//6
f 47//6 65//6 62//6
f 46//84 40//84 44//84
f 48//85 42//85 55//85
f 48//86 45//86 49//86
f 39//87 49//87 47//87
f 45//88 41//88 51//88
f 42//89 48//89 39//89
f 46//90 44//90 55//90
f 41//91 45//91 43//91
f 50//92 47//92 49//92
f 50//6 65//6 47//6
f 49//93 51//93 50//93
f 53//94 38//94 56//94
f 53//95 66//95 52//95
f 52//96 66//96 54//96
f 46//97 52//97 54//97
f 55//90 42//90 46//90
f 53//98 52//98 46//98
f 56//99 67//99 57//99
f 57//100 67//100 84//100
f 56//101 38//101 83//101
f 57//100 84//100 66//100
f 56//102 57//102 53//102
f 38//103 61//103 83//103
f 50//104 41//104 58//104
f 48//85 55//85 44//85
f 51//105 49//105 45//105
f 66//106 85//106 79//106
f 64//107 77//107 76//107
f 60//73 61//73 62//73
f 60//108 75//108 74//108
f 63//109 80//109 72//109
f 65//6 86//6 76//6
f 59//110 68//110 72//110
f 67//111 83//111 82//111
f 61//112 60//112 59//112
f 63//113 70//113 71//113
f 68//114 59//114 60//114
f 71//115 69//115 63//115
f 71//116 70//116 74//116
f 72//117 79//117 59//117
f 73//6 60//6 62//6
f 73//6 62//6 65//6
f 72//118 70//118 63//118
f 74//119 81//119 68//119
f 74//120 75//120 71//120
f 60//121 73//121 75//121
f 71//122 77//122 64//122
f 68//123 60//123 74//123
f 72//124 81//124 70//124
f 64//125 69//125 71//125
f 76//126 75//126 73//126
f 76//6 73//6 65//6
f 75//127 76//127 77//127
f 79//128 82//128 59//128
f 79//129 78//129 66//129
f 78//130 80//130 66//130
f 72//131 80//131 78//131
f 81//124 72//124 68//124
f 79//132 72//132 78//132
f 82//133 85//133 67//133
f 85//134 84//134 67//134
f 82//135 83//135 59//135
f 85//134 66//134 84//134
f 82//136 79//136 85//136
f 59//137 83//137 61//137
f 76//138 86//138 64//138
f 74//119 70//119 81//119
f 77//139 71//139 75//139
