# Blender v2.79 (sub 0) OBJ File: 'nacloud_platform.blend'
# www.blender.org
mtllib nacloud_platform.mtl
o NACloud_Platform
v -0.693171 -0.689364 0.847708
v -0.821716 -0.110785 0.826970
v 0.693171 -0.689364 0.847708
v 0.821716 -0.110785 0.826970
v 0.000000 -0.740812 1.000000
v 0.000000 -0.051401 1.000000
v -0.693171 -0.689364 -0.847708
v -0.821716 -0.110785 -0.826970
v -0.886109 -0.859868 0.000000
v -1.000000 -0.047448 0.000000
v 0.693171 -0.689364 -0.847708
v 0.821716 -0.110785 -0.826970
v 0.000000 -0.740812 -1.000000
v 0.000000 -0.051401 -1.000000
v 0.886109 -0.859868 0.000000
v 1.000000 -0.047448 0.000000
v 0.000000 0.000000 0.000000
v 0.000000 -1.000000 0.000000
vn -0.1260 -0.9603 0.2489
vn -0.0918 0.9912 0.0957
vn -0.2053 -0.0105 0.9786
vn -0.9705 -0.1361 0.1988
vn -0.1521 -0.9617 0.2280
vn -0.0473 0.9976 0.0513
vn -0.2146 0.0000 0.9767
vn -0.9457 -0.2009 0.2556
vn 0.1260 -0.9603 0.2489
vn 0.0918 0.9912 0.0957
vn 0.2053 -0.0105 0.9786
vn 0.9705 -0.1361 0.1988
vn 0.1521 -0.9617 0.2280
vn 0.0473 0.9976 0.0513
vn 0.2146 0.0000 0.9767
vn 0.9457 -0.2009 0.2556
vn -0.1260 -0.9603 -0.2489
vn -0.0918 0.9912 -0.0957
vn -0.2053 -0.0105 -0.9786
vn -0.9705 -0.1361 -0.1988
vn -0.1521 -0.9617 -0.2280
vn -0.0473 0.9976 -0.0513
vn -0.2146 0.0000 -0.9767
vn -0.9457 -0.2009 -0.2556
vn 0.1260 -0.9603 -0.2489
vn 0.0918 0.9912 -0.0957
vn 0.2053 -0.0105 -0.9786
vn 0.9705 -0.1361 -0.1988
vn 0.1521 -0.9617 -0.2280
vn 0.0473 0.9976 -0.0513
vn 0.2146 0.0000 -0.9767
vn 0.9457 -0.2009 -0.2556
usemtl Material
s off
f 18//1 5//1 1//1
f 10//2 2//2 6//2
f 6//3 2//3 1//3
f 2//4 10//4 9//4
f 9//5 18//5 1//5
f 17//6 10//6 6//6
f 5//7 6//7 1//7
f 1//8 2//8 9//8
f 18//9 3//9 5//9
f 16//10 6//10 4//10
f 6//11 3//11 4//11
f 4//12 15//12 16//12
f 15//13 3//13 18//13
f 17//14 6//14 16//14
f 5//15 3//15 6//15
f 3//16 15//16 4//16
f 18//17 7//17 13//17
f 10//18 14//18 8//18
f 14//19 7//19 8//19
f 8//20 9//20 10//20
f 9//21 7//21 18//21
f 17//22 14//22 10//22
f 13//23 7//23 14//23
f 7//24 9//24 8//24
f 18//25 13//25 11//25
f 16//26 12//26 14//26
f 14//27 12//27 11//27
f 12//28 16//28 15//28
f 15//29 18//29 11//29
f 17//30 16//30 14//30
f 13//31 14//31 11//31
f 11//32 12//32 15//32
