# Blender v2.76 (sub 0) OBJ File: 'plane.blend'
# www.blender.org
mtllib plane.mtl
o Plane
v -0.130428 -0.886686 0.763849
v -0.201256 0.000000 0.866725
v 0.000000 -0.886686 0.772818
v 0.000000 0.000000 1.000000
v 0.000000 -0.539443 0.928930
v -0.363102 -0.402805 0.536124
v -0.364845 -0.201664 0.333617
v -0.235399 -0.515555 0.852502
v -0.440004 -0.297645 0.149590
v -0.428606 -0.372843 0.151640
v -0.069236 -0.886686 0.372624
v -0.480062 -0.220721 0.100101
v 0.000000 -0.886686 0.376385
v -0.198022 -0.614454 0.127140
v 0.130421 -0.886686 0.763849
v 0.201248 0.000000 0.866725
v 0.311224 -0.366366 0.304200
v 0.235392 -0.515551 0.852502
v 0.069229 -0.886686 0.372624
v -0.130428 -0.886686 -0.763849
v -0.201256 0.000000 -0.866725
v 0.000000 -0.886686 -0.772818
v 0.000000 0.000000 -1.000000
v -0.413322 -0.375665 0.000000
v -0.361988 0.000000 0.000000
v 0.000000 0.000000 0.000000
v 0.000000 -0.886686 0.000000
v 0.000000 -0.539443 -0.928930
v -0.363102 -0.402805 -0.536124
v -0.364845 -0.201664 -0.333617
v -0.235399 -0.515555 -0.852502
v -0.506776 -0.181715 0.000000
v -0.440004 -0.297645 -0.149590
v -0.428606 -0.372843 -0.151640
v -0.069236 -0.886686 -0.372624
v -0.220152 -0.561290 0.000000
v -0.480062 -0.220721 -0.100101
v 0.000000 -0.886686 -0.376385
v -0.198022 -0.614454 -0.127140
v 0.130421 -0.886686 -0.763849
v 0.201248 0.000000 -0.866725
v 0.361981 0.000000 0.000000
v 0.311224 -0.366366 -0.304200
v 0.235392 -0.515551 -0.852502
v 0.069229 -0.886686 -0.372624
v 0.360418 -0.302219 0.000000
vn 0.000000 -1.000000 0.000000
vn 0.000000 1.000000 0.000000
vn -0.552100 0.013600 0.833700
vn -0.937700 0.300900 0.173900
vn -0.831900 -0.532900 -0.154600
vn -0.317800 -0.123800 0.940000
vn -0.954400 0.207600 0.214400
vn -0.062600 -0.409200 0.910300
vn -0.912900 -0.319100 0.254800
vn -0.321900 -0.305100 0.896200
vn -0.898600 -0.433000 0.071100
vn -0.866500 -0.480400 -0.135500
vn -0.983700 -0.151700 -0.096300
vn -0.919800 0.050200 0.389200
vn -0.835100 -0.541000 0.100100
vn -0.894400 -0.123800 0.429900
vn -0.824900 -0.558100 -0.089800
vn -0.878200 -0.169600 0.447200
vn -0.712800 0.567900 0.411500
vn -0.698300 -0.632500 -0.335100
vn -0.722400 -0.673600 -0.155900
vn -0.691800 -0.719900 -0.056300
vn -0.901200 -0.428800 0.062900
vn -0.761700 0.557300 0.330400
vn -0.968900 0.171200 0.178400
vn 0.957300 -0.283900 0.055100
vn 0.890800 -0.432600 -0.139300
vn 0.986300 0.061100 0.153000
vn 0.850900 -0.524700 0.027000
vn 0.885900 -0.433700 -0.164600
vn 0.983100 0.015200 0.182300
vn 0.987300 -0.005100 0.158600
vn 0.062600 -0.409200 0.910300
vn 0.317800 -0.123800 0.940000
vn 0.322000 -0.305100 0.896200
vn 0.552100 0.013600 0.833700
vn -0.552100 0.013600 -0.833700
vn -0.937700 0.300900 -0.173900
vn -0.831900 -0.532900 0.154600
vn -0.317800 -0.123800 -0.940000
vn -0.954400 0.207600 -0.214400
vn -0.062600 -0.409200 -0.910300
vn -0.912900 -0.319100 -0.254800
vn -0.321900 -0.305100 -0.896200
vn -0.898600 -0.433000 -0.071100
vn -0.866500 -0.480400 0.135500
vn -0.983700 -0.151700 0.096300
vn -0.919800 0.050200 -0.389200
vn -0.835100 -0.541000 -0.100100
vn -0.894400 -0.123800 -0.429900
vn -0.824900 -0.558100 0.089800
vn -0.878200 -0.169600 -0.447200
vn -0.712800 0.567900 -0.411500
vn -0.698300 -0.632500 0.335100
vn -0.722400 -0.673600 0.155900
vn -0.691800 -0.719900 0.056300
vn -0.901200 -0.428800 -0.062900
vn -0.761700 0.557300 -0.330400
vn -0.968900 0.171200 -0.178400
vn 0.957300 -0.283900 -0.055100
vn 0.890800 -0.432600 0.139300
vn 0.986300 0.061100 -0.153000
vn 0.850900 -0.524700 -0.027000
vn 0.885900 -0.433700 0.164600
vn 0.983100 0.015200 -0.182300
vn 0.987300 -0.005100 -0.158600
vn 0.062600 -0.409200 -0.910300
vn 0.317800 -0.123800 -0.940000
vn 0.322000 -0.305100 -0.896200
vn 0.552100 0.013600 -0.833700
usemtl Material
s off
f 11//1 13//1 1//1
f 25//2 2//2 4//2
f 4//3 2//3 8//3
f 2//4 25//4 7//4
f 27//5 11//5 14//5
f 26//2 25//2 4//2
f 5//6 4//6 8//6
f 6//7 2//7 7//7
f 3//8 5//8 1//8
f 8//9 6//9 1//9
f 1//10 5//10 8//10
f 32//11 24//11 12//11
f 11//12 1//12 6//12
f 10//13 9//13 24//13
f 2//14 6//14 8//14
f 10//15 11//15 6//15
f 7//16 9//16 10//16
f 27//1 13//1 11//1
f 36//17 27//17 14//17
f 9//18 7//18 12//18
f 25//19 32//19 12//19
f 14//20 11//20 10//20
f 10//21 36//21 14//21
f 10//22 24//22 36//22
f 24//23 9//23 12//23
f 7//24 25//24 12//24
f 13//1 3//1 1//1
f 6//25 7//25 10//25
f 18//26 15//26 17//26
f 19//27 17//27 15//27
f 16//28 18//28 17//28
f 17//29 27//29 46//29
f 19//30 27//30 17//30
f 19//1 13//1 27//1
f 17//31 42//31 16//31
f 42//32 17//32 46//32
f 15//1 3//1 13//1
f 15//1 13//1 19//1
f 3//33 15//33 5//33
f 5//34 18//34 4//34
f 18//35 5//35 15//35
f 16//36 4//36 18//36
f 42//2 4//2 16//2
f 4//2 42//2 26//2
f 35//1 20//1 38//1
f 25//2 23//2 21//2
f 23//37 31//37 21//37
f 21//38 30//38 25//38
f 27//39 39//39 35//39
f 26//2 23//2 25//2
f 28//40 31//40 23//40
f 29//41 30//41 21//41
f 22//42 20//42 28//42
f 31//43 20//43 29//43
f 20//44 31//44 28//44
f 32//45 37//45 24//45
f 35//46 29//46 20//46
f 34//47 24//47 33//47
f 21//48 31//48 29//48
f 34//49 29//49 35//49
f 30//50 34//50 33//50
f 27//1 35//1 38//1
f 36//51 39//51 27//51
f 33//52 37//52 30//52
f 25//53 37//53 32//53
f 39//54 34//54 35//54
f 34//55 39//55 36//55
f 34//56 36//56 24//56
f 24//57 37//57 33//57
f 30//58 37//58 25//58
f 38//1 20//1 22//1
f 29//59 34//59 30//59
f 44//60 43//60 40//60
f 45//61 40//61 43//61
f 41//62 43//62 44//62
f 43//63 46//63 27//63
f 45//64 43//64 27//64
f 45//1 27//1 38//1
f 43//65 41//65 42//65
f 42//66 46//66 43//66
f 40//1 38//1 22//1
f 40//1 45//1 38//1
f 22//67 28//67 40//67
f 28//68 23//68 44//68
f 44//69 40//69 28//69
f 41//70 44//70 23//70
f 42//2 41//2 23//2
f 23//2 26//2 42//2
