# Blender v3.2.2 OBJ File: 'rhodium_head.blend'
# www.blender.org
mtllib rhodium_head.mtl
o RhodiumHead
v -0.783446 -0.215731 -0.054159
v -0.641491 0.517047 -0.342651
v -0.354262 -0.229650 -0.556763
v -0.047850 -0.107978 -0.515200
v -0.468823 -0.054349 -0.508234
v 0.138458 0.123408 -0.437007
v -0.134728 -0.539780 -0.504777
v -0.439414 -0.573388 -0.508724
v -0.937072 0.333311 -0.241339
v -0.774376 -0.311776 -0.349113
v -0.518036 -0.410319 -0.506759
v -0.677293 -0.070043 -0.265677
v -0.270734 0.339287 -0.432649
v 0.619536 -0.044205 -0.309343
v -0.632390 -0.186349 -0.268878
v -0.514878 0.892965 -0.211961
v 0.415880 -0.576265 -0.363759
v 0.112120 -0.913679 -0.278982
v -0.625806 -0.679051 -0.235667
v 0.758298 -0.135240 -0.252005
v 0.400674 0.383205 -0.166324
v -0.823917 -0.441715 -0.236504
v -0.301336 0.723449 -0.158384
v -0.720000 0.881200 -0.121323
v -0.768072 0.068916 -0.406321
v -0.836836 -0.068112 -0.066608
v -0.978708 0.115709 -0.114775
v -0.814644 -0.387821 -0.080339
v -0.632332 -0.310969 -0.394482
v -0.705678 -0.151434 -0.364216
v -0.677771 -0.196356 -0.447948
v -0.752077 -0.066371 -0.409706
v 0.565701 -0.896976 -0.216502
v 0.648873 -0.677351 -0.225464
v -0.597619 -1.020626 -0.000000
v -0.783446 -0.215731 0.054159
v -0.641491 0.517047 0.342651
v 0.170000 -1.121709 -0.000000
v -0.354262 -0.229650 0.556763
v -0.047850 -0.107978 0.515200
v -0.468823 -0.054349 0.508234
v 0.138458 0.123408 0.437007
v -0.134728 -0.539780 0.504777
v -0.439414 -0.573388 0.508724
v -0.937072 0.333311 0.241339
v -0.774376 -0.311776 0.349113
v -0.518036 -0.410319 0.506759
v -0.319008 0.589026 -0.000000
v -0.677293 -0.070043 0.265677
v -0.270734 0.339287 0.432649
v 0.619536 -0.044205 0.309343
v -0.632390 -0.186349 0.268878
v -0.514878 0.892965 0.211961
v 0.415880 -0.576265 0.363759
v 0.112120 -0.913679 0.278982
v -0.625806 -0.679051 0.235667
v 0.622118 0.470836 0.000000
v 0.670775 -1.125252 0.000000
v 0.758298 -0.135240 0.252005
v -0.966787 0.430028 -0.000000
v 0.400674 0.383205 0.166324
v 0.851184 -0.125690 0.000000
v -0.823917 -0.441715 0.236504
v -0.877917 -0.464694 -0.000000
v 0.362820 0.548065 0.000000
v -0.301336 0.723449 0.158384
v -0.720000 0.881200 0.121323
v -0.835917 0.860421 -0.000000
v -0.768072 0.068916 0.406321
v -0.836836 -0.068112 0.066608
v -0.883181 -0.036015 -0.000000
v -0.978708 0.115709 0.114775
v -1.000037 0.119095 -0.000000
v -0.865495 -0.726689 -0.000000
v -0.964336 -0.388910 -0.000000
v -0.814644 -0.387821 0.080339
v -0.826310 -0.401482 -0.000000
v -0.632332 -0.310969 0.394481
v -0.705678 -0.151434 0.364216
v -0.677771 -0.196356 0.447948
v -0.752077 -0.066371 0.409706
v 0.565701 -0.896976 0.216502
v 0.810949 -0.767690 0.000000
v 0.648873 -0.677351 0.225464
vn 0.0229 0.3035 -0.9526
vn 0.0706 0.1537 -0.9856
vn 0.2138 0.7177 -0.6627
vn 0.5685 0.4215 -0.7065
vn -0.5207 0.4315 -0.7367
vn -0.1169 0.2437 -0.9628
vn -0.0613 0.3461 -0.9362
vn -0.2399 0.2026 -0.9494
vn 0.4039 0.4695 -0.7851
vn -0.9315 0.2832 -0.2282
vn 0.2785 0.5438 -0.7917
vn 0.3741 0.4609 -0.8048
vn 0.2854 0.0926 -0.9539
vn 0.3036 -0.1315 -0.9437
vn 0.5663 0.5083 -0.6488
vn 0.8790 0.3375 -0.3368
vn 0.3296 0.5658 -0.7558
vn 0.2157 0.7176 -0.6622
vn -0.3960 0.3434 -0.8516
vn -0.6946 0.4054 -0.5943
vn -0.4488 0.2487 -0.8583
vn -0.9772 0.1045 -0.1847
vn -0.8115 -0.1699 -0.5591
vn -0.9826 0.0954 -0.1592
vn 0.0229 0.3035 0.9526
vn 0.0706 0.1537 0.9856
vn 0.2138 0.7177 0.6627
vn 0.5685 0.4215 0.7065
vn -0.5207 0.4315 0.7367
vn -0.1169 0.2437 0.9628
vn -0.0613 0.3461 0.9362
vn -0.2399 0.2026 0.9494
vn 0.4039 0.4695 0.7851
vn -0.9315 0.2832 0.2282
vn 0.2785 0.5438 0.7917
vn 0.3741 0.4609 0.8048
vn 0.2854 0.0926 0.9539
vn 0.3036 -0.1315 0.9437
vn 0.5663 0.5083 0.6488
vn 0.8790 0.3375 0.3368
vn 0.3296 0.5658 0.7558
vn 0.2157 0.7176 0.6622
vn -0.3960 0.3434 0.8516
vn -0.6946 0.4054 0.5943
vn -0.4488 0.2487 0.8583
vn -0.9772 0.1045 0.1847
vn -0.8115 -0.1699 0.5591
vn -0.9826 0.0954 0.1592
vn -0.7413 -0.3180 -0.5910
vn -0.7667 -0.2801 -0.5777
vn -0.5447 0.7924 -0.2748
vn 0.3853 0.6819 0.6217
vn -0.9772 0.1912 -0.0923
vn -0.6772 -0.6246 -0.3890
vn 0.0456 0.7591 0.6494
vn -0.5206 -0.4371 -0.7334
vn 0.2709 0.6619 0.6989
vn -0.5669 -0.4756 -0.6727
vn -0.9474 0.3156 -0.0527
vn -0.9729 -0.0461 -0.2266
vn -0.5183 -0.7516 -0.4081
vn -0.8409 -0.3397 -0.4214
vn -0.7453 -0.6314 -0.2143
vn -0.7920 -0.5967 -0.1296
vn 0.3994 0.7606 0.5118
vn -0.3572 0.0821 -0.9304
vn -0.4631 0.2148 -0.8599
vn -0.0892 -0.9797 -0.1795
vn -0.8303 0.5401 -0.1371
vn -0.7746 0.6324 -0.0050
vn -0.2789 -0.3846 -0.8799
vn -0.2232 0.6919 -0.6866
vn -0.7413 -0.3180 0.5910
vn -0.7667 -0.2801 0.5777
vn -0.5447 0.7924 0.2748
vn 0.3853 0.6819 -0.6217
vn -0.9772 0.1912 0.0923
vn -0.6772 -0.6246 0.3890
vn 0.0456 0.7591 -0.6494
vn -0.5206 -0.4371 0.7334
vn 0.2709 0.6619 -0.6989
vn -0.5669 -0.4756 0.6727
vn -0.9474 0.3156 0.0527
vn -0.9729 -0.0461 0.2266
vn -0.5183 -0.7516 0.4081
vn -0.8409 -0.3397 0.4214
vn -0.7453 -0.6314 0.2143
vn -0.7920 -0.5967 0.1296
vn 0.3994 0.7606 -0.5118
vn -0.3572 0.0821 0.9304
vn -0.4631 0.2148 0.8599
vn -0.0892 -0.9797 0.1795
vn -0.8303 0.5401 0.1371
vn -0.7746 0.6324 0.0050
vn -0.2789 -0.3846 0.8799
vn -0.2232 0.6919 0.6866
vn 0.0196 0.2786 -0.9602
vn -0.3129 0.0580 -0.9480
vn -0.3279 -0.0151 -0.9446
vn 0.4614 -0.1360 -0.8767
vn 0.0110 0.0174 -0.9998
vn 0.3067 -0.0846 -0.9481
vn 0.1557 -0.0551 -0.9863
vn -0.0659 -0.2102 -0.9754
vn 0.2509 0.0502 -0.9667
vn -0.7897 -0.4871 -0.3729
vn -0.3165 0.0244 -0.9483
vn -0.7819 -0.2586 -0.5672
vn -0.7123 -0.3360 -0.6162
vn -0.8651 -0.2349 0.4432
vn -0.9113 -0.4023 -0.0879
vn -0.7819 -0.4427 0.4389
vn -0.8827 -0.1158 0.4554
vn -0.8037 -0.3240 0.4991
vn -0.8713 -0.4900 -0.0275
vn -0.3306 0.0875 -0.9397
vn 0.9374 -0.0587 -0.3433
vn 0.7616 -0.1842 -0.6213
vn 0.0196 0.2786 0.9602
vn -0.3129 0.0580 0.9480
vn -0.3279 -0.0151 0.9446
vn 0.4614 -0.1360 0.8767
vn 0.0110 0.0174 0.9998
vn 0.3067 -0.0846 0.9481
vn 0.1557 -0.0551 0.9863
vn -0.0659 -0.2102 0.9754
vn 0.2509 0.0502 0.9667
vn -0.7897 -0.4871 0.3729
vn -0.3165 0.0244 0.9483
vn -0.7819 -0.2586 0.5672
vn -0.7123 -0.3360 0.6162
vn -0.8651 -0.2349 -0.4432
vn -0.9113 -0.4023 0.0879
vn -0.7819 -0.4427 -0.4389
vn -0.8827 -0.1158 -0.4554
vn -0.8037 -0.3240 -0.4991
vn -0.8713 -0.4900 0.0275
vn -0.3306 0.0875 0.9397
vn 0.9374 -0.0587 0.3433
vn 0.7616 -0.1842 0.6213
vn -0.0751 -0.5705 -0.8179
vn 0.7140 -0.2799 -0.6417
vn -0.2844 -0.7959 -0.5345
vn -0.0057 -0.8022 -0.5970
vn -0.2877 -0.8106 -0.5101
vn 0.1270 -0.6512 -0.7482
vn 0.0647 -0.4842 -0.8726
vn 0.2015 -0.4054 -0.8916
vn -0.5527 -0.5037 -0.6639
vn 0.7151 -0.2966 -0.6329
vn 0.4343 -0.2003 -0.8782
vn 0.1403 -0.3583 -0.9230
vn -0.0751 -0.5705 0.8179
vn 0.7140 -0.2799 0.6417
vn -0.2844 -0.7959 0.5345
vn -0.0057 -0.8022 0.5970
vn -0.2877 -0.8106 0.5101
vn 0.1270 -0.6512 0.7482
vn 0.0647 -0.4842 0.8726
vn 0.2015 -0.4054 0.8916
vn -0.5527 -0.5037 0.6639
vn 0.7151 -0.2966 0.6329
vn 0.4343 -0.2003 0.8782
vn 0.1403 -0.3583 0.9230
usemtl Material
s off
f 4//1 5//1 6//1
f 6//2 5//2 13//2
f 57//3 21//3 65//3
f 14//4 57//4 20//4
f 16//5 2//5 9//5
f 2//6 13//6 5//6
f 2//7 16//7 13//7
f 5//8 25//8 2//8
f 14//9 21//9 57//9
f 60//10 68//10 9//10
f 6//11 13//11 21//11
f 6//12 21//12 14//12
f 4//13 6//13 14//13
f 4//14 14//14 20//14
f 13//15 16//15 23//15
f 62//16 20//16 57//16
f 13//17 23//17 65//17
f 21//18 13//18 65//18
f 24//19 16//19 9//19
f 9//20 68//20 24//20
f 2//21 25//21 9//21
f 60//22 27//22 73//22
f 25//23 27//23 9//23
f 27//24 60//24 9//24
f 40//25 42//25 41//25
f 42//26 50//26 41//26
f 57//27 65//27 61//27
f 51//28 59//28 57//28
f 53//29 45//29 37//29
f 37//30 41//30 50//30
f 37//31 50//31 53//31
f 41//32 37//32 69//32
f 51//33 57//33 61//33
f 60//34 45//34 68//34
f 42//35 61//35 50//35
f 42//36 51//36 61//36
f 40//37 51//37 42//37
f 40//38 59//38 51//38
f 50//39 66//39 53//39
f 62//40 57//40 59//40
f 50//41 65//41 66//41
f 61//42 65//42 50//42
f 67//43 45//43 53//43
f 45//44 67//44 68//44
f 37//45 45//45 69//45
f 60//46 73//46 72//46
f 69//47 45//47 72//47
f 72//48 45//48 60//48
usemtl Material.001
f 1//49 26//49 12//49
f 12//50 15//50 1//50
f 15//51 10//51 1//51
f 23//52 16//52 48//52
f 28//53 1//53 10//53
f 27//54 25//54 26//54
f 65//55 23//55 48//55
f 10//56 19//56 22//56
f 48//57 16//57 24//57
f 22//58 19//58 74//58
f 28//59 10//59 22//59
f 64//60 22//60 74//60
f 12//61 26//61 25//61
f 71//62 26//62 1//62
f 71//63 27//63 26//63
f 73//64 27//64 71//64
f 48//65 24//65 68//65
f 1//66 75//66 71//66
f 1//67 28//67 75//67
f 75//68 28//68 77//68
f 64//69 28//69 22//69
f 64//70 77//70 28//70
f 10//71 29//71 19//71
f 29//72 10//72 15//72
f 36//73 49//73 70//73
f 49//74 36//74 52//74
f 52//75 36//75 46//75
f 66//76 48//76 53//76
f 76//77 46//77 36//77
f 72//78 70//78 69//78
f 65//79 48//79 66//79
f 46//80 63//80 56//80
f 48//81 67//81 53//81
f 63//82 74//82 56//82
f 76//83 63//83 46//83
f 64//84 74//84 63//84
f 49//85 69//85 70//85
f 71//86 36//86 70//86
f 71//87 70//87 72//87
f 73//88 71//88 72//88
f 48//89 68//89 67//89
f 36//90 71//90 75//90
f 36//91 75//91 76//91
f 75//92 77//92 76//92
f 64//93 63//93 76//93
f 64//94 76//94 77//94
f 46//95 56//95 78//95
f 78//96 52//96 46//96
usemtl Material.002
f 5//97 4//97 3//97
f 3//98 31//98 5//98
f 5//99 32//99 25//99
f 17//100 20//100 34//100
f 11//101 7//101 8//101
f 4//102 20//102 7//102
f 3//103 4//103 7//103
f 3//104 7//104 11//104
f 7//105 20//105 17//105
f 31//106 11//106 29//106
f 3//107 11//107 31//107
f 29//108 11//108 19//108
f 11//109 8//109 19//109
f 32//110 30//110 12//110
f 29//111 30//111 31//111
f 15//112 30//112 29//112
f 25//113 32//113 12//113
f 12//114 30//114 15//114
f 30//115 32//115 31//115
f 5//116 31//116 32//116
f 62//117 83//117 20//117
f 20//118 83//118 34//118
f 41//119 39//119 40//119
f 39//120 41//120 80//120
f 41//121 69//121 81//121
f 54//122 84//122 59//122
f 47//123 44//123 43//123
f 40//124 43//124 59//124
f 39//125 43//125 40//125
f 39//126 47//126 43//126
f 43//127 54//127 59//127
f 80//128 78//128 47//128
f 39//129 80//129 47//129
f 78//130 56//130 47//130
f 47//131 56//131 44//131
f 81//132 49//132 79//132
f 78//133 80//133 79//133
f 52//134 78//134 79//134
f 69//135 49//135 81//135
f 49//136 52//136 79//136
f 79//137 80//137 81//137
f 41//138 81//138 80//138
f 62//139 59//139 83//139
f 59//140 84//140 83//140
usemtl Material.003
f 38//141 35//141 19//141
f 33//142 83//142 58//142
f 38//143 19//143 18//143
f 58//144 38//144 18//144
f 19//145 8//145 18//145
f 58//146 18//146 33//146
f 7//147 18//147 8//147
f 18//148 7//148 17//148
f 74//149 19//149 35//149
f 83//150 33//150 34//150
f 34//151 33//151 17//151
f 33//152 18//152 17//152
f 38//153 56//153 35//153
f 82//154 58//154 83//154
f 38//155 55//155 56//155
f 58//156 55//156 38//156
f 56//157 55//157 44//157
f 58//158 82//158 55//158
f 43//159 44//159 55//159
f 55//160 54//160 43//160
f 74//161 35//161 56//161
f 83//162 84//162 82//162
f 84//163 54//163 82//163
f 82//164 54//164 55//164
