# Blender v2.79 (sub 0) OBJ File: 'silicon_arm_mid.blend'
# www.blender.org
mtllib silicon_arm_mid.mtl
o SiliconArmMid
v 0.400000 -1.000000 0.400000
v 0.501056 -0.553388 0.366016
v -0.400000 -1.000000 0.400000
v -0.262986 -0.595255 0.400000
v 0.131870 -0.567649 0.400000
v 0.716268 1.000000 -0.000000
v 1.000000 -1.000000 0.000000
v -0.839371 0.606443 0.000000
v -1.000000 -1.000000 0.000000
v 0.400000 -1.000000 -0.400000
v 0.501056 -0.553388 -0.366016
v -0.400000 -1.000000 -0.400000
v -0.647977 0.991430 -0.000000
v 0.380773 -0.216200 -0.000000
v -0.194959 1.251195 -0.000000
v -0.262986 -0.595255 -0.400000
v 0.963106 0.447778 -0.000000
v -0.689955 -0.213608 0.000000
v 0.888197 -0.083634 -0.000000
v 0.131870 -0.567649 -0.400000
vn -0.0168 0.2406 0.9705
vn -0.1114 0.1943 0.9746
vn 0.3682 0.1646 0.9151
vn -0.5452 0.1846 0.8178
vn 0.0000 0.0000 1.0000
vn -0.8405 0.2318 0.4898
vn -0.5556 0.2191 0.8021
vn -0.3185 0.1583 0.9346
vn 0.7477 -0.1054 0.6556
vn 0.5536 -0.0621 0.8304
vn -0.7389 -0.1346 0.6603
vn 0.6338 0.0773 0.7696
vn 0.0332 0.7405 0.6713
vn 0.0894 0.0554 0.9945
vn 0.6919 0.2715 0.6690
vn -0.0168 0.2406 -0.9705
vn -0.1114 0.1943 -0.9746
vn 0.3682 0.1646 -0.9151
vn -0.5452 0.1846 -0.8178
vn 0.0000 -0.0000 -1.0000
vn -0.8405 0.2318 -0.4898
vn -0.5556 0.2191 -0.8021
vn -0.3185 0.1583 -0.9346
vn 0.7477 -0.1054 -0.6556
vn 0.5536 -0.0621 -0.8304
vn -0.7389 -0.1346 -0.6603
vn 0.6338 0.0773 -0.7696
vn 0.0332 0.7405 -0.6713
vn 0.0894 0.0554 -0.9945
vn 0.6919 0.2715 -0.6690
usemtl None
s off
f 13//1 4//1 5//1
f 13//2 5//2 15//2
f 6//3 2//3 17//3
f 9//4 3//4 4//4
f 3//5 1//5 4//5
f 2//6 6//6 14//6
f 4//7 18//7 9//7
f 4//8 13//8 8//8
f 17//9 2//9 19//9
f 7//10 2//10 1//10
f 18//11 4//11 8//11
f 19//12 2//12 7//12
f 5//13 2//13 14//13
f 1//14 2//14 5//14
f 14//15 15//15 5//15
f 1//5 5//5 4//5
f 13//16 20//16 16//16
f 13//17 15//17 20//17
f 6//18 17//18 11//18
f 9//19 16//19 12//19
f 12//20 16//20 10//20
f 11//21 14//21 6//21
f 16//22 9//22 18//22
f 16//23 8//23 13//23
f 17//24 19//24 11//24
f 7//25 10//25 11//25
f 18//26 8//26 16//26
f 19//27 7//27 11//27
f 20//28 14//28 11//28
f 10//29 20//29 11//29
f 14//30 20//30 15//30
f 10//20 16//20 20//20
