# Blender v3.0.1 OBJ File: 'silicon_headv2.blend'
# www.blender.org
mtllib silicon_headv2.mtl
o SiliconHeadAccent
v -0.107223 0.445370 0.496197
v -0.107223 0.752953 0.370466
v -0.107223 0.717809 -0.091127
v -0.107223 0.881860 0.202299
v 0.106124 0.491520 0.502537
v 0.211348 0.734978 0.370466
v 0.211348 0.717809 -0.091127
v 0.211348 0.881860 0.202299
v -0.107223 0.445370 -0.496197
v -0.107223 0.752953 -0.370466
v -0.107223 0.717809 0.091127
v -0.107223 0.881860 -0.202299
v 0.106124 0.491520 -0.502537
v 0.211348 0.734978 -0.370466
v 0.211348 0.717809 0.091127
v 0.211348 0.881860 -0.202299
vn -1.0000 -0.0000 0.0000
vn 0.0000 0.8728 -0.4880
vn 0.9775 -0.1843 0.1030
vn -0.1370 0.5174 0.8447
vn 0.0000 -0.9072 -0.4208
vn 0.0000 0.7532 0.6578
vn 0.6758 -0.5551 -0.4849
vn 0.0213 0.3783 0.9254
vn 0.2096 -0.9255 -0.3156
vn 0.0447 0.7929 0.6078
vn 0.0000 0.8728 0.4880
vn 0.9775 -0.1843 -0.1030
vn -0.1370 0.5174 -0.8447
vn 0.0000 -0.9072 0.4208
vn 0.0000 0.7532 -0.6578
vn 0.6758 -0.5551 0.4849
vn 0.0213 0.3783 -0.9254
vn 0.2096 -0.9255 0.3156
vn 0.0447 0.7929 -0.6078
usemtl None
s off
f 2//1 3//1 1//1
f 4//2 7//2 3//2
f 8//3 5//3 7//3
f 6//4 1//4 5//4
f 7//5 1//5 3//5
f 4//6 6//6 8//6
f 2//1 4//1 3//1
f 4//2 8//2 7//2
f 8//7 6//7 5//7
f 6//8 2//8 1//8
f 7//9 5//9 1//9
f 4//10 2//10 6//10
f 10//1 9//1 11//1
f 12//11 11//11 15//11
f 16//12 15//12 13//12
f 14//13 13//13 9//13
f 15//14 11//14 9//14
f 12//15 16//15 14//15
f 10//1 11//1 12//1
f 12//11 15//11 16//11
f 16//16 13//16 14//16
f 14//17 9//17 10//17
f 15//18 9//18 13//18
f 12//19 14//19 10//19
o SiliconHead
v -0.598258 -0.400000 -0.121062
v 0.330000 -0.400000 -0.400000
v -0.405496 0.493500 -0.400000
v 0.226307 0.614085 -0.400000
v 0.483062 0.150484 -0.400000
v -0.855962 -0.039194 -0.201756
v -0.686170 0.158481 -0.272278
v -0.713263 0.438025 -0.145498
v -0.567293 0.201507 -0.181496
v 0.700000 -1.083157 0.000000
v -0.932728 -0.618968 -0.000000
v 0.912002 -0.000000 0.000000
v -1.000000 -0.145726 -0.000000
v 0.130121 0.223844 0.000000
v -0.686916 -0.000000 -0.000000
v -0.000000 -0.802736 -0.000000
v -0.598258 -0.400000 0.121062
v 0.330000 -0.400000 0.400000
v 0.700000 0.700000 0.000000
v -0.767926 0.620639 -0.000000
v 0.000000 1.000000 0.000000
v -0.405496 0.493500 0.400000
v 0.226307 0.614085 0.400000
v -0.183126 0.288752 -0.000000
v -0.254425 -0.128343 -0.000000
v 0.483062 0.150484 0.400000
v -0.855962 -0.039194 0.201756
v -0.686170 0.158481 0.272278
v -0.713263 0.438025 0.145498
v -0.567293 0.201507 0.181496
v -0.535272 0.192237 -0.000000
v -0.464074 -0.619872 -0.000000
vn -0.2341 -0.5818 -0.7789
vn -0.0009 -0.4828 -0.8758
vn -0.3140 -0.0446 -0.9484
vn -0.2333 -0.5823 -0.7788
vn 0.6173 -0.1208 -0.7774
vn -0.5336 -0.5287 -0.6601
vn -0.1291 0.6762 -0.7254
vn 0.6372 -0.1772 -0.7500
vn -0.3652 0.7392 -0.5658
vn 0.3282 0.7657 -0.5531
vn 0.6140 0.1860 -0.7671
vn -0.8439 0.3044 -0.4417
vn 0.6979 0.3865 -0.6030
vn -0.6325 0.3579 -0.6869
vn -0.6425 0.2640 -0.7194
vn -0.6221 0.2726 -0.7339
vn -0.2253 -0.5718 -0.7888
vn -0.2341 -0.5818 0.7789
vn -0.0009 -0.4828 0.8758
vn -0.3140 -0.0446 0.9484
vn -0.2333 -0.5823 0.7788
vn 0.6173 -0.1208 0.7774
vn -0.5336 -0.5287 0.6601
vn -0.1291 0.6762 0.7254
vn 0.6372 -0.1772 0.7500
vn -0.3652 0.7392 0.5658
vn 0.3282 0.7657 0.5531
vn 0.6140 0.1860 0.7671
vn -0.8439 0.3044 0.4417
vn 0.6979 0.3865 0.6030
vn -0.6325 0.3579 0.6869
vn -0.6425 0.2640 0.7194
vn -0.6221 0.2726 0.7339
vn -0.2253 -0.5718 0.7888
vn -0.7164 0.1992 -0.6686
vn 0.0911 0.3069 -0.9474
vn -0.3768 0.4114 -0.8299
vn 0.2226 -0.8121 -0.5394
vn -0.1432 -0.6910 -0.7086
vn 0.1603 -0.8397 -0.5189
vn -0.2257 0.6204 -0.7511
vn 0.6850 0.3459 -0.6412
vn -0.7224 -0.4001 -0.5640
vn 0.6242 -0.6759 -0.3917
vn 0.5893 -0.6673 -0.4554
vn 0.7740 -0.6106 -0.1677
vn 0.8021 -0.5722 -0.1707
vn 0.5714 -0.7100 -0.4117
vn -0.7164 0.1992 0.6686
vn 0.0911 0.3069 0.9474
vn -0.3768 0.4114 0.8299
vn 0.2226 -0.8121 0.5394
vn -0.1432 -0.6910 0.7086
vn 0.1603 -0.8397 0.5189
vn -0.2257 0.6204 0.7511
vn 0.6850 0.3459 0.6412
vn -0.7224 -0.4001 0.5640
vn 0.6242 -0.6759 0.3917
vn 0.5893 -0.6673 0.4554
vn 0.7740 -0.6106 0.1677
vn 0.8021 -0.5722 0.1707
vn 0.5714 -0.7100 0.4117
vn -0.7755 0.2348 -0.5861
vn -0.7755 0.2348 0.5861
usemtl Material
s off
f 17//20 18//20 32//20
f 27//21 17//21 48//21
f 29//22 17//22 27//22
f 18//23 26//23 32//23
f 26//24 18//24 28//24
f 17//25 29//25 22//25
f 19//26 37//26 20//26
f 18//27 21//27 28//27
f 36//28 37//28 19//28
f 20//29 37//29 35//29
f 35//30 28//30 20//30
f 29//31 24//31 22//31
f 28//32 21//32 20//32
f 24//33 36//33 19//33
f 23//34 24//34 19//34
f 22//35 24//35 23//35
f 48//36 17//36 32//36
f 33//37 32//37 34//37
f 27//38 48//38 33//38
f 29//39 27//39 33//39
f 34//40 32//40 26//40
f 26//41 28//41 34//41
f 33//42 43//42 29//42
f 38//43 39//43 37//43
f 34//44 28//44 42//44
f 36//45 38//45 37//45
f 39//46 35//46 37//46
f 35//47 39//47 28//47
f 29//48 43//48 45//48
f 28//49 39//49 42//49
f 45//50 38//50 36//50
f 44//51 38//51 45//51
f 43//52 44//52 45//52
f 48//53 32//53 33//53
usemtl Material.001
f 18//54 30//54 21//54
f 17//55 31//55 41//55
f 18//56 41//56 30//56
f 19//57 40//57 47//57
f 20//58 30//58 40//58
f 40//59 19//59 20//59
f 41//60 18//60 17//60
f 17//61 22//61 31//61
f 21//62 30//62 20//62
f 31//63 22//63 23//63
f 25//64 23//64 19//64
f 25//65 47//65 31//65
f 47//66 25//66 19//66
f 23//67 25//67 31//67
f 34//68 42//68 30//68
f 33//69 41//69 31//69
f 34//70 30//70 41//70
f 38//71 47//71 40//71
f 39//72 40//72 30//72
f 40//73 39//73 38//73
f 41//74 33//74 34//74
f 33//75 31//75 43//75
f 42//76 39//76 30//76
f 31//77 44//77 43//77
f 46//78 38//78 44//78
f 46//79 31//79 47//79
f 47//80 38//80 46//80
f 44//81 31//81 46//81
usemtl Material.002
f 29//82 36//82 24//82
f 29//83 45//83 36//83
