# Blender v2.79 (sub 0) OBJ File: 'silicon_arm_gem.blend'
# www.blender.org
mtllib silicon_arm_gem.mtl
o SiliconArmGem
v 0.400000 -0.000000 -0.400000
v -0.400000 -0.000000 -0.400000
v -0.330000 -0.620572 -0.400000
v 0.330000 -0.620572 -0.400000
v 1.122612 -1.223349 0.000000
v -1.100862 -1.223349 -0.000000
v 1.000000 -0.000000 0.000000
v -1.000000 -0.000000 -0.000000
v 0.400000 -0.000000 0.400000
v -0.400000 -0.000000 0.400000
v -0.000000 -1.654341 -0.000000
v -0.330000 -0.620572 0.400000
v 0.330000 -0.620572 0.400000
vn -0.5536 -0.0624 -0.8304
vn 0.0000 -0.3609 -0.9326
vn 0.5536 -0.0624 -0.8304
vn -0.1564 -0.3994 -0.9033
vn -0.4847 0.0400 -0.8738
vn 0.1531 -0.3987 -0.9042
vn 0.0000 -0.0000 -1.0000
vn 0.4789 0.0480 -0.8766
vn -0.5536 -0.0624 0.8304
vn 0.0000 -0.3609 0.9326
vn 0.5536 -0.0624 0.8304
vn -0.1564 -0.3994 0.9033
vn -0.4847 0.0400 0.8738
vn 0.1531 -0.3987 0.9042
vn -0.0000 0.0000 1.0000
vn 0.4789 0.0480 0.8766
usemtl None
s off
f 2//1 3//1 8//1
f 3//2 4//2 11//2
f 7//3 4//3 1//3
f 6//4 3//4 11//4
f 8//5 3//5 6//5
f 4//6 5//6 11//6
f 3//7 2//7 1//7
f 5//8 4//8 7//8
f 4//7 3//7 1//7
f 10//9 8//9 12//9
f 12//10 11//10 13//10
f 7//11 9//11 13//11
f 6//12 11//12 12//12
f 8//13 6//13 12//13
f 13//14 11//14 5//14
f 12//15 9//15 10//15
f 5//16 7//16 13//16
f 13//15 9//15 12//15
