# Blender v2.76 (sub 0) OBJ File: 'trash.blend'
# www.blender.org
mtllib trash.mtl
o Trash
v -0.664108 -0.401511 0.280000
v -1.000000 0.000000 0.178215
v -0.248223 -0.100000 0.280000
v -1.000000 -0.100000 0.177292
v 0.664108 -0.401511 0.280000
v 1.000000 0.000000 0.178215
v 0.000000 -0.432265 0.280000
v 0.000000 0.000000 0.178210
v 0.248223 -0.100000 0.280000
v 1.000000 -0.100000 0.177292
v 0.000000 -0.100000 0.280000
v -0.664108 -0.401511 -0.280000
v -1.000000 0.000000 -0.178215
v -1.000000 -0.161306 0.000000
v -1.000000 0.000000 0.000000
v -0.248223 -0.100000 -0.280000
v -1.000000 -0.100000 -0.177292
v -0.704583 -0.458612 0.000000
v 0.664108 -0.401511 -0.280000
v 1.000000 0.000000 -0.178215
v 0.000000 -0.432265 -0.280000
v 0.000000 0.000000 -0.178210
v 1.000000 -0.161306 0.000000
v 1.000000 0.000000 0.000000
v 0.000000 0.000000 0.000000
v 0.000000 -0.488541 0.000000
v 0.248223 -0.100000 -0.280000
v 1.000000 -0.100000 -0.177292
v 0.000000 -0.100000 -0.280000
v 0.704583 -0.458612 0.000000
vn -0.045400 -0.979400 0.196800
vn 0.000000 1.000000 0.000000
vn -0.133100 0.183500 0.974000
vn -1.000000 0.000000 0.000000
vn -0.688800 -0.684400 0.239100
vn 0.000000 0.000000 1.000000
vn -0.688100 -0.685800 0.237100
vn 0.000000 0.713400 0.700800
vn -0.135400 -0.009100 0.990800
vn 0.000000 0.713300 0.700800
vn -0.041500 -0.977800 0.205400
vn 0.045400 -0.979400 0.196800
vn 0.133100 0.183500 0.974000
vn 1.000000 0.000000 0.000000
vn 0.688800 -0.684400 0.239100
vn 0.688100 -0.685800 0.237100
vn 0.135400 -0.009100 0.990800
vn 0.041500 -0.977800 0.205400
vn -0.045400 -0.979400 -0.196800
vn -0.133100 0.183500 -0.974000
vn -0.688800 -0.684400 -0.239100
vn 0.000000 0.000000 -1.000000
vn -0.688100 -0.685800 -0.237100
vn 0.000000 0.713400 -0.700800
vn -0.135400 -0.009100 -0.990800
vn 0.000000 0.713300 -0.700800
vn -0.041500 -0.977800 -0.205400
vn 0.045400 -0.979400 -0.196800
vn 0.133100 0.183500 -0.974000
vn 0.688800 -0.684400 -0.239100
vn 0.688100 -0.685800 -0.237100
vn 0.135400 -0.009100 -0.990800
vn 0.041500 -0.977800 -0.205400
usemtl Material
s off
f 26//1 7//1 1//1
f 15//2 2//2 8//2
f 3//3 4//3 1//3
f 2//4 15//4 14//4
f 14//5 18//5 1//5
f 25//2 15//2 8//2
f 7//6 11//6 1//6
f 1//7 4//7 14//7
f 4//4 2//4 14//4
f 11//8 8//8 3//8
f 2//9 4//9 3//9
f 2//10 3//10 8//10
f 18//11 26//11 1//11
f 11//6 3//6 1//6
f 26//12 5//12 7//12
f 24//2 8//2 6//2
f 9//13 5//13 10//13
f 6//14 23//14 24//14
f 23//15 5//15 30//15
f 25//2 8//2 24//2
f 7//6 5//6 11//6
f 5//16 23//16 10//16
f 10//14 23//14 6//14
f 11//8 9//8 8//8
f 6//17 9//17 10//17
f 6//10 8//10 9//10
f 30//18 5//18 26//18
f 11//6 5//6 9//6
f 26//19 12//19 21//19
f 15//2 22//2 13//2
f 16//20 12//20 17//20
f 13//4 14//4 15//4
f 14//21 12//21 18//21
f 25//2 22//2 15//2
f 21//22 12//22 29//22
f 12//23 14//23 17//23
f 17//4 14//4 13//4
f 29//24 16//24 22//24
f 13//25 16//25 17//25
f 13//26 22//26 16//26
f 18//27 12//27 26//27
f 29//22 12//22 16//22
f 26//28 21//28 19//28
f 24//2 20//2 22//2
f 27//29 28//29 19//29
f 20//14 24//14 23//14
f 23//30 30//30 19//30
f 25//2 24//2 22//2
f 21//22 29//22 19//22
f 19//31 28//31 23//31
f 28//14 20//14 23//14
f 29//24 22//24 27//24
f 20//32 28//32 27//32
f 20//26 27//26 22//26
f 30//33 26//33 19//33
f 29//22 27//22 19//22
