# Blender v2.79 (sub 0) OBJ File: 'xenon_leg_mid.blend'
# www.blender.org
mtllib xenon_leg_mid.mtl
o XenonLegMid
v 0.600000 -1.000000 0.600000
v -0.600000 -1.000000 0.600000
v -0.400000 0.163692 0.400000
v 0.400000 0.164307 0.400000
v 0.904029 0.017738 0.063981
v -0.646267 0.019737 0.391897
v 0.000000 0.165784 0.400000
v 1.000000 0.337641 -0.000000
v 1.500000 -1.000000 -0.000000
v -1.000000 0.340965 0.000000
v -1.500000 -1.000000 0.000000
v 0.600000 -1.000000 -0.600000
v 0.943917 1.000000 -0.000000
v -0.600000 -1.000000 -0.600000
v -0.936524 1.000000 -0.000000
v 1.000000 0.002056 -0.000000
v -0.400000 0.163692 -0.400000
v 0.400000 0.164307 -0.400000
v 0.904029 0.017738 -0.063981
v -1.000000 0.003842 0.000000
v -0.646267 0.019737 -0.391897
v -0.000000 0.165784 -0.400000
v -0.000000 0.479097 -0.000000
vn 0.0000 0.1691 0.9856
vn -0.3985 0.7221 0.5656
vn 0.5448 0.0461 0.8373
vn 0.5547 0.0000 0.8321
vn -0.7024 0.3499 0.6198
vn -0.1439 0.1916 0.9709
vn -0.0009 0.1695 0.9855
vn 0.5855 0.2339 0.7762
vn 0.5637 0.2813 0.7766
vn -0.0022 0.4303 0.9027
vn -0.7423 0.0000 0.6700
vn 0.0006 0.1694 0.9855
vn -0.3456 0.5484 0.7615
vn -0.5432 0.0523 0.8380
vn 0.0016 0.4309 0.9024
vn -0.5490 0.1431 0.8235
vn 0.5352 0.2629 0.8028
vn 0.4011 0.7211 0.5649
vn -0.0000 0.1691 -0.9856
vn -0.3985 0.7221 -0.5656
vn 0.5448 0.0461 -0.8373
vn 0.5547 -0.0000 -0.8321
vn -0.7024 0.3499 -0.6198
vn -0.1439 0.1916 -0.9709
vn -0.0009 0.1695 -0.9855
vn 0.5855 0.2339 -0.7762
vn 0.5637 0.2813 -0.7766
vn -0.0022 0.4303 -0.9027
vn -0.7423 0.0000 -0.6700
vn 0.0006 0.1694 -0.9855
vn -0.3456 0.5484 -0.7615
vn -0.5432 0.0523 -0.8380
vn 0.0016 0.4309 -0.9024
vn -0.5490 0.1431 -0.8235
vn 0.5352 0.2629 -0.8028
vn 0.4011 0.7211 -0.5649
usemtl None
s off
f 7//1 2//1 1//1
f 7//2 13//2 23//2
f 13//3 4//3 8//3
f 8//4 5//4 16//4
f 11//5 6//5 20//5
f 2//6 3//6 6//6
f 7//7 3//7 2//7
f 5//8 4//8 1//8
f 5//9 9//9 16//9
f 3//10 7//10 15//10
f 20//11 6//11 10//11
f 4//12 7//12 1//12
f 6//13 3//13 10//13
f 10//14 3//14 15//14
f 8//4 4//4 5//4
f 7//15 4//15 13//15
f 11//16 2//16 6//16
f 5//17 1//17 9//17
f 23//18 15//18 7//18
f 22//19 12//19 14//19
f 22//20 23//20 13//20
f 13//21 8//21 18//21
f 8//22 16//22 19//22
f 11//23 20//23 21//23
f 14//24 21//24 17//24
f 22//25 14//25 17//25
f 19//26 12//26 18//26
f 19//27 16//27 9//27
f 17//28 15//28 22//28
f 20//29 10//29 21//29
f 18//30 12//30 22//30
f 21//31 10//31 17//31
f 10//32 15//32 17//32
f 8//22 19//22 18//22
f 22//33 13//33 18//33
f 11//34 21//34 14//34
f 19//35 9//35 12//35
f 23//36 22//36 15//36
