# Blender v2.79 (sub 0) OBJ File: 'xenon_foot_gem2.blend'
# www.blender.org
mtllib xenon_foot_gem2.mtl
o XenonFootGem2
v 0.772743 -0.400000 -0.206948
v 0.867501 -0.400000 -0.237964
v 0.817700 -0.906137 -0.108527
v 0.730000 -0.000000 -0.300000
v 0.880000 -0.000000 -0.300000
v 0.954047 -0.375504 -0.118096
v 0.704409 -0.923583 -0.091825
v 1.001219 -0.818174 0.000000
v 1.000000 -0.000000 0.000000
v 0.660000 -0.000000 0.000000
v 0.697090 -0.239393 0.000000
v 0.108152 -1.048395 0.000000
v 0.772743 -0.400000 0.206948
v 0.867501 -0.400000 0.237964
v 0.817700 -0.906137 0.108527
v 0.703992 -1.177200 0.000000
v 0.730000 -0.000000 0.300000
v 0.880000 -0.000000 0.300000
v 0.954047 -0.375504 0.118096
v 1.024758 -0.363699 0.000000
v 0.480946 -0.834390 0.000000
v 0.704409 -0.923583 0.091825
v 0.440211 -1.159694 0.000000
v 0.632790 -0.634377 0.000000
v -0.772743 -0.400000 -0.206948
v -0.867501 -0.400000 -0.237964
v -0.817700 -0.906137 -0.108527
v -0.730000 -0.000000 -0.300000
v -0.880000 -0.000000 -0.300000
v -0.954047 -0.375504 -0.118096
v -0.704409 -0.923583 -0.091825
v -1.001219 -0.818174 -0.000000
v -1.000000 -0.000000 -0.000000
v -0.660000 -0.000000 -0.000000
v -0.697090 -0.239393 -0.000000
v -0.108152 -1.048395 -0.000000
v -0.772743 -0.400000 0.206948
v -0.867501 -0.400000 0.237964
v -0.817700 -0.906137 0.108527
v -0.703992 -1.177200 -0.000000
v -0.730000 -0.000000 0.300000
v -0.880000 -0.000000 0.300000
v -0.954047 -0.375504 0.118096
v -1.024758 -0.363699 -0.000000
v -0.480946 -0.834390 -0.000000
v -0.704409 -0.923583 0.091825
v -0.440211 -1.159694 -0.000000
v -0.632790 -0.634377 -0.000000
vn -0.3043 -0.2078 -0.9296
vn 0.8591 -0.0445 -0.5099
vn 0.5798 -0.2549 -0.7738
vn -0.9629 -0.1492 -0.2247
vn 0.8164 -0.1133 -0.5663
vn -0.3015 -0.2465 -0.9211
vn -0.8879 0.1445 -0.4368
vn -0.0241 -0.3629 -0.9315
vn -0.1128 -0.1993 -0.9734
vn 0.6057 -0.5014 -0.6178
vn 0.0000 -0.1533 -0.9882
vn -0.9606 -0.1561 -0.2300
vn 0.9285 0.0032 -0.3714
vn 0.8154 -0.0665 -0.5751
vn 0.8539 0.0581 -0.5171
vn -0.1016 -0.2598 -0.9603
vn -0.2179 0.3796 -0.8991
vn -0.0908 -0.2710 -0.9583
vn -0.8177 -0.0198 -0.5754
vn -0.2932 0.2226 -0.9298
vn -0.3043 -0.2078 0.9296
vn 0.8591 -0.0445 0.5099
vn 0.5798 -0.2549 0.7738
vn -0.9629 -0.1492 0.2247
vn 0.8164 -0.1133 0.5663
vn -0.3015 -0.2465 0.9211
vn -0.8879 0.1445 0.4368
vn -0.0241 -0.3629 0.9315
vn -0.1128 -0.1993 0.9734
vn 0.6057 -0.5014 0.6178
vn 0.0000 -0.1533 0.9882
vn -0.9606 -0.1561 0.2300
vn 0.9285 0.0032 0.3714
vn 0.8154 -0.0665 0.5751
vn 0.8539 0.0581 0.5171
vn -0.1016 -0.2598 0.9603
vn -0.2179 0.3796 0.8991
vn -0.0908 -0.2710 0.9583
vn -0.8177 -0.0198 0.5754
vn -0.2932 0.2226 0.9298
vn 0.3043 -0.2078 -0.9296
vn -0.8591 -0.0445 -0.5099
vn -0.5798 -0.2549 -0.7738
vn 0.9629 -0.1492 -0.2247
vn -0.8164 -0.1133 -0.5663
vn 0.3015 -0.2465 -0.9211
vn 0.8879 0.1445 -0.4368
vn 0.0241 -0.3629 -0.9315
vn 0.1128 -0.1993 -0.9734
vn -0.6057 -0.5014 -0.6178
vn 0.9606 -0.1561 -0.2300
vn -0.9285 0.0032 -0.3714
vn -0.8154 -0.0665 -0.5751
vn -0.8539 0.0581 -0.5171
vn 0.1016 -0.2598 -0.9603
vn 0.2179 0.3796 -0.8991
vn 0.0908 -0.2710 -0.9583
vn 0.8177 -0.0198 -0.5754
vn 0.2932 0.2226 -0.9298
vn 0.3043 -0.2078 0.9296
vn -0.8591 -0.0445 0.5099
vn -0.5798 -0.2549 0.7738
vn 0.9629 -0.1492 0.2247
vn -0.8164 -0.1133 0.5663
vn 0.3015 -0.2465 0.9211
vn 0.8879 0.1445 0.4368
vn 0.0241 -0.3629 0.9315
vn 0.1128 -0.1993 0.9734
vn -0.6057 -0.5014 0.6178
vn 0.9606 -0.1561 0.2300
vn -0.9285 0.0032 0.3714
vn -0.8154 -0.0665 0.5751
vn -0.8539 0.0581 0.5171
vn 0.1016 -0.2598 0.9603
vn 0.2179 0.3796 0.8991
vn 0.0908 -0.2710 0.9583
vn 0.8177 -0.0198 0.5754
vn 0.2932 0.2226 0.9298
usemtl None
s off
f 1//1 2//1 3//1
f 8//2 6//2 20//2
f 2//3 8//3 3//3
f 4//4 11//4 10//4
f 5//5 6//5 2//5
f 1//6 4//6 2//6
f 1//7 24//7 11//7
f 3//8 16//8 23//8
f 3//9 7//9 1//9
f 16//10 3//10 8//10
f 4//11 5//11 2//11
f 1//12 11//12 4//12
f 6//13 5//13 9//13
f 2//14 6//14 8//14
f 6//15 9//15 20//15
f 23//16 7//16 3//16
f 21//17 7//17 12//17
f 7//18 23//18 12//18
f 24//19 1//19 7//19
f 7//20 21//20 24//20
f 13//21 15//21 14//21
f 8//22 20//22 19//22
f 14//23 15//23 8//23
f 17//24 10//24 11//24
f 18//25 14//25 19//25
f 13//26 14//26 17//26
f 13//27 11//27 24//27
f 15//28 23//28 16//28
f 15//29 13//29 22//29
f 16//30 8//30 15//30
f 17//31 14//31 18//31
f 13//32 17//32 11//32
f 19//33 9//33 18//33
f 14//34 8//34 19//34
f 19//35 20//35 9//35
f 23//36 15//36 22//36
f 21//37 12//37 22//37
f 22//38 12//38 23//38
f 24//39 22//39 13//39
f 22//40 24//40 21//40
f 25//41 27//41 26//41
f 32//42 44//42 30//42
f 26//43 27//43 32//43
f 28//44 34//44 35//44
f 29//45 26//45 30//45
f 25//46 26//46 28//46
f 25//47 35//47 48//47
f 27//48 47//48 40//48
f 27//49 25//49 31//49
f 40//50 32//50 27//50
f 28//11 26//11 29//11
f 25//51 28//51 35//51
f 30//52 33//52 29//52
f 26//53 32//53 30//53
f 30//54 44//54 33//54
f 47//55 27//55 31//55
f 45//56 36//56 31//56
f 31//57 36//57 47//57
f 48//58 31//58 25//58
f 31//59 48//59 45//59
f 37//60 38//60 39//60
f 32//61 43//61 44//61
f 38//62 32//62 39//62
f 41//63 35//63 34//63
f 42//64 43//64 38//64
f 37//65 41//65 38//65
f 37//66 48//66 35//66
f 39//67 40//67 47//67
f 39//68 46//68 37//68
f 40//69 39//69 32//69
f 41//31 42//31 38//31
f 37//70 35//70 41//70
f 43//71 42//71 33//71
f 38//72 43//72 32//72
f 43//73 33//73 44//73
f 47//74 46//74 39//74
f 45//75 46//75 36//75
f 46//76 47//76 36//76
f 48//77 37//77 46//77
f 46//78 45//78 48//78
