# Blender v2.79 (sub 0) OBJ File: 'bowl.blend'
# www.blender.org
mtllib bowl.mtl
o Bowl
v 0.659284 -1.000000 -0.696651
v 0.632390 -1.000000 0.680526
v -0.761603 -1.000000 0.796405
v -0.797939 -1.000000 -0.598851
v 1.139299 1.000000 -1.217386
v 1.285801 1.000000 1.262657
v -1.282012 1.000000 1.152875
v -1.213112 1.000000 -1.169384
v 1.782892 0.865476 -0.032283
v 0.000000 1.000000 -1.620116
v -0.000001 1.000000 1.780203
v -1.646796 1.000000 -0.000000
v 0.000000 -1.000000 -0.000000
vn 0.0000 1.0000 0.0000
vn -0.8539 0.5202 -0.0167
vn -0.3476 0.3650 -0.8637
vn 0.9127 0.2890 -0.2888
vn -0.3169 0.3095 0.8965
vn 0.3298 0.3217 0.8876
vn 0.0603 0.4348 0.8985
vn -0.8482 0.3835 -0.3654
vn -0.8165 0.3209 0.4799
vn 0.4239 0.2647 -0.8662
vn -0.0734 0.4626 -0.8835
vn 0.8996 0.2819 0.3336
vn 0.9177 0.3966 -0.0239
vn 0.0000 -1.0000 0.0000
vn -0.2283 -0.9735 0.0135
usemtl Material
s off
f 4//1 13//1 1//1
f 1//2 2//2 9//2
f 2//3 11//3 6//3
f 3//4 12//4 7//4
f 5//5 10//5 1//5
f 3//1 2//1 13//1
f 10//6 8//6 4//6
f 4//7 1//7 10//7
f 2//8 6//8 9//8
f 9//9 5//9 1//9
f 11//10 3//10 7//10
f 3//11 11//11 2//11
f 12//12 4//12 8//12
f 4//13 12//13 3//13
f 4//1 3//1 13//1
f 2//1 1//1 13//1
f 5//14 12//14 10//14
f 5//15 9//15 6//15
f 6//14 11//14 5//14
f 11//14 7//14 12//14
f 5//14 11//14 12//14
f 12//14 8//14 10//14
