# Blender v2.79 (sub 0) OBJ File: 'carbon_foot_gem2.blend'
# www.blender.org
mtllib carbon_foot_gem2.mtl
o CarbonFootGem2
v 0.400000 -0.000000 -0.400000
v -0.400000 -0.000000 -0.400000
v -0.746004 -0.458141 -0.400000
v -0.361645 -0.464791 -0.451928
v 0.453181 -0.210282 -0.327821
v 0.164784 -0.953653 -0.186757
v -0.195760 -0.757085 -0.332812
v 1.186687 -0.974819 0.000000
v -0.766921 -0.654592 -0.000000
v 1.000000 -0.000000 0.000000
v -1.000000 -0.000000 -0.000000
v 0.400000 -0.000000 0.400000
v -0.400000 -0.000000 0.400000
v -0.213696 -1.026209 -0.000000
v -0.746004 -0.458141 0.400000
v -0.361645 -0.464791 0.451927
v 0.026924 -0.577510 0.000000
v 0.453181 -0.210282 0.327821
v 1.268260 -0.118995 0.000000
v 0.164784 -0.953653 0.186757
v 0.286660 -0.857277 0.000000
v 0.282326 -1.266603 0.000000
v -0.195760 -0.757085 0.332812
vn -0.5116 0.3864 -0.7674
vn -0.1279 -0.4357 -0.8910
vn 0.3464 0.7810 -0.5196
vn -0.5110 -0.7607 -0.4003
vn -0.9212 -0.3280 -0.2093
vn 0.2485 -0.2413 -0.9381
vn 0.0000 0.1110 -0.9938
vn 0.1112 0.8517 -0.5121
vn -0.1315 0.0993 -0.9863
vn 0.2971 -0.8043 -0.5147
vn 0.2255 -0.2648 -0.9376
vn 0.3850 -0.2110 -0.8985
vn 0.3272 -0.8117 -0.4838
vn 0.7132 0.5035 -0.4876
vn 0.0872 -0.4861 -0.8695
vn 0.5641 0.5237 -0.6384
vn 0.1499 -0.4645 -0.8728
vn -0.3214 -0.7278 -0.6058
vn -0.3487 -0.7195 -0.6006
vn -0.5116 0.3864 0.7674
vn -0.1279 -0.4357 0.8910
vn 0.3464 0.7810 0.5197
vn -0.5110 -0.7607 0.4003
vn -0.9212 -0.3280 0.2093
vn 0.2485 -0.2413 0.9381
vn -0.0000 0.1110 0.9938
vn 0.1112 0.8517 0.5121
vn -0.1315 0.0993 0.9863
vn 0.2971 -0.8043 0.5147
vn 0.2255 -0.2648 0.9376
vn 0.3850 -0.2110 0.8985
vn 0.3272 -0.8117 0.4838
vn 0.7132 0.5035 0.4876
vn 0.0872 -0.4861 0.8695
vn 0.5641 0.5237 0.6384
vn 0.1499 -0.4645 0.8728
vn -0.3214 -0.7278 0.6058
vn -0.3487 -0.7195 0.6006
usemtl None
s off
f 2//1 3//1 11//1
f 3//2 4//2 7//2
f 10//3 19//3 1//3
f 9//4 3//4 14//4
f 11//5 3//5 9//5
f 4//6 6//6 7//6
f 1//7 4//7 2//7
f 8//8 6//8 21//8
f 2//9 4//9 3//9
f 17//10 5//10 19//10
f 1//11 5//11 4//11
f 1//12 19//12 5//12
f 5//13 17//13 4//13
f 17//14 6//14 4//14
f 22//15 7//15 6//15
f 21//16 6//16 17//16
f 22//17 6//17 8//17
f 7//18 14//18 3//18
f 7//19 22//19 14//19
f 13//20 11//20 15//20
f 15//21 23//21 16//21
f 10//22 12//22 19//22
f 9//23 14//23 15//23
f 11//24 9//24 15//24
f 16//25 23//25 20//25
f 12//26 13//26 16//26
f 8//27 21//27 20//27
f 13//28 15//28 16//28
f 17//29 19//29 18//29
f 12//30 16//30 18//30
f 12//31 18//31 19//31
f 18//32 16//32 17//32
f 17//33 16//33 20//33
f 22//34 20//34 23//34
f 21//35 17//35 20//35
f 22//36 8//36 20//36
f 23//37 15//37 14//37
f 23//38 14//38 22//38
