# Blender v2.79 (sub 0) OBJ File: 'helium_body_mid.blend'
# www.blender.org
mtllib helium_body_mid.mtl
o HeliumBodyCenter
v 0.400000 -1.000000 0.400000
v 0.400000 1.000000 0.400000
v -0.400000 -1.000000 0.400000
v -0.400000 1.000000 0.400000
v -0.334626 -0.261898 0.200000
v 0.308137 0.414877 0.200000
v -0.000000 0.000000 0.400000
v -0.147023 -0.213301 0.400000
v 0.143346 0.191071 0.400000
v 1.000000 1.000000 -0.000000
v 1.000000 -1.000000 0.000000
v -1.000000 1.000000 0.000000
v -1.000000 -1.000000 0.000000
v 0.400000 -1.000000 -0.400000
v 0.400000 1.000000 -0.400000
v -0.400000 -1.000000 -0.400000
v -0.400000 1.000000 -0.400000
v -0.334626 -0.261898 -0.200000
v 0.308137 0.414877 -0.200000
v -0.000000 -0.000000 -0.400000
v -0.481979 -0.346283 0.000000
v 0.445106 0.000000 -0.000000
v -0.147023 -0.213301 -0.400000
v 0.143346 0.191071 -0.400000
vn 0.0000 0.0000 1.0000
vn 0.5200 -0.3482 0.7800
vn 0.4623 -0.2565 0.8488
vn -0.5349 0.2648 0.8024
vn -0.7367 0.2369 0.6334
vn -0.7475 0.5923 0.3008
vn -0.5477 -0.1586 0.8215
vn 0.5483 0.1518 0.8224
vn 0.8702 -0.2761 0.4081
vn -0.7149 -0.2751 0.6428
vn 0.8097 0.4493 -0.3775
vn -0.7034 -0.1467 0.6955
vn 0.6772 0.1459 0.7212
vn 0.0000 -0.0000 -1.0000
vn 0.5200 -0.3482 -0.7800
vn 0.4623 -0.2565 -0.8488
vn -0.5349 0.2648 -0.8024
vn -0.7367 0.2369 -0.6334
vn -0.7475 0.5923 -0.3008
vn -0.5477 -0.1586 -0.8215
vn 0.5483 0.1518 -0.8224
vn 0.8702 -0.2761 -0.4081
vn -0.7149 -0.2751 -0.6428
vn 0.8097 0.4493 0.3775
vn -0.7034 -0.1467 -0.6955
vn 0.6772 0.1459 -0.7212
usemtl None
s off
f 1//1 7//1 3//1
f 4//1 7//1 2//1
f 2//2 6//2 10//2
f 10//3 6//3 22//3
f 13//4 3//4 5//4
f 3//5 8//5 5//5
f 5//6 21//6 13//6
f 5//7 4//7 12//7
f 11//8 6//8 1//8
f 6//9 2//9 9//9
f 3//1 7//1 8//1
f 2//1 7//1 9//1
f 21//10 5//10 12//10
f 22//11 6//11 11//11
f 8//1 7//1 4//1
f 5//12 8//12 4//12
f 9//1 7//1 1//1
f 9//13 1//13 6//13
f 14//14 16//14 20//14
f 17//14 15//14 20//14
f 15//15 10//15 19//15
f 10//16 22//16 19//16
f 13//17 18//17 16//17
f 16//18 18//18 23//18
f 18//19 13//19 21//19
f 18//20 12//20 17//20
f 11//21 14//21 19//21
f 19//22 24//22 15//22
f 16//14 23//14 20//14
f 15//14 24//14 20//14
f 21//23 12//23 18//23
f 22//24 11//24 19//24
f 23//14 17//14 20//14
f 18//25 17//25 23//25
f 24//14 14//14 20//14
f 24//26 19//26 14//26
