# Blender v2.79 (sub 0) OBJ File: 'helium_back_mid.blend'
# www.blender.org
mtllib helium_back_mid.mtl
o HeliumBackMid
v -0.400000 -1.000000 -0.400000
v -0.400000 1.000000 -0.400000
v 0.400000 -1.000000 -0.400000
v 0.400000 1.000000 -0.400000
v 1.281976 -0.025869 -0.205174
v 0.818431 -0.005538 -0.400000
v 1.047020 -0.002655 -0.400000
v 0.599866 -0.008389 -0.400000
v 0.333593 -0.035520 -0.207104
v -1.000000 1.000000 0.000000
v -1.000000 -1.000000 0.000000
v 1.000000 1.000000 -0.000000
v 1.000000 -1.000000 0.000000
v -0.400000 -1.000000 0.400000
v -0.400000 1.000000 0.400000
v 0.400000 -1.000000 0.400000
v 0.400000 1.000000 0.400000
v 1.281976 -0.025869 0.205174
v 0.818431 -0.005538 0.400000
v 0.090789 -0.064649 -0.000000
v 1.047020 -0.002655 0.400000
v 0.599866 -0.008389 0.400000
v 0.333593 -0.035520 0.207104
v 1.472444 -0.050314 -0.000000
vn 0.0000 -0.0000 -1.0000
vn -0.4826 -0.4785 -0.7335
vn -0.5142 -0.5268 -0.6769
vn 0.6707 -0.3337 -0.6624
vn 0.5709 -0.3704 -0.7327
vn -0.5307 0.5351 -0.6573
vn -0.5763 0.5578 -0.5972
vn 0.7129 0.3207 -0.6236
vn 0.6241 0.3146 -0.7152
vn 0.5223 0.3370 -0.7834
vn -0.4865 -0.4805 -0.7297
vn -0.4657 0.5431 -0.6986
vn 0.5258 -0.3183 -0.7888
vn 0.0000 0.0000 1.0000
vn -0.4826 -0.4785 0.7335
vn -0.5142 -0.5268 0.6769
vn 0.6707 -0.3337 0.6624
vn 0.5709 -0.3704 0.7327
vn -0.5307 0.5351 0.6573
vn -0.5763 0.5578 0.5972
vn 0.7129 0.3207 0.6236
vn 0.6241 0.3146 0.7152
vn 0.5223 0.3370 0.7834
vn -0.4865 -0.4805 0.7297
vn -0.4657 0.5431 0.6986
vn 0.5258 -0.3183 0.7888
usemtl None
s off
f 1//1 6//1 3//1
f 4//1 8//1 2//1
f 2//2 8//2 9//2
f 10//3 9//3 20//3
f 13//4 5//4 24//4
f 3//5 7//5 5//5
f 9//6 8//6 1//6
f 20//7 9//7 1//7
f 7//1 6//1 4//1
f 24//8 5//8 12//8
f 8//1 6//1 1//1
f 5//9 7//9 12//9
f 12//10 7//10 4//10
f 8//1 4//1 6//1
f 9//11 10//11 2//11
f 1//12 11//12 20//12
f 3//1 6//1 7//1
f 5//13 13//13 3//13
f 14//14 16//14 19//14
f 17//14 15//14 22//14
f 15//15 23//15 22//15
f 10//16 20//16 23//16
f 13//17 24//17 18//17
f 16//18 18//18 21//18
f 23//19 14//19 22//19
f 20//20 14//20 23//20
f 21//14 17//14 19//14
f 24//21 12//21 18//21
f 22//14 14//14 19//14
f 18//22 12//22 21//22
f 12//23 17//23 21//23
f 22//14 19//14 17//14
f 23//24 15//24 10//24
f 14//25 20//25 11//25
f 16//14 21//14 19//14
f 18//26 16//26 13//26
