# Blender v2.79 (sub 0) OBJ File: 'helium_head_gem.blend'
# www.blender.org
mtllib helium_head_gem.mtl
o HeliumHeadGem
v 0.400000 -0.000000 -0.400000
v -0.400000 -0.000000 -0.400000
v -0.681536 -0.400000 -0.221595
v 0.024389 -0.453365 -0.297516
v -0.186637 -0.205399 -0.367215
v -0.509547 -0.612166 -0.101187
v 0.117799 -0.533782 0.000000
v -0.625719 -0.560004 -0.000000
v 1.000000 -0.000000 0.000000
v -1.000000 -0.000000 -0.000000
v 0.400000 -0.000000 0.400000
v -0.400000 -0.000000 0.400000
v -0.461878 -0.695313 -0.000000
v -0.681536 -0.400000 0.221595
v 0.024389 -0.453365 0.297516
v -0.186637 -0.205399 0.367215
v -0.509547 -0.612166 0.101187
vn -0.5546 0.0193 -0.8319
vn -0.1303 -0.5672 -0.8132
vn 0.4656 -0.5436 -0.6984
vn -0.6203 -0.7017 -0.3504
vn -0.8165 -0.5457 -0.1884
vn 0.2538 -0.9107 -0.3258
vn -0.1542 -0.3099 -0.9382
vn 0.4817 -0.7961 -0.3664
vn 0.0317 -0.2453 -0.9689
vn -0.0000 -0.1576 -0.9875
vn -0.1269 -0.3670 -0.9215
vn -0.6041 -0.7314 -0.3165
vn -0.0031 -0.7733 -0.6340
vn -0.5546 0.0193 0.8319
vn -0.1303 -0.5672 0.8132
vn 0.4656 -0.5436 0.6984
vn -0.6203 -0.7017 0.3504
vn -0.8165 -0.5457 0.1884
vn 0.2538 -0.9107 0.3258
vn -0.1542 -0.3099 0.9382
vn 0.4817 -0.7961 0.3664
vn 0.0317 -0.2453 0.9689
vn -0.0000 -0.1576 0.9875
vn -0.1269 -0.3670 0.9215
vn -0.6041 -0.7314 0.3165
vn -0.0031 -0.7733 0.6340
usemtl None
s off
f 2//1 3//1 10//1
f 3//2 4//2 6//2
f 9//3 4//3 1//3
f 8//4 3//4 6//4
f 10//5 3//5 8//5
f 4//6 7//6 13//6
f 3//7 2//7 5//7
f 7//8 4//8 9//8
f 4//9 5//9 1//9
f 5//10 2//10 1//10
f 5//11 4//11 3//11
f 6//12 13//12 8//12
f 6//13 4//13 13//13
f 12//14 10//14 14//14
f 14//15 17//15 15//15
f 9//16 11//16 15//16
f 8//17 17//17 14//17
f 10//18 8//18 14//18
f 15//19 13//19 7//19
f 14//20 16//20 12//20
f 7//21 9//21 15//21
f 15//22 11//22 16//22
f 16//23 11//23 12//23
f 16//24 14//24 15//24
f 17//25 8//25 13//25
f 17//26 13//26 15//26
