# Blender v2.79 (sub 0) OBJ File: 'helium_joint.blend'
# www.blender.org
mtllib helium_joint.mtl
o HeliumJoint
v 0.400000 -0.000000 -0.349470
v -0.307097 0.299927 -1.097212
v 0.002570 -0.400000 -0.197014
v 0.330000 -0.400000 -0.173752
v -1.565280 1.200688 -0.599554
v -0.704417 1.202991 -1.322327
v 0.453045 0.394178 -0.511809
v -1.637783 -0.010245 -0.817318
v -0.674524 0.133910 -1.264224
v -0.197077 0.806173 -1.422048
v 0.250342 0.708333 -0.522984
v -0.480444 1.267234 -0.345996
v -1.619612 1.106310 -1.040472
v 0.054865 -0.040703 -0.610150
v -0.584792 0.333649 -0.549907
v -1.365404 -0.586240 -0.729271
v -1.259119 -0.118692 -1.031109
v -0.752836 -0.687673 -0.471676
v -1.072003 0.354655 -1.330845
v -1.273389 0.884220 -1.474600
v -1.681636 0.256213 -0.612371
v -1.369535 0.663413 -0.494921
v -0.194512 1.081603 -1.108164
v -0.343854 0.678011 -1.504844
v -0.516676 1.342339 -0.674703
v -0.706693 0.682817 -1.553865
v -0.267047 1.188098 -0.973096
v -0.389909 1.298858 -0.824734
v 0.121521 0.524719 -1.118235
v -0.120040 0.925977 -1.297421
v -1.163510 -0.474283 -0.849076
v -1.331666 -0.295534 -0.986909
v -1.243412 -0.334404 -0.498178
v -1.302883 -0.100117 -0.519630
v -1.194598 -0.097929 -0.804819
v -0.671989 0.521002 -0.370127
v -1.372354 0.087258 -1.154581
v 0.341753 -0.492364 0.000000
v 0.656947 -0.192501 0.000000
v -0.189620 0.712128 -0.000000
v 0.400000 -0.000000 0.349470
v -0.307097 0.299927 1.097212
v 0.002570 -0.400000 0.197014
v 0.330000 -0.400000 0.173752
v 0.725855 0.149862 0.000000
v -1.565280 1.200688 0.599554
v 0.306252 0.718225 0.000000
v -0.704417 1.202991 1.322327
v 0.453045 0.394178 0.511809
v 0.142027 0.879108 0.000000
v -1.637783 -0.010245 0.817318
v -0.053816 -0.441639 -0.000000
v -0.674524 0.133910 1.264224
v 0.132642 -0.519041 0.000000
v -0.197078 0.806173 1.422048
v 0.250342 0.708333 0.522984
v 0.455062 0.565009 0.000000
v -0.480444 1.267234 0.345996
v -1.619612 1.106310 1.040472
v 0.506206 -0.427862 0.000000
v 0.054865 -0.040703 0.610150
v -0.584792 0.333649 0.549907
v -1.365404 -0.586240 0.729271
v -1.259119 -0.118692 1.031109
v -0.752836 -0.687673 0.471676
v -1.072004 0.354655 1.330845
v -1.273389 0.884220 1.474600
v -1.681636 0.256213 0.612371
v -1.369535 0.663413 0.494921
v -0.194512 1.081603 1.108164
v -0.343854 0.678011 1.504844
v -0.516676 1.342339 0.674703
v -0.706693 0.682817 1.553865
v -0.267047 1.188098 0.973096
v -0.389910 1.298858 0.824734
v 0.121521 0.524719 1.118235
v -0.120040 0.925977 1.297421
v -1.163510 -0.474283 0.849076
v -1.331666 -0.295534 0.986908
v -1.243412 -0.334404 0.498178
v -1.302883 -0.100117 0.519630
v -1.194598 -0.097929 0.804818
v -0.671989 0.521002 0.370127
v -1.372354 0.087258 1.154581
vn -0.6701 -0.6798 -0.2981
vn 0.6160 -0.4047 -0.6758
vn 0.1115 -0.8743 -0.4723
vn 0.1479 -0.7555 -0.6383
vn 0.3240 -0.8261 -0.4611
vn 0.5799 -0.4106 -0.7037
vn 0.5396 -0.5925 -0.5982
vn 0.3908 0.7805 -0.4880
vn 0.6434 -0.3640 -0.6735
vn -0.1438 0.9752 -0.1682
vn 0.1464 0.4130 -0.8989
vn 0.8344 -0.1679 -0.5249
vn 0.8020 -0.3166 -0.5066
vn 0.8295 0.5288 -0.1798
vn 0.3288 0.8668 -0.3748
vn -0.2641 0.7569 -0.5978
vn -0.3667 -0.8834 -0.2917
vn 0.3178 -0.9227 0.2181
vn -0.1136 -0.4689 -0.8759
vn 0.5947 -0.1740 -0.7849
vn 0.0380 -0.8440 -0.5350
vn 0.3085 0.5833 -0.7514
vn 0.7145 0.6939 -0.0895
vn 0.7062 0.7024 -0.0888
vn 0.8235 0.5372 -0.1825
vn -0.1602 0.9691 -0.1877
vn 0.0639 0.9717 -0.2276
vn 0.6134 -0.3929 -0.6851
vn 0.3100 -0.6554 -0.6887
vn 0.0463 -0.7566 -0.6522
vn -0.2868 -0.0560 0.9563
vn -0.9881 0.1204 0.0960
vn -0.2174 0.4318 0.8754
vn -0.2324 0.1037 0.9671
vn -0.0937 -0.5493 -0.8303
vn 0.5872 -0.2381 -0.7736
vn -0.6376 -0.5329 0.5564
vn -0.8029 -0.1042 -0.5870
vn -0.2351 -0.3369 -0.9117
vn -0.7072 -0.4212 -0.5679
vn -0.4044 -0.5043 0.7630
vn 0.3644 -0.5509 0.7508
vn -0.1077 -0.4600 -0.8814
vn -0.9828 -0.0207 -0.1834
vn -0.3927 0.0359 0.9190
vn -0.0818 -0.6557 -0.7506
vn 0.0167 0.4065 -0.9135
vn 0.7880 0.5902 -0.1753
vn 0.7552 0.1722 -0.6324
vn 0.4677 0.8724 0.1423
vn 0.3784 0.8148 -0.4392
vn 0.3238 -0.6790 -0.6589
vn -0.1137 0.9658 0.2332
vn 0.6483 0.7607 -0.0310
vn 0.1278 0.4029 -0.9063
vn 0.1130 -0.4585 -0.8815
vn 0.5252 -0.6022 -0.6013
vn 0.8544 0.3383 -0.3943
vn 0.8092 0.5118 -0.2886
vn 0.7431 0.6583 -0.1200
vn 0.4624 0.8741 0.1488
vn 0.6982 0.7127 -0.0672
vn 0.0145 0.0948 0.9954
vn -0.1854 -0.0479 0.9815
vn -0.6763 -0.1049 0.7291
vn 0.3363 -0.3559 -0.8719
vn -0.6526 -0.6816 -0.3308
vn -0.7777 -0.0915 0.6219
vn 0.3878 -0.9214 -0.0260
vn -0.2135 -0.7263 0.6533
vn 0.5216 -0.8364 0.1684
vn 0.6923 0.6700 0.2680
vn -0.6369 0.1390 0.7583
vn 0.8375 0.4682 -0.2817
vn -0.7231 -0.2431 0.6466
vn 0.1079 -0.8105 -0.5757
vn 0.5136 -0.8371 0.1886
vn -0.6831 -0.3527 -0.6395
vn -0.1736 0.0127 0.9847
vn 0.3203 -0.3513 -0.8798
vn -0.7518 -0.1632 -0.6389
vn -0.2479 -0.3405 -0.9070
vn -0.6701 -0.6798 0.2981
vn 0.6160 -0.4047 0.6758
vn 0.1115 -0.8743 0.4723
vn 0.1479 -0.7555 0.6383
vn 0.3240 -0.8261 0.4611
vn 0.5799 -0.4106 0.7037
vn 0.5396 -0.5925 0.5982
vn 0.3908 0.7805 0.4880
vn 0.6434 -0.3640 0.6735
vn -0.1438 0.9752 0.1682
vn 0.1464 0.4130 0.8989
vn 0.8344 -0.1679 0.5249
vn 0.8020 -0.3166 0.5066
vn 0.8295 0.5288 0.1798
vn 0.3288 0.8668 0.3748
vn -0.2641 0.7569 0.5978
vn -0.3667 -0.8834 0.2917
vn 0.3178 -0.9227 -0.2181
vn -0.1136 -0.4689 0.8759
vn 0.5947 -0.1740 0.7849
vn 0.0380 -0.8440 0.5350
vn 0.3085 0.5833 0.7514
vn 0.7145 0.6939 0.0895
vn 0.7062 0.7024 0.0888
vn 0.8235 0.5372 0.1825
vn -0.1602 0.9691 0.1877
vn 0.0639 0.9717 0.2276
vn 0.6134 -0.3929 0.6851
vn 0.3100 -0.6554 0.6887
vn 0.0463 -0.7566 0.6522
vn -0.2868 -0.0560 -0.9563
vn -0.9881 0.1204 -0.0960
vn -0.2174 0.4318 -0.8754
vn -0.2324 0.1037 -0.9671
vn -0.0937 -0.5493 0.8303
vn 0.5872 -0.2381 0.7736
vn -0.6376 -0.5329 -0.5564
vn -0.8029 -0.1042 0.5870
vn -0.2351 -0.3369 0.9117
vn -0.7072 -0.4212 0.5679
vn -0.4044 -0.5043 -0.7630
vn 0.3644 -0.5509 -0.7508
vn -0.1077 -0.4600 0.8814
vn -0.9828 -0.0207 0.1834
vn -0.3927 0.0359 -0.9190
vn -0.0818 -0.6557 0.7506
vn 0.0167 0.4065 0.9135
vn 0.7880 0.5902 0.1753
vn 0.7552 0.1722 0.6324
vn 0.4677 0.8724 -0.1423
vn 0.3784 0.8148 0.4392
vn 0.3238 -0.6790 0.6589
vn -0.1137 0.9658 -0.2332
vn 0.6483 0.7607 0.0310
vn 0.1278 0.4029 0.9063
vn 0.1130 -0.4585 0.8815
vn 0.5252 -0.6022 0.6013
vn 0.8544 0.3383 0.3943
vn 0.8092 0.5118 0.2886
vn 0.7431 0.6583 0.1200
vn 0.4624 0.8741 -0.1488
vn 0.6982 0.7127 0.0672
vn 0.0145 0.0948 -0.9954
vn -0.1854 -0.0479 -0.9815
vn -0.6763 -0.1049 -0.7291
vn 0.3363 -0.3559 0.8719
vn -0.6526 -0.6816 0.3308
vn -0.7777 -0.0915 -0.6219
vn 0.3878 -0.9214 0.0260
vn -0.2135 -0.7263 -0.6533
vn 0.5216 -0.8364 -0.1684
vn 0.6923 0.6700 -0.2680
vn -0.6369 0.1390 -0.7583
vn 0.8375 0.4682 0.2817
vn -0.7231 -0.2431 -0.6466
vn 0.1079 -0.8105 0.5757
vn 0.5136 -0.8371 -0.1886
vn -0.6831 -0.3527 0.6395
vn -0.1736 0.0127 -0.9847
vn 0.3203 -0.3513 0.8798
vn -0.7518 -0.1632 0.6389
vn -0.2479 -0.3405 0.9070
usemtl None
s off
f 2//1 3//1 15//1
f 39//2 4//2 1//2
f 4//3 38//3 54//3
f 3//4 2//4 14//4
f 38//5 4//5 60//5
f 4//6 14//6 1//6
f 2//7 9//7 24//7
f 6//8 23//8 30//8
f 39//9 1//9 7//9
f 5//10 25//10 6//10
f 6//11 10//11 24//11
f 45//12 39//12 7//12
f 7//13 1//13 29//13
f 7//14 11//14 57//14
f 6//15 28//15 27//15
f 6//16 20//16 13//16
f 52//17 3//17 54//17
f 15//18 9//18 2//18
f 9//19 19//19 26//19
f 24//20 10//20 29//20
f 4//21 54//21 3//21
f 10//22 6//22 30//22
f 11//23 47//23 57//23
f 11//24 23//24 47//24
f 7//25 57//25 45//25
f 13//26 5//26 6//26
f 6//27 25//27 28//27
f 60//28 4//28 39//28
f 29//29 14//29 2//29
f 14//30 4//30 3//30
f 22//31 21//31 34//31
f 13//32 21//32 5//32
f 12//33 40//33 50//33
f 5//34 22//34 12//34
f 9//35 17//35 37//35
f 17//36 18//36 31//36
f 8//37 34//37 21//37
f 13//38 20//38 8//38
f 20//39 19//39 37//39
f 8//40 32//40 16//40
f 18//41 33//41 16//41
f 34//42 15//42 36//42
f 37//43 19//43 9//43
f 21//44 13//44 8//44
f 5//45 21//45 22//45
f 16//46 32//46 31//46
f 26//47 20//47 6//47
f 30//48 23//48 7//48
f 30//49 29//49 10//49
f 28//50 25//50 50//50
f 27//51 23//51 6//51
f 24//52 29//52 2//52
f 25//53 5//53 12//53
f 27//54 28//54 50//54
f 24//55 26//55 6//55
f 24//56 9//56 26//56
f 14//57 29//57 1//57
f 29//58 30//58 7//58
f 7//59 23//59 11//59
f 47//60 23//60 27//60
f 50//61 25//61 12//61
f 50//62 47//62 27//62
f 34//63 33//63 18//63
f 36//64 22//64 34//64
f 33//65 34//65 8//65
f 31//66 32//66 17//66
f 3//67 52//67 15//67
f 40//68 15//68 52//68
f 9//69 35//69 17//69
f 36//70 15//70 40//70
f 35//71 9//71 15//71
f 35//72 34//72 18//72
f 12//73 36//73 40//73
f 35//74 18//74 17//74
f 16//75 33//75 8//75
f 31//76 18//76 16//76
f 34//77 35//77 15//77
f 32//78 8//78 37//78
f 12//79 22//79 36//79
f 37//80 17//80 32//80
f 37//81 8//81 20//81
f 26//82 19//82 20//82
f 42//83 62//83 43//83
f 39//84 41//84 44//84
f 44//85 54//85 38//85
f 43//86 61//86 42//86
f 38//87 60//87 44//87
f 44//88 41//88 61//88
f 42//89 71//89 53//89
f 48//90 77//90 70//90
f 39//91 49//91 41//91
f 46//92 48//92 72//92
f 48//93 71//93 55//93
f 45//94 49//94 39//94
f 49//95 76//95 41//95
f 49//96 57//96 56//96
f 48//97 74//97 75//97
f 48//98 59//98 67//98
f 52//99 54//99 43//99
f 62//100 42//100 53//100
f 53//101 73//101 66//101
f 71//102 76//102 55//102
f 44//103 43//103 54//103
f 55//104 77//104 48//104
f 56//105 57//105 47//105
f 56//106 47//106 70//106
f 49//107 45//107 57//107
f 59//108 48//108 46//108
f 48//109 75//109 72//109
f 60//110 39//110 44//110
f 76//111 42//111 61//111
f 61//112 43//112 44//112
f 69//113 81//113 68//113
f 59//114 46//114 68//114
f 58//115 50//115 40//115
f 46//116 58//116 69//116
f 53//117 84//117 64//117
f 64//118 78//118 65//118
f 51//119 68//119 81//119
f 59//120 51//120 67//120
f 67//121 84//121 66//121
f 51//122 63//122 79//122
f 65//123 63//123 80//123
f 81//124 83//124 62//124
f 84//125 53//125 66//125
f 68//126 51//126 59//126
f 46//127 69//127 68//127
f 63//128 78//128 79//128
f 73//129 48//129 67//129
f 77//130 49//130 70//130
f 77//131 55//131 76//131
f 75//132 50//132 72//132
f 74//133 48//133 70//133
f 71//134 42//134 76//134
f 72//135 58//135 46//135
f 74//136 50//136 75//136
f 71//137 48//137 73//137
f 71//138 73//138 53//138
f 61//139 41//139 76//139
f 76//140 49//140 77//140
f 49//141 56//141 70//141
f 47//142 74//142 70//142
f 50//143 58//143 72//143
f 50//144 74//144 47//144
f 81//145 65//145 80//145
f 83//146 81//146 69//146
f 80//147 51//147 81//147
f 78//148 64//148 79//148
f 43//149 62//149 52//149
f 40//150 52//150 62//150
f 53//151 64//151 82//151
f 83//152 40//152 62//152
f 82//153 62//153 53//153
f 82//154 65//154 81//154
f 58//155 40//155 83//155
f 82//156 64//156 65//156
f 63//157 51//157 80//157
f 78//158 63//158 65//158
f 81//159 62//159 82//159
f 79//160 84//160 51//160
f 58//161 83//161 69//161
f 84//162 79//162 64//162
f 84//163 67//163 51//163
f 73//164 67//164 66//164
