# Blender v2.79 (sub 0) OBJ File: 'iron_body.blend'
# www.blender.org
mtllib iron_body.mtl
o IronBody_Side
v 0.400000 -0.000000 -0.400000
v -0.400000 -0.000000 -0.400000
v -0.330000 -0.400000 -0.400000
v 0.330000 -0.400000 -0.400000
v -0.330000 0.400000 -0.400000
v 0.330000 0.400000 -0.400000
v 0.700000 -0.700000 0.000000
v -0.700000 -0.700000 -0.000000
v 1.000000 -0.000000 0.000000
v -1.000000 -0.000000 -0.000000
v 0.400000 -0.000000 0.400000
v -0.400000 -0.000000 0.400000
v -0.000000 -1.000000 -0.000000
v -0.330000 -0.400000 0.400000
v 0.330000 -0.400000 0.400000
v 0.700000 0.700000 0.000000
v -0.700000 0.700000 -0.000000
v 0.000000 1.000000 0.000000
v -0.330000 0.400000 0.400000
v 0.330000 0.400000 0.400000
vn -0.5521 -0.0966 -0.8282
vn 0.0000 -0.5547 -0.8321
vn 0.5521 -0.0966 -0.8282
vn -0.2712 -0.6327 -0.7254
vn -0.6044 -0.2590 -0.7534
vn 0.2712 -0.6327 -0.7254
vn 0.0000 -0.0000 -1.0000
vn 0.6044 -0.2590 -0.7534
vn -0.5521 0.0966 -0.8282
vn 0.0000 0.5547 -0.8321
vn 0.5521 0.0966 -0.8282
vn -0.2712 0.6327 -0.7254
vn -0.6044 0.2590 -0.7534
vn 0.2712 0.6327 -0.7254
vn 0.6044 0.2590 -0.7534
vn -0.5521 -0.0966 0.8282
vn 0.0000 -0.5547 0.8321
vn 0.5521 -0.0966 0.8282
vn -0.2712 -0.6327 0.7254
vn -0.6044 -0.2590 0.7534
vn 0.2712 -0.6327 0.7254
vn -0.0000 0.0000 1.0000
vn 0.6044 -0.2590 0.7534
vn -0.5521 0.0966 0.8282
vn 0.0000 0.5547 0.8321
vn 0.5521 0.0966 0.8282
vn -0.2712 0.6327 0.7254
vn -0.6044 0.2590 0.7534
vn 0.2712 0.6327 0.7254
vn 0.6044 0.2590 0.7534
usemtl None
s off
f 2//1 3//1 10//1
f 3//2 4//2 13//2
f 9//3 4//3 1//3
f 8//4 3//4 13//4
f 10//5 3//5 8//5
f 4//6 7//6 13//6
f 3//7 2//7 1//7
f 7//8 4//8 9//8
f 4//7 3//7 1//7
f 2//9 10//9 5//9
f 5//10 18//10 6//10
f 9//11 1//11 6//11
f 17//12 18//12 5//12
f 10//13 17//13 5//13
f 6//14 18//14 16//14
f 5//7 1//7 2//7
f 16//15 9//15 6//15
f 6//7 1//7 5//7
f 12//16 10//16 14//16
f 14//17 13//17 15//17
f 9//18 11//18 15//18
f 8//19 13//19 14//19
f 10//20 8//20 14//20
f 15//21 13//21 7//21
f 14//22 11//22 12//22
f 7//23 9//23 15//23
f 15//22 11//22 14//22
f 12//24 19//24 10//24
f 19//25 20//25 18//25
f 9//26 20//26 11//26
f 17//27 19//27 18//27
f 10//28 19//28 17//28
f 20//29 16//29 18//29
f 19//22 12//22 11//22
f 16//30 20//30 9//30
f 20//22 19//22 11//22
