# Blender v2.79 (sub 0) OBJ File: 'iron_leg_gem.blend'
# www.blender.org
mtllib iron_leg_gem.mtl
o IronLegGem
v 0.800000 -0.000000 -0.400000
v -0.800000 -0.000000 -0.400000
v -0.485043 -0.863671 -0.400000
v 0.461607 -0.877085 -0.400000
v 0.700000 -0.463981 0.000000
v -0.700000 -0.463981 -0.000000
v 1.000000 -0.000000 0.000000
v -1.000000 -0.000000 -0.000000
v 0.800000 -0.000000 0.400000
v -0.800000 -0.000000 0.400000
v -0.000000 -1.000000 -0.000000
v -0.485043 -0.863671 0.400000
v 0.461607 -0.877085 0.400000
vn -0.8503 -0.3101 -0.4252
vn -0.0135 -0.9513 -0.3079
vn 0.8455 -0.3262 -0.4228
vn -0.5509 -0.7195 0.4229
vn -0.8363 -0.5407 0.0909
vn 0.5528 -0.7220 0.4161
vn 0.0000 0.0000 -1.0000
vn 0.8382 -0.5420 0.0602
vn -0.8503 -0.3101 0.4252
vn -0.0135 -0.9513 0.3079
vn 0.8455 -0.3262 0.4228
vn -0.5509 -0.7195 -0.4229
vn -0.8363 -0.5407 -0.0909
vn 0.5528 -0.7220 -0.4161
vn -0.0000 -0.0000 1.0000
vn 0.8382 -0.5420 -0.0602
usemtl None
s off
f 2//1 3//1 8//1
f 3//2 4//2 11//2
f 7//3 4//3 1//3
f 6//4 3//4 11//4
f 8//5 3//5 6//5
f 4//6 5//6 11//6
f 3//7 2//7 1//7
f 5//8 4//8 7//8
f 4//7 3//7 1//7
f 10//9 8//9 12//9
f 12//10 11//10 13//10
f 7//11 9//11 13//11
f 6//12 11//12 12//12
f 8//13 6//13 12//13
f 13//14 11//14 5//14
f 12//15 9//15 10//15
f 5//16 7//16 13//16
f 13//15 9//15 12//15
