# Blender v2.79 (sub 0) OBJ File: 'iron_leg_mid.blend'
# www.blender.org
mtllib iron_leg_mid.mtl
o IronLegMid
v 0.800000 -1.000000 0.400000
v 0.800000 1.000000 0.400000
v -0.800000 -1.000000 0.400000
v -0.800000 1.000000 0.400000
v -0.418663 -0.017004 0.354703
v 1.031851 -0.000172 0.351941
v 1.193292 0.004146 0.199171
v -0.564503 -0.014840 0.202968
v 0.292211 -0.008516 0.400000
v 1.000000 1.000000 -0.000000
v 1.000000 -1.000000 0.000000
v -1.000000 1.000000 0.000000
v -1.000000 -1.000000 0.000000
v 0.800000 -1.000000 -0.400000
v 0.800000 1.000000 -0.400000
v -0.800000 -1.000000 -0.400000
v -0.800000 1.000000 -0.400000
v 1.231851 0.008429 -0.000000
v -0.418663 -0.017004 -0.354703
v 1.031851 -0.000172 -0.351941
v 1.193292 0.004146 -0.199171
v -0.618663 -0.012610 0.000000
v -0.564503 -0.014840 -0.202968
v 0.292211 -0.008516 -0.400000
vn 0.0000 0.0000 1.0000
vn 0.6804 0.1230 0.7225
vn 0.9560 0.2235 0.1899
vn -0.9044 0.3493 0.2452
vn -0.6864 0.2969 0.6639
vn -0.6923 -0.2890 0.6612
vn 0.6838 -0.1240 0.7191
vn 0.9585 -0.2204 0.1808
vn -0.0626 -0.0678 0.9957
vn -0.9088 -0.3422 0.2387
vn 0.0644 0.0330 0.9974
vn -0.0643 0.0708 0.9954
vn 0.0652 -0.0328 0.9973
vn -0.8580 -0.2824 0.4290
vn -0.8559 0.2902 0.4280
vn 0.8650 0.2544 0.4325
vn 0.8655 -0.2524 0.4327
vn -0.0000 -0.0000 -1.0000
vn 0.6804 0.1230 -0.7225
vn 0.9560 0.2235 -0.1899
vn -0.9044 0.3493 -0.2452
vn -0.6864 0.2969 -0.6639
vn -0.6923 -0.2890 -0.6612
vn 0.6838 -0.1240 -0.7191
vn 0.9585 -0.2204 -0.1808
vn -0.0626 -0.0678 -0.9957
vn -0.9088 -0.3422 -0.2387
vn 0.0644 0.0330 -0.9974
vn -0.0643 0.0708 -0.9954
vn 0.0652 -0.0328 -0.9973
vn -0.8580 -0.2824 -0.4290
vn -0.8559 0.2902 -0.4280
vn 0.8650 0.2544 -0.4325
vn 0.8655 -0.2524 -0.4327
usemtl None
s off
f 1//1 9//1 3//1
f 4//1 9//1 2//1
f 2//2 6//2 7//2
f 10//3 7//3 18//3
f 13//4 8//4 22//4
f 3//5 5//5 8//5
f 8//6 5//6 4//6
f 7//7 6//7 1//7
f 18//8 7//8 11//8
f 5//9 9//9 4//9
f 22//10 8//10 12//10
f 6//11 9//11 1//11
f 3//12 9//12 5//12
f 2//13 9//13 6//13
f 4//14 12//14 8//14
f 8//15 13//15 3//15
f 7//16 10//16 2//16
f 11//17 7//17 1//17
f 14//18 16//18 24//18
f 17//18 15//18 24//18
f 15//19 21//19 20//19
f 10//20 18//20 21//20
f 13//21 22//21 23//21
f 16//22 23//22 19//22
f 23//23 17//23 19//23
f 21//24 14//24 20//24
f 18//25 11//25 21//25
f 19//26 17//26 24//26
f 22//27 12//27 23//27
f 20//28 14//28 24//28
f 16//29 19//29 24//29
f 15//30 20//30 24//30
f 17//31 23//31 12//31
f 23//32 16//32 13//32
f 21//33 15//33 10//33
f 11//34 14//34 21//34
