# Blender v2.79 (sub 0) OBJ File: 'nacloud.blend'
# www.blender.org
mtllib nacloud.mtl
o NABottom
v -0.447657 -0.401511 0.261461
v -0.754729 -0.310102 0.179211
v -0.218656 -0.307606 0.177222
v 0.447657 -0.401511 0.261461
v 0.000000 -0.432265 0.261461
v 0.754729 -0.310102 0.179211
v 0.218656 -0.307606 0.177222
v -0.447657 -0.401511 -0.261461
v -0.704583 -0.458612 0.000000
v -0.754729 -0.310102 -0.179211
v -0.817892 -0.333716 0.000000
v -0.218656 -0.307606 -0.177222
v 0.447657 -0.401511 -0.261461
v 0.000000 -0.432265 -0.261461
v 0.000000 -0.488541 0.000000
v 0.704583 -0.458612 0.000000
v 0.000000 -0.339002 0.000000
v 0.754729 -0.310102 -0.179211
v 0.817892 -0.333716 0.000000
v 0.218656 -0.307606 -0.177222
vn -0.0670 -0.9754 0.2099
vn -0.0411 -0.9670 0.2515
vn 0.0418 0.6087 0.7923
vn -0.0004 0.6682 0.7440
vn -0.6991 -0.6343 0.3300
vn 0.0064 0.9860 -0.1668
vn -0.0051 0.9916 -0.1289
vn -0.3692 -0.7637 0.5296
vn 0.3774 0.8722 0.3111
vn 0.0670 -0.9754 0.2099
vn 0.0411 -0.9670 0.2515
vn -0.0418 0.6087 0.7923
vn 0.0004 0.6682 0.7440
vn 0.6991 -0.6343 0.3300
vn -0.0064 0.9860 -0.1668
vn 0.0051 0.9916 -0.1289
vn 0.3692 -0.7637 0.5296
vn -0.3774 0.8722 0.3111
vn -0.0670 -0.9754 -0.2099
vn -0.0411 -0.9670 -0.2515
vn 0.0418 0.6087 -0.7923
vn -0.0004 0.6682 -0.7440
vn -0.6991 -0.6343 -0.3300
vn 0.0064 0.9860 0.1668
vn -0.0051 0.9916 0.1289
vn -0.3692 -0.7637 -0.5296
vn 0.3774 0.8722 -0.3111
vn 0.0670 -0.9754 -0.2099
vn 0.0411 -0.9670 -0.2515
vn -0.0418 0.6087 -0.7923
vn 0.0004 0.6682 -0.7440
vn 0.6991 -0.6343 -0.3300
vn -0.0064 0.9860 0.1668
vn 0.0051 0.9916 0.1289
vn 0.3692 -0.7637 -0.5296
vn -0.3774 0.8722 -0.3111
usemtl Material
s off
f 15//1 5//1 1//1
f 9//2 15//2 1//2
f 1//3 5//3 3//3
f 2//4 1//4 3//4
f 11//5 9//5 2//5
f 3//6 17//6 11//6
f 3//7 11//7 2//7
f 9//8 1//8 2//8
f 5//9 17//9 3//9
f 15//10 4//10 5//10
f 16//11 4//11 15//11
f 4//12 7//12 5//12
f 6//13 7//13 4//13
f 19//14 6//14 16//14
f 7//15 19//15 17//15
f 7//16 6//16 19//16
f 16//17 6//17 4//17
f 5//18 7//18 17//18
f 15//19 8//19 14//19
f 9//20 8//20 15//20
f 8//21 12//21 14//21
f 10//22 12//22 8//22
f 11//23 10//23 9//23
f 12//24 11//24 17//24
f 12//25 10//25 11//25
f 9//26 10//26 8//26
f 14//27 12//27 17//27
f 15//28 14//28 13//28
f 16//29 15//29 13//29
f 13//30 14//30 20//30
f 18//31 13//31 20//31
f 19//32 16//32 18//32
f 20//33 17//33 19//33
f 20//34 19//34 18//34
f 16//35 13//35 18//35
f 14//36 17//36 20//36
o NACloud
v -0.911374 -0.049050 0.134847
v -0.248223 -0.138614 0.197753
v -0.865405 -0.100000 0.177292
v -0.469630 -0.198872 0.213106
v -0.783739 -0.209312 0.180418
v -0.356356 -0.261340 0.078351
v -0.798066 -0.261340 0.081067
v -0.534039 -0.019012 0.124399
v -0.663914 -0.261340 0.157522
v -0.667824 0.000000 0.102216
v -0.992052 0.000000 0.039698
v -0.217290 0.000000 0.065857
v 0.911374 -0.049050 0.134847
v 0.000000 -0.083494 0.178210
v 0.248223 -0.138614 0.197753
v 0.865405 -0.100000 0.177292
v 0.000000 -0.261340 0.092356
v 0.469630 -0.198872 0.213106
v 0.783739 -0.209312 0.180418
v 0.356356 -0.261340 0.078351
v 0.798066 -0.261340 0.081067
v 0.534039 -0.019012 0.124399
v 0.663914 -0.261340 0.157522
v 0.000000 0.000000 0.136814
v 0.667824 0.000000 0.102216
v 0.992052 0.000000 0.039698
v 0.217290 0.000000 0.065857
v -0.911374 -0.049050 -0.134847
v -1.000000 -0.161306 0.000000
v -1.000000 0.000000 0.000000
v -0.248223 -0.138614 -0.197753
v -0.865405 -0.100000 -0.177292
v -0.469630 -0.198872 -0.213106
v -0.783739 -0.209312 -0.180418
v -0.356356 -0.261340 -0.078351
v -0.871849 -0.261344 0.000000
v -0.798066 -0.261340 -0.081067
v -0.534039 -0.019012 -0.124399
v -0.663914 -0.261340 -0.157522
v -0.667824 0.000000 -0.102216
v -0.992052 0.000000 -0.039698
v -0.217290 0.000000 -0.065857
v -0.523930 0.000000 0.000000
v 0.911374 -0.049050 -0.134847
v 0.000000 -0.083494 -0.178210
v 1.000000 -0.161306 0.000000
v 1.000000 0.000000 0.000000
v 0.000000 0.000000 0.000000
v 0.248223 -0.138614 -0.197753
v 0.865405 -0.100000 -0.177292
v 0.000000 -0.261340 -0.092356
v 0.000000 -0.261340 0.000000
v 0.469630 -0.198872 -0.213106
v 0.783739 -0.209312 -0.180418
v 0.356356 -0.261340 -0.078351
v 0.871849 -0.261344 0.000000
v 0.798066 -0.261340 -0.081067
v 0.534039 -0.019012 -0.124399
v 0.663914 -0.261340 -0.157522
v 0.000000 0.000000 -0.136814
v 0.667824 0.000000 -0.102216
v 0.992052 0.000000 -0.039698
v 0.217290 0.000000 -0.065857
v 0.523930 0.000000 0.000000
vn 0.0000 1.0000 0.0000
vn -0.9805 0.0000 0.1963
vn -0.5369 -0.6877 0.4887
vn -0.6286 -0.4515 0.6333
vn -0.7591 -0.1590 0.6313
vn 0.1651 -0.4288 0.8882
vn 0.0153 0.6481 0.7614
vn -0.0263 0.4370 0.8991
vn -0.1018 -0.0477 0.9937
vn 0.0000 -1.0000 0.0000
vn 0.2520 -0.7797 0.5732
vn -0.2718 -0.8359 0.4769
vn -0.0286 -0.6840 0.7290
vn -0.0134 0.2928 0.9561
vn -0.5350 -0.7143 0.4512
vn -0.0197 0.5396 0.8417
vn 0.1300 -0.8534 0.5048
vn -0.0701 -0.5326 0.8435
vn 0.0403 0.8657 0.4990
vn -0.7855 -0.1111 0.6088
vn 0.0481 0.8440 0.5342
vn -0.1006 0.8470 0.5220
vn -0.2808 0.4263 0.8599
vn -0.0315 0.6572 0.7530
vn 0.9805 0.0000 0.1963
vn 0.5369 -0.6877 0.4887
vn 0.6286 -0.4515 0.6333
vn 0.7591 -0.1590 0.6313
vn -0.1651 -0.4288 0.8882
vn -0.0153 0.6481 0.7614
vn 0.0263 0.4370 0.8991
vn 0.1018 -0.0477 0.9937
vn -0.2520 -0.7797 0.5732
vn 0.2718 -0.8359 0.4769
vn 0.0286 -0.6840 0.7290
vn 0.0134 0.2928 0.9561
vn 0.5350 -0.7143 0.4512
vn 0.0197 0.5396 0.8417
vn -0.1300 -0.8534 0.5048
vn 0.0701 -0.5326 0.8435
vn -0.0403 0.8657 0.4990
vn 0.7855 -0.1111 0.6088
vn -0.0481 0.8440 0.5342
vn 0.1006 0.8470 0.5220
vn 0.2808 0.4263 0.8599
vn 0.0315 0.6572 0.7530
vn -0.9805 0.0000 -0.1963
vn -0.5369 -0.6877 -0.4887
vn -0.6286 -0.4515 -0.6333
vn -0.7591 -0.1590 -0.6313
vn 0.1651 -0.4288 -0.8882
vn 0.0153 0.6481 -0.7614
vn -0.0263 0.4370 -0.8991
vn -0.1018 -0.0477 -0.9937
vn 0.2520 -0.7797 -0.5732
vn -0.2718 -0.8359 -0.4769
vn -0.0286 -0.6840 -0.7290
vn -0.0134 0.2928 -0.9561
vn -0.5350 -0.7143 -0.4512
vn -0.0197 0.5396 -0.8417
vn 0.1300 -0.8534 -0.5048
vn -0.0701 -0.5326 -0.8435
vn 0.0403 0.8657 -0.4990
vn -0.7855 -0.1111 -0.6088
vn 0.0481 0.8440 -0.5342
vn -0.1006 0.8470 -0.5220
vn -0.2808 0.4263 -0.8599
vn -0.0315 0.6572 -0.7530
vn 0.9805 0.0000 -0.1963
vn 0.5369 -0.6877 -0.4887
vn 0.6286 -0.4515 -0.6333
vn 0.7591 -0.1590 -0.6313
vn -0.1651 -0.4288 -0.8882
vn -0.0153 0.6481 -0.7614
vn 0.0263 0.4370 -0.8991
vn 0.1018 -0.0477 -0.9937
vn -0.2520 -0.7797 -0.5732
vn 0.2718 -0.8359 -0.4769
vn 0.0286 -0.6840 -0.7290
vn 0.0134 0.2928 -0.9561
vn 0.5350 -0.7143 -0.4512
vn 0.0197 0.5396 -0.8417
vn -0.1300 -0.8534 -0.5048
vn 0.0701 -0.5326 -0.8435
vn -0.0403 0.8657 -0.4990
vn 0.7855 -0.1111 -0.6088
vn -0.0481 0.8440 -0.5342
vn 0.1006 0.8470 -0.5220
vn 0.2808 0.4263 -0.8599
vn 0.0315 0.6572 -0.7530
usemtl Material
s off
f 50//37 31//37 30//37
f 31//38 50//38 49//38
f 49//39 56//39 27//39
f 44//37 68//37 32//37
f 25//40 23//40 49//40
f 23//41 21//41 49//41
f 37//42 34//42 22//42
f 21//43 23//43 22//43
f 21//44 22//44 34//44
f 23//45 25//45 24//45
f 72//46 37//46 26//46
f 22//47 24//47 26//47
f 27//46 56//46 72//46
f 25//48 27//48 29//48
f 27//46 26//46 29//46
f 72//46 26//46 27//46
f 37//49 22//49 26//49
f 22//50 23//50 24//50
f 27//51 25//51 49//51
f 21//52 34//52 28//52
f 68//37 63//37 32//37
f 26//53 24//53 29//53
f 24//54 25//54 29//54
f 32//55 30//55 28//55
f 21//56 31//56 49//56
f 28//57 34//57 32//57
f 31//58 21//58 30//58
f 63//37 50//37 30//37
f 32//37 63//37 30//37
f 34//59 44//59 32//59
f 21//60 28//60 30//60
f 67//37 45//37 46//37
f 46//61 66//61 67//61
f 66//62 41//62 76//62
f 44//37 47//37 68//37
f 39//63 66//63 36//63
f 36//64 66//64 33//64
f 37//65 35//65 34//65
f 33//66 35//66 36//66
f 33//67 34//67 35//67
f 36//68 38//68 39//68
f 72//46 40//46 37//46
f 35//69 40//69 38//69
f 41//46 72//46 76//46
f 39//70 43//70 41//70
f 41//46 43//46 40//46
f 72//46 41//46 40//46
f 37//71 40//71 35//71
f 35//72 38//72 36//72
f 41//73 66//73 39//73
f 33//74 42//74 34//74
f 68//37 47//37 84//37
f 40//75 43//75 38//75
f 38//76 43//76 39//76
f 47//77 42//77 45//77
f 33//78 66//78 46//78
f 42//79 47//79 34//79
f 46//80 45//80 33//80
f 84//37 45//37 67//37
f 47//37 45//37 84//37
f 34//81 47//81 44//81
f 33//82 45//82 42//82
f 50//37 60//37 61//37
f 61//83 49//83 50//83
f 49//84 57//84 56//84
f 80//37 62//37 68//37
f 54//85 49//85 52//85
f 52//86 49//86 48//86
f 71//87 51//87 65//87
f 48//88 51//88 52//88
f 48//89 65//89 51//89
f 52//90 53//90 54//90
f 72//46 55//46 71//46
f 51//91 55//91 53//91
f 57//46 72//46 56//46
f 54//92 59//92 57//92
f 57//46 59//46 55//46
f 72//46 57//46 55//46
f 71//93 55//93 51//93
f 51//94 53//94 52//94
f 57//95 49//95 54//95
f 48//96 58//96 65//96
f 68//37 62//37 63//37
f 55//97 59//97 53//97
f 53//98 59//98 54//98
f 62//99 58//99 60//99
f 48//100 49//100 61//100
f 58//101 62//101 65//101
f 61//102 60//102 48//102
f 63//37 60//37 50//37
f 62//37 60//37 63//37
f 65//103 62//103 80//103
f 48//104 60//104 58//104
f 67//37 82//37 81//37
f 82//105 67//105 66//105
f 66//106 76//106 77//106
f 80//37 68//37 83//37
f 74//107 70//107 66//107
f 70//108 64//108 66//108
f 71//109 65//109 69//109
f 64//110 70//110 69//110
f 64//111 69//111 65//111
f 70//112 74//112 73//112
f 72//46 71//46 75//46
f 69//113 73//113 75//113
f 77//46 76//46 72//46
f 74//114 77//114 79//114
f 77//46 75//46 79//46
f 72//46 75//46 77//46
f 71//115 69//115 75//115
f 69//116 70//116 73//116
f 77//117 74//117 66//117
f 64//118 65//118 78//118
f 68//37 84//37 83//37
f 75//119 73//119 79//119
f 73//120 74//120 79//120
f 83//121 81//121 78//121
f 64//122 82//122 66//122
f 78//123 65//123 83//123
f 82//124 64//124 81//124
f 84//37 67//37 81//37
f 83//37 84//37 81//37
f 65//125 80//125 83//125
f 64//126 78//126 81//126
