# Blender v2.79 (sub 0) OBJ File: 'rhodium_arm_mid.blend'
# www.blender.org
mtllib rhodium_arm_mid.mtl
o RhodiumArmMid
v -0.400000 1.000000 -0.600000
v 0.300000 -1.000000 -0.250000
v 0.400000 1.000000 -0.600000
v 0.000000 -1.000000 -0.250000
v 0.216667 0.027235 -0.400000
v 0.050000 0.000000 -0.400000
v 0.000000 1.000000 -0.600000
v -0.062732 -0.030003 -0.400000
v -0.516667 -0.162080 -0.200000
v 0.516667 0.018290 -0.200000
v 0.837659 0.408686 -0.235529
v 0.656314 0.450021 -0.344992
v 0.441361 0.531319 -0.403609
v -0.331641 -0.419847 -0.226277
v -0.168621 -0.407496 -0.315550
v -0.417894 0.544037 -0.358628
v -1.000000 1.000000 0.000000
v -0.350000 -1.000000 -0.000000
v 1.000000 1.000000 0.000000
v 0.800000 -1.000000 -0.000000
v -0.400000 1.000000 0.600000
v 0.300000 -1.000000 0.250000
v 0.400000 1.000000 0.600000
v -0.766667 0.085292 -0.000000
v 0.766667 0.000000 0.000000
v -0.000000 -1.000000 0.250000
v 0.216667 0.027235 0.400000
v 0.050000 -0.000000 0.400000
v -0.000000 1.000000 0.600000
v -0.062732 -0.030004 0.400000
v -0.516667 -0.162081 0.200000
v 0.516667 0.018290 0.200000
v 0.837659 0.408686 0.235529
v 1.071358 0.443684 0.000000
v 0.656314 0.450021 0.344992
v 0.441361 0.531319 0.403609
v -0.410882 -0.464253 -0.000000
v -0.331641 -0.419847 0.226277
v -0.168621 -0.407496 0.315550
v -0.417894 0.544037 0.358628
vn 0.0000 -0.1961 -0.9806
vn -0.6340 -0.3422 -0.6935
vn -0.7183 -0.1832 -0.6712
vn 0.5515 -0.0766 -0.8307
vn 0.4027 -0.4058 -0.8204
vn 0.1205 -0.3509 -0.9286
vn 0.5884 -0.2678 -0.7629
vn 0.6646 -0.4564 -0.5916
vn -0.6681 -0.3275 -0.6681
vn -0.5780 -0.1011 -0.8097
vn 0.0000 -0.1906 -0.9817
vn 0.0515 -0.1934 -0.9798
vn 0.0000 -0.1445 -0.9895
vn 0.0244 -0.1495 -0.9885
vn 0.0339 -0.2074 -0.9777
vn 0.4466 -0.0512 -0.8933
vn 0.6255 0.0208 -0.7800
vn -0.4375 -0.3147 -0.8424
vn -0.9318 -0.1059 -0.3471
vn 0.0400 -0.1502 -0.9879
vn 0.7003 0.0898 -0.7082
vn 0.6885 -0.2277 -0.6885
vn 0.5381 0.1802 -0.8234
vn 0.5215 -0.4922 -0.6969
vn 0.3608 0.3233 -0.8748
vn 0.5330 -0.2434 -0.8104
vn -0.4527 -0.2373 -0.8595
vn -0.7718 -0.5161 -0.3715
vn -0.1936 -0.1621 -0.9676
vn -0.3765 -0.1004 -0.9209
vn -0.5632 -0.2475 -0.7884
vn -0.7854 -0.5085 -0.3528
vn -0.3598 -0.1563 -0.9198
vn 0.0000 -0.1961 0.9806
vn -0.6340 -0.3422 0.6935
vn -0.7183 -0.1832 0.6712
vn 0.5515 -0.0766 0.8307
vn 0.4027 -0.4058 0.8204
vn 0.1205 -0.3509 0.9286
vn 0.5884 -0.2678 0.7629
vn 0.6646 -0.4564 0.5916
vn -0.6681 -0.3275 0.6681
vn -0.5780 -0.1011 0.8097
vn -0.0000 -0.1906 0.9817
vn 0.0515 -0.1934 0.9798
vn 0.0000 -0.1445 0.9895
vn 0.0244 -0.1495 0.9885
vn 0.0339 -0.2074 0.9777
vn 0.4466 -0.0512 0.8933
vn 0.6255 0.0208 0.7800
vn -0.4375 -0.3147 0.8424
vn -0.9318 -0.1059 0.3471
vn 0.0400 -0.1502 0.9879
vn 0.7003 0.0898 0.7082
vn 0.6885 -0.2277 0.6885
vn 0.5381 0.1802 0.8234
vn 0.5215 -0.4922 0.6969
vn 0.3608 0.3233 0.8748
vn 0.5330 -0.2434 0.8104
vn -0.4527 -0.2373 0.8595
vn -0.7718 -0.5161 0.3715
vn -0.1936 -0.1621 0.9676
vn -0.3765 -0.1004 0.9209
vn -0.5632 -0.2475 0.7884
vn -0.7854 -0.5085 0.3528
vn -0.3598 -0.1563 0.9198
usemtl None
s off
f 3//1 6//1 7//1
f 1//2 8//2 16//2
f 17//3 9//3 24//3
f 2//4 5//4 10//4
f 10//5 12//5 11//5
f 10//6 13//6 12//6
f 5//7 3//7 13//7
f 25//8 11//8 34//8
f 1//9 16//9 17//9
f 9//10 17//10 16//10
f 7//11 8//11 1//11
f 7//12 6//12 8//12
f 4//13 5//13 2//13
f 4//14 6//14 5//14
f 6//15 3//15 5//15
f 2//16 10//16 20//16
f 20//17 10//17 25//17
f 18//18 14//18 15//18
f 18//19 37//19 14//19
f 6//20 4//20 8//20
f 34//21 11//21 19//21
f 19//22 13//22 3//22
f 12//23 19//23 11//23
f 11//24 25//24 10//24
f 19//25 12//25 13//25
f 13//26 10//26 5//26
f 15//27 14//27 9//27
f 14//28 37//28 9//28
f 15//29 8//29 4//29
f 15//30 9//30 8//30
f 15//31 4//31 18//31
f 9//32 37//32 24//32
f 9//33 16//33 8//33
f 23//34 29//34 28//34
f 21//35 40//35 30//35
f 17//36 24//36 31//36
f 22//37 32//37 27//37
f 32//38 33//38 35//38
f 32//39 35//39 36//39
f 27//40 36//40 23//40
f 25//41 34//41 33//41
f 21//42 17//42 40//42
f 31//43 40//43 17//43
f 29//44 21//44 30//44
f 29//45 30//45 28//45
f 26//46 22//46 27//46
f 26//47 27//47 28//47
f 28//48 27//48 23//48
f 22//49 20//49 32//49
f 20//50 25//50 32//50
f 18//51 39//51 38//51
f 18//52 38//52 37//52
f 28//53 30//53 26//53
f 34//54 19//54 33//54
f 19//55 23//55 36//55
f 35//56 33//56 19//56
f 33//57 32//57 25//57
f 19//58 36//58 35//58
f 36//59 27//59 32//59
f 39//60 31//60 38//60
f 38//61 31//61 37//61
f 39//62 26//62 30//62
f 39//63 30//63 31//63
f 39//64 18//64 26//64
f 31//65 24//65 37//65
f 31//66 30//66 40//66
