# Blender v2.79 (sub 0) OBJ File: 'rhodium_body_gem.blend'
# www.blender.org
mtllib rhodium_body_gem.mtl
o RhodiumBodyGem
v 0.400000 -0.000000 -0.400000
v -0.400000 -0.000000 -0.400000
v -0.330000 -0.728093 -0.400000
v 0.077348 -0.728093 -0.400000
v 0.227292 -0.912072 0.000000
v -0.700000 -0.700000 -0.000000
v 1.000000 -0.000000 0.000000
v -1.000000 -0.000000 -0.000000
v 0.400000 -0.000000 0.400000
v -0.400000 -0.000000 0.400000
v -0.000000 -1.000000 -0.000000
v -0.330000 -0.728093 0.400000
v 0.077348 -0.728093 0.400000
vn -0.5539 -0.0533 -0.8309
vn 0.0000 -0.8270 -0.5622
vn 0.5387 -0.2387 -0.8080
vn -0.3773 -0.8804 -0.2872
vn -0.7099 -0.3042 -0.6353
vn 0.3142 -0.8123 -0.4914
vn 0.0000 -0.0000 -1.0000
vn 0.6591 -0.5584 -0.5039
vn -0.5539 -0.0533 0.8309
vn 0.0000 -0.8270 0.5622
vn 0.5387 -0.2387 0.8080
vn -0.3773 -0.8804 0.2872
vn -0.7099 -0.3042 0.6353
vn 0.3142 -0.8123 0.4914
vn -0.0000 0.0000 1.0000
vn 0.6591 -0.5584 0.5039
usemtl None
s off
f 2//1 3//1 8//1
f 3//2 4//2 11//2
f 7//3 4//3 1//3
f 6//4 3//4 11//4
f 8//5 3//5 6//5
f 4//6 5//6 11//6
f 3//7 2//7 1//7
f 5//8 4//8 7//8
f 4//7 3//7 1//7
f 10//9 8//9 12//9
f 12//10 11//10 13//10
f 7//11 9//11 13//11
f 6//12 11//12 12//12
f 8//13 6//13 12//13
f 13//14 11//14 5//14
f 12//15 9//15 10//15
f 5//16 7//16 13//16
f 13//15 9//15 12//15
