# Blender v2.79 (sub 0) OBJ File: 'silicon_leg_gem2.blend'
# www.blender.org
mtllib silicon_leg_gem2.mtl
o SiliconLegGem2
v 0.400000 -0.000000 -0.400000
v -0.400000 -0.000000 -0.400000
v -0.485941 -0.089043 -0.400000
v 0.488028 -0.095575 -0.400000
v 0.303106 -0.318051 -0.017907
v -0.288413 -0.352074 -0.017935
v -0.386374 -0.484979 -0.183011
v 0.268452 -0.690146 -0.018201
v -0.237795 -0.690988 -0.017641
v -0.342143 -0.832585 -0.039532
v 0.331035 -0.831779 -0.046161
v 0.700000 -0.700000 0.000000
v -0.700000 -0.700000 -0.000000
v 1.000000 -0.000000 0.000000
v -1.000000 -0.000000 -0.000000
v 0.400000 -0.000000 0.400000
v -0.400000 -0.000000 0.400000
v -0.000000 -1.000000 -0.000000
v -0.485941 -0.089043 0.400000
v 0.488028 -0.095575 0.400000
v 0.303106 -0.318051 0.017907
v -0.288413 -0.352074 0.017935
v -0.386374 -0.484979 0.183011
v 0.268452 -0.690146 0.018201
v -0.237795 -0.690988 0.017641
v -0.342143 -0.832585 0.039532
v 0.331035 -0.831779 0.046161
vn -0.4890 0.4720 -0.7335
vn 0.0467 -0.8113 -0.5827
vn 0.4940 0.4550 -0.7409
vn -0.2446 -0.3964 -0.8849
vn -0.6203 -0.2658 -0.7380
vn 0.0000 -0.0000 -1.0000
vn 0.6238 -0.2673 -0.7345
vn 0.2710 -0.4633 -0.8437
vn 0.8745 -0.0448 -0.4829
vn 0.0010 0.0578 0.9983
vn 0.1727 0.0249 -0.9847
vn -0.0398 0.0930 0.9949
vn -0.0058 -0.8629 -0.5053
vn -0.1507 -0.5040 -0.8505
vn -0.0410 0.1821 -0.9824
vn 0.0363 0.0848 0.9957
vn 0.8837 -0.0781 -0.4615
vn -0.8943 -0.0240 -0.4468
vn 0.3488 -0.8139 -0.4646
vn -0.0092 -0.2477 -0.9688
vn -0.3547 -0.8276 -0.4351
vn -0.0099 0.1895 -0.9818
vn -0.0014 0.1538 -0.9881
vn -0.0421 0.0031 0.9991
vn -0.3448 0.0329 -0.9381
vn 0.0000 0.0008 -1.0000
vn -0.0011 -0.0010 -1.0000
vn -0.4890 0.4720 0.7335
vn 0.0467 -0.8113 0.5827
vn 0.4940 0.4550 0.7409
vn -0.2446 -0.3964 0.8849
vn -0.6203 -0.2658 0.7380
vn -0.0000 0.0000 1.0000
vn 0.6238 -0.2673 0.7345
vn 0.2710 -0.4633 0.8437
vn 0.8745 -0.0448 0.4829
vn 0.0010 0.0578 -0.9983
vn 0.1727 0.0249 0.9847
vn -0.0398 0.0930 -0.9949
vn -0.0058 -0.8629 0.5053
vn -0.1507 -0.5040 0.8505
vn -0.0410 0.1821 0.9824
vn 0.0363 0.0848 -0.9957
vn 0.8837 -0.0781 0.4615
vn -0.8943 -0.0240 0.4468
vn 0.3488 -0.8139 0.4646
vn -0.0092 -0.2477 0.9688
vn -0.3547 -0.8276 0.4351
vn -0.0099 0.1895 0.9818
vn -0.0014 0.1538 0.9881
vn -0.0421 0.0031 -0.9991
vn -0.3448 0.0329 0.9381
vn 0.0000 0.0008 1.0000
vn -0.0011 -0.0010 1.0000
usemtl None
s off
f 2//1 3//1 15//1
f 3//2 5//2 6//2
f 14//3 4//3 1//3
f 13//4 7//4 10//4
f 15//5 3//5 13//5
f 3//6 2//6 1//6
f 12//7 4//7 14//7
f 4//6 3//6 1//6
f 12//8 11//8 4//8
f 6//9 7//9 3//9
f 9//10 18//10 8//10
f 10//11 6//11 9//11
f 8//12 18//12 12//12
f 3//13 4//13 5//13
f 13//14 3//14 7//14
f 10//15 13//15 9//15
f 9//16 13//16 18//16
f 10//17 7//17 6//17
f 5//18 4//18 11//18
f 12//19 18//19 11//19
f 18//20 10//20 11//20
f 18//21 13//21 10//21
f 11//22 10//22 8//22
f 10//23 9//23 8//23
f 5//24 8//24 12//24
f 8//25 5//25 11//25
f 6//26 5//26 8//26
f 8//27 9//27 6//27
f 17//28 15//28 19//28
f 19//29 22//29 21//29
f 14//30 16//30 20//30
f 13//31 26//31 23//31
f 15//32 13//32 19//32
f 19//33 16//33 17//33
f 12//34 14//34 20//34
f 20//33 16//33 19//33
f 12//35 20//35 27//35
f 22//36 19//36 23//36
f 25//37 24//37 18//37
f 26//38 25//38 22//38
f 24//39 12//39 18//39
f 19//40 21//40 20//40
f 13//41 23//41 19//41
f 26//42 25//42 13//42
f 25//43 18//43 13//43
f 26//44 22//44 23//44
f 21//45 27//45 20//45
f 12//46 27//46 18//46
f 18//47 27//47 26//47
f 18//48 26//48 13//48
f 27//49 24//49 26//49
f 26//50 24//50 25//50
f 21//51 12//51 24//51
f 24//52 27//52 21//52
f 22//53 24//53 21//53
f 24//54 22//54 25//54
