# Blender v2.79 (sub 0) OBJ File: 'silicon_leg_gem.blend'
# www.blender.org
mtllib silicon_leg_gem.mtl
o SiliconLegGem
v 0.400000 -0.000000 -0.400000
v -0.400000 -0.000000 -0.400000
v -0.200000 -0.606283 -0.200159
v 0.200000 -0.606283 -0.291648
v -0.000590 -0.000000 -0.400000
v 0.000000 -0.165698 -0.460926
v 0.000000 -0.319281 -0.360382
v 0.250000 -0.700000 0.000000
v -0.250000 -0.700000 -0.000000
v 1.000000 -0.000000 0.000000
v -1.000000 -0.000000 -0.000000
v 0.400000 -0.000000 0.400000
v -0.400000 -0.000000 0.400000
v -0.000000 -0.802000 -0.000000
v -0.200000 -0.606283 0.200159
v 0.200000 -0.606283 0.291648
v -0.000590 -0.000000 0.400000
v -0.000000 -0.165698 0.460926
v -0.000000 -0.319281 0.360382
vn -0.5045 -0.4158 -0.7567
vn 0.2116 -0.5847 -0.7832
vn 0.5265 -0.3148 -0.7897
vn -0.3341 -0.8188 -0.4668
vn -0.6072 -0.6505 -0.4563
vn 0.3552 -0.8705 -0.3406
vn -0.3340 -0.5163 -0.7886
vn 0.6436 -0.6896 -0.3319
vn 0.0580 -0.1941 -0.9793
vn 0.0000 0.3451 -0.9386
vn -0.5037 -0.5168 -0.6922
vn -0.2023 -0.3661 -0.9083
vn 0.3340 -0.5163 -0.7886
vn -0.5045 -0.4158 0.7567
vn 0.2116 -0.5847 0.7832
vn 0.5265 -0.3148 0.7897
vn -0.3341 -0.8188 0.4668
vn -0.6072 -0.6505 0.4563
vn 0.3552 -0.8705 0.3406
vn -0.3340 -0.5163 0.7886
vn 0.6436 -0.6896 0.3319
vn 0.0580 -0.1941 0.9793
vn 0.0000 0.3451 0.9386
vn -0.5037 -0.5168 0.6922
vn -0.2023 -0.3661 0.9083
vn 0.3340 -0.5163 0.7886
usemtl None
s off
f 2//1 3//1 11//1
f 3//2 7//2 14//2
f 10//3 4//3 1//3
f 9//4 3//4 14//4
f 11//5 3//5 9//5
f 4//6 8//6 14//6
f 2//7 6//7 7//7
f 8//8 4//8 10//8
f 7//9 1//9 4//9
f 2//10 5//10 6//10
f 14//11 7//11 4//11
f 2//12 7//12 3//12
f 6//10 5//10 1//10
f 7//13 6//13 1//13
f 13//14 11//14 15//14
f 15//15 14//15 19//15
f 10//16 12//16 16//16
f 9//17 14//17 15//17
f 11//18 9//18 15//18
f 16//19 14//19 8//19
f 13//20 19//20 18//20
f 8//21 10//21 16//21
f 19//22 16//22 12//22
f 13//23 18//23 17//23
f 14//24 16//24 19//24
f 13//25 15//25 19//25
f 18//23 12//23 17//23
f 19//26 12//26 18//26
