# Blender v2.79 (sub 0) OBJ File: 'xenon_foot_mid.blend'
# www.blender.org
mtllib xenon_foot_mid.mtl
o XenonFootMid
v -0.878194 -0.062490 0.112351
v -0.527866 0.320419 0.347561
v -0.699404 0.230259 0.400000
v -0.508936 0.147945 0.400000
v -0.679704 -0.239692 0.400000
v -0.363895 0.044228 0.214149
v -0.880000 -1.000000 0.300000
v -0.730000 -1.000000 0.300000
v 0.878194 -0.062490 0.112351
v 0.527866 0.320419 0.347561
v 0.699404 0.230259 0.400000
v 0.000000 0.567036 0.110377
v 0.508936 0.147945 0.400000
v 0.679704 -0.239692 0.400000
v 0.000000 0.417824 0.221792
v 0.363895 0.044228 0.214149
v 0.880000 -1.000000 0.300000
v 0.730000 -1.000000 0.300000
v -0.878194 -0.062490 -0.112351
v -1.000000 -0.401060 0.000000
v -0.704228 0.425740 0.000000
v -1.000000 -1.000000 0.000000
v -0.666000 -1.000000 0.000000
v -0.400000 0.592797 -0.000000
v -0.527866 0.320419 -0.347561
v -0.699404 0.230259 -0.400000
v -0.508936 0.147945 -0.400000
v -0.679704 -0.239692 -0.400000
v -0.246047 -0.664170 0.000000
v -0.363895 0.044228 -0.214149
v -0.151321 -0.213308 0.000000
v -0.880000 -1.000000 -0.300000
v -0.730000 -1.000000 -0.300000
v 0.878194 -0.062490 -0.112351
v 1.000000 -0.401060 -0.000000
v 0.704228 0.425740 -0.000000
v 1.000000 -1.000000 0.000000
v -0.000000 0.371379 -0.000000
v -0.000000 0.669479 -0.000000
v 0.666000 -1.000000 0.000000
v 0.400000 0.592797 -0.000000
v 0.527866 0.320419 -0.347561
v 0.699404 0.230259 -0.400000
v -0.000000 0.567036 -0.110377
v 0.508936 0.147945 -0.400000
v 0.679704 -0.239692 -0.400000
v -0.000000 0.417824 -0.221792
v 0.246047 -0.664170 0.000000
v 0.363895 0.044228 -0.214149
v 0.151321 -0.213308 0.000000
v 0.880000 -1.000000 -0.300000
v 0.730000 -1.000000 -0.300000
vn 0.6012 -0.1556 0.7838
vn -0.1391 0.7258 0.6737
vn -0.9416 0.3368 0.0058
vn -0.7944 0.0863 0.6013
vn -0.7992 0.1334 0.5861
vn 0.1675 0.3036 0.9380
vn -0.9100 0.3682 0.1909
vn -0.2592 0.8042 0.5349
vn 0.5087 -0.8427 0.1765
vn 0.0000 -0.0000 1.0000
vn 0.6671 -0.2939 0.6846
vn -0.1105 0.8016 0.5876
vn -0.8325 -0.0349 0.5530
vn 0.0802 0.5964 0.7987
vn -0.4415 0.8040 0.3983
vn 0.1303 0.3015 0.9445
vn 0.0000 -0.1304 0.9915
vn 0.6191 -0.7741 0.1321
vn 0.6027 -0.1266 0.7878
vn 0.5914 -0.1435 0.7935
vn -0.9285 0.0000 0.3714
vn -0.6012 -0.1556 0.7838
vn 0.1391 0.7258 0.6737
vn 0.9416 0.3368 0.0058
vn 0.7944 0.0863 0.6013
vn 0.7992 0.1334 0.5861
vn -0.1675 0.3036 0.9380
vn 0.9100 0.3682 0.1909
vn 0.2592 0.8042 0.5349
vn -0.5087 -0.8427 0.1765
vn -0.6671 -0.2939 0.6846
vn 0.1105 0.8016 0.5876
vn 0.8325 -0.0349 0.5530
vn -0.0802 0.5964 0.7987
vn 0.4415 0.8040 0.3983
vn -0.1303 0.3015 0.9445
vn -0.6191 -0.7741 0.1321
vn -0.6027 -0.1266 0.7878
vn -0.5914 -0.1435 0.7935
vn 0.9285 0.0000 0.3714
vn 0.6012 -0.1556 -0.7838
vn -0.1391 0.7258 -0.6737
vn -0.9416 0.3368 -0.0058
vn -0.7944 0.0863 -0.6013
vn -0.7992 0.1334 -0.5861
vn 0.1675 0.3036 -0.9380
vn -0.9100 0.3682 -0.1909
vn -0.2592 0.8042 -0.5349
vn 0.5087 -0.8427 -0.1765
vn 0.0000 -0.0000 -1.0000
vn 0.6671 -0.2939 -0.6846
vn -0.1105 0.8016 -0.5876
vn -0.8325 -0.0349 -0.5530
vn 0.0802 0.5964 -0.7987
vn -0.4415 0.8040 -0.3983
vn 0.1303 0.3015 -0.9445
vn 0.0000 -0.1304 -0.9915
vn 0.6191 -0.7741 -0.1321
vn 0.6027 -0.1266 -0.7878
vn 0.5914 -0.1435 -0.7935
vn -0.9285 0.0000 -0.3714
vn -0.6012 -0.1556 -0.7838
vn 0.1391 0.7258 -0.6737
vn 0.9416 0.3368 -0.0058
vn 0.7944 0.0863 -0.6013
vn 0.7992 0.1334 -0.5861
vn -0.1675 0.3036 -0.9380
vn 0.9100 0.3682 -0.1909
vn 0.2592 0.8042 -0.5349
vn -0.5087 -0.8427 -0.1765
vn -0.6671 -0.2939 -0.6846
vn 0.1105 0.8016 -0.5876
vn 0.8325 -0.0349 -0.5530
vn -0.0802 0.5964 -0.7987
vn 0.4415 0.8040 -0.3983
vn -0.1303 0.3015 -0.9445
vn -0.6191 -0.7741 -0.1321
vn -0.6027 -0.1266 -0.7878
vn -0.5914 -0.1435 -0.7935
vn 0.9285 0.0000 -0.3714
usemtl None
s off
f 38//1 6//1 31//1
f 24//2 12//2 39//2
f 20//3 1//3 21//3
f 5//4 1//4 20//4
f 20//5 7//5 5//5
f 4//6 15//6 2//6
f 3//7 21//7 1//7
f 3//8 2//8 24//8
f 15//9 4//9 38//9
f 4//10 3//10 5//10
f 38//11 4//11 6//11
f 24//12 2//12 12//12
f 5//13 3//13 1//13
f 12//14 2//14 15//14
f 3//15 24//15 21//15
f 4//16 2//16 3//16
f 5//17 7//17 8//17
f 29//18 8//18 23//18
f 6//11 4//11 5//11
f 31//19 5//19 29//19
f 8//20 29//20 5//20
f 20//21 22//21 7//21
f 31//1 6//1 5//1
f 38//22 50//22 16//22
f 41//23 39//23 12//23
f 35//24 36//24 9//24
f 14//25 35//25 9//25
f 35//26 14//26 17//26
f 13//27 10//27 15//27
f 11//28 9//28 36//28
f 11//29 41//29 10//29
f 15//30 38//30 13//30
f 13//10 14//10 11//10
f 38//31 16//31 13//31
f 41//32 12//32 10//32
f 14//33 9//33 11//33
f 12//34 15//34 10//34
f 11//35 36//35 41//35
f 13//36 11//36 10//36
f 14//17 18//17 17//17
f 48//37 40//37 18//37
f 16//31 14//31 13//31
f 50//38 48//38 14//38
f 18//39 14//39 48//39
f 35//40 17//40 37//40
f 50//22 14//22 16//22
f 38//41 31//41 30//41
f 24//42 39//42 44//42
f 20//43 21//43 19//43
f 28//44 20//44 19//44
f 20//45 28//45 32//45
f 27//46 25//46 47//46
f 26//47 19//47 21//47
f 26//48 24//48 25//48
f 47//49 38//49 27//49
f 27//50 28//50 26//50
f 38//51 30//51 27//51
f 24//52 44//52 25//52
f 28//53 19//53 26//53
f 44//54 47//54 25//54
f 26//55 21//55 24//55
f 27//56 26//56 25//56
f 28//57 33//57 32//57
f 29//58 23//58 33//58
f 30//51 28//51 27//51
f 31//59 29//59 28//59
f 33//60 28//60 29//60
f 20//61 32//61 22//61
f 31//41 28//41 30//41
f 38//62 49//62 50//62
f 41//63 44//63 39//63
f 35//64 34//64 36//64
f 46//65 34//65 35//65
f 35//66 51//66 46//66
f 45//67 47//67 42//67
f 43//68 36//68 34//68
f 43//69 42//69 41//69
f 47//70 45//70 38//70
f 45//50 43//50 46//50
f 38//71 45//71 49//71
f 41//72 42//72 44//72
f 46//73 43//73 34//73
f 44//74 42//74 47//74
f 43//75 41//75 36//75
f 45//76 42//76 43//76
f 46//57 51//57 52//57
f 48//77 52//77 40//77
f 49//71 45//71 46//71
f 50//78 46//78 48//78
f 52//79 48//79 46//79
f 35//80 37//80 51//80
f 50//62 49//62 46//62
