# Blender v2.79 (sub 0) OBJ File: 'xenon_leg_gem2.blend'
# www.blender.org
mtllib xenon_leg_gem2.mtl
o XenonLegGem2
v -0.330000 -0.400000 -0.400000
v 0.330000 -0.400000 -0.400000
v 0.700000 -0.700000 0.000000
v -0.700000 -0.700000 -0.000000
v -0.000000 -1.000000 -0.000000
v -0.330000 -0.400000 0.400000
v 0.330000 -0.400000 0.400000
v 0.600000 -0.000000 -0.600000
v -0.600000 -0.000000 -0.600000
v -0.330000 0.400000 -0.400000
v 0.330000 0.400000 -0.400000
v 0.700000 0.700000 0.000000
v -0.700000 0.700000 -0.000000
v 1.500000 -0.000000 0.000000
v -1.500000 -0.000000 -0.000000
v 0.600000 -0.000000 0.600000
v -0.600000 -0.000000 0.600000
v 0.000000 1.000000 0.000000
v -0.330000 0.400000 0.400000
v 0.330000 0.400000 0.400000
vn -0.4352 -0.6201 -0.6528
vn 0.0000 -0.5547 -0.8321
vn 0.4352 -0.6201 -0.6528
vn -0.2712 -0.6327 -0.7254
vn -0.4271 -0.4881 -0.7611
vn 0.2712 -0.6327 -0.7254
vn -0.0000 -0.4472 -0.8944
vn 0.4271 -0.4881 -0.7611
vn -0.4352 -0.6201 0.6528
vn 0.0000 -0.5547 0.8321
vn 0.4352 -0.6201 0.6528
vn -0.2712 -0.6327 0.7254
vn -0.4271 -0.4881 0.7611
vn 0.2712 -0.6327 0.7254
vn -0.0000 -0.4472 0.8944
vn 0.4271 -0.4881 0.7611
vn -0.4352 0.6201 -0.6528
vn 0.0000 0.5547 -0.8321
vn 0.4352 0.6201 -0.6528
vn -0.2712 0.6327 -0.7254
vn -0.4271 0.4881 -0.7611
vn 0.2712 0.6327 -0.7254
vn 0.0000 0.4472 -0.8944
vn 0.4271 0.4881 -0.7611
vn -0.4352 0.6201 0.6528
vn 0.0000 0.5547 0.8321
vn 0.4352 0.6201 0.6528
vn -0.2712 0.6327 0.7254
vn -0.4271 0.4881 0.7611
vn 0.2712 0.6327 0.7254
vn 0.0000 0.4472 0.8944
vn 0.4271 0.4881 0.7611
usemtl None
s off
f 9//1 1//1 15//1
f 1//2 2//2 5//2
f 14//3 2//3 8//3
f 4//4 1//4 5//4
f 15//5 1//5 4//5
f 2//6 3//6 5//6
f 1//7 9//7 8//7
f 3//8 2//8 14//8
f 2//7 1//7 8//7
f 17//9 15//9 6//9
f 6//10 5//10 7//10
f 14//11 16//11 7//11
f 4//12 5//12 6//12
f 15//13 4//13 6//13
f 7//14 5//14 3//14
f 6//15 16//15 17//15
f 3//16 14//16 7//16
f 7//15 16//15 6//15
f 9//17 15//17 10//17
f 10//18 18//18 11//18
f 14//19 8//19 11//19
f 13//20 18//20 10//20
f 15//21 13//21 10//21
f 11//22 18//22 12//22
f 10//23 8//23 9//23
f 12//24 14//24 11//24
f 11//23 8//23 10//23
f 17//25 19//25 15//25
f 19//26 20//26 18//26
f 14//27 20//27 16//27
f 13//28 19//28 18//28
f 15//29 19//29 13//29
f 20//30 12//30 18//30
f 19//31 17//31 16//31
f 12//32 20//32 14//32
f 20//31 19//31 16//31
